<?xml version="1.0" encoding="UTF-8"?>
<!DOCTYPE svg PUBLIC "-//W3C//DTD SVG 1.1//EN" "http://www.w3.org/Graphics/SVG/1.1/DTD/svg11.dtd">
<svg xmlns="http://www.w3.org/2000/svg" version="1.1" width="85px" height="83px" style="shape-rendering:geometricPrecision; text-rendering:geometricPrecision; image-rendering:optimizeQuality; fill-rule:evenodd; clip-rule:evenodd" xmlns:xlink="http://www.w3.org/1999/xlink">
<g><path style="opacity:0.88" fill="#0b0a09" d="M 39.5,-0.5 C 41.1667,-0.5 42.8333,-0.5 44.5,-0.5C 44.3367,1.85684 44.5034,4.19018 45,6.5C 49.6442,9.14146 52.8109,12.9748 54.5,18C 56.1012,18.2734 57.6012,18.7734 59,19.5C 59.1725,23.8711 59.6725,28.2044 60.5,32.5C 66.5115,36.336 73.0115,38.6694 80,39.5C 80.6378,42.9301 79.1378,44.2634 75.5,43.5C 75.5,45.1667 75.5,46.8333 75.5,48.5C 78.5,48.5 81.5,48.5 84.5,48.5C 84.5,49.8333 84.5,51.1667 84.5,52.5C 83.2921,53.2341 81.9587,53.5674 80.5,53.5C 80.5,61.8333 80.5,70.1667 80.5,78.5C 81.8333,78.5 83.1667,78.5 84.5,78.5C 84.5,79.8333 84.5,81.1667 84.5,82.5C 56.1667,82.5 27.8333,82.5 -0.5,82.5C -0.5,81.1667 -0.5,79.8333 -0.5,78.5C 0.833333,78.5 2.16667,78.5 3.5,78.5C 3.5,70.1667 3.5,61.8333 3.5,53.5C 2.04125,53.5674 0.707917,53.2341 -0.5,52.5C -0.5,51.1667 -0.5,49.8333 -0.5,48.5C 2.5,48.5 5.5,48.5 8.5,48.5C 8.5,46.8333 8.5,45.1667 8.5,43.5C 4.86224,44.2634 3.36224,42.9301 4,39.5C 10.8034,38.1895 17.3034,35.8562 23.5,32.5C 24.3275,28.2044 24.8275,23.8711 25,19.5C 26.3988,18.7734 27.8988,18.2734 29.5,18C 30.8762,13.1227 33.8762,9.62273 38.5,7.5C 39.48,4.91355 39.8134,2.24688 39.5,-0.5 Z"/></g>
<g><path style="opacity:1" fill="#f5d299" d="M 49.5,16.5 C 47.4294,17.8086 44.9294,18.4752 42,18.5C 39.0706,18.4752 36.5706,17.8086 34.5,16.5C 39.4479,8.51496 44.4479,8.51496 49.5,16.5 Z"/></g>
<g><path style="opacity:1" fill="#6f5e45" d="M 34.5,16.5 C 36.5706,17.8086 39.0706,18.4752 42,18.5C 44.9294,18.4752 47.4294,17.8086 49.5,16.5C 50.404,17.209 50.7373,18.209 50.5,19.5C 44.8333,19.5 39.1667,19.5 33.5,19.5C 33.2627,18.209 33.596,17.209 34.5,16.5 Z"/></g>
<g><path style="opacity:1" fill="#f2ecec" d="M 28.5,22.5 C 37.5,22.5 46.5,22.5 55.5,22.5C 55.8134,25.2469 55.48,27.9135 54.5,30.5C 50.1198,28.8928 45.9531,26.8928 42,24.5C 37.8033,26.3476 33.6367,28.3476 29.5,30.5C 28.52,27.9135 28.1866,25.2469 28.5,22.5 Z"/></g>
<g><path style="opacity:1" fill="#f2ce97" d="M 48.5,40.5 C 46.8333,40.5 45.1667,40.5 43.5,40.5C 42.5,39.1667 41.5,39.1667 40.5,40.5C 38.8333,40.5 37.1667,40.5 35.5,40.5C 30.3491,39.6733 25.0158,39.1733 19.5,39C 26.7888,35.1064 34.2888,31.6064 42,28.5C 49.5851,31.8067 57.0851,35.3067 64.5,39C 58.9842,39.1733 53.6509,39.6733 48.5,40.5 Z"/></g>
<g><path style="opacity:1" fill="#1f1c19" d="M 43.5,40.5 C 42.5,43.1667 41.5,43.1667 40.5,40.5C 41.5,39.1667 42.5,39.1667 43.5,40.5 Z"/></g>
<g><path style="opacity:1" fill="#f6eeed" d="M 35.5,40.5 C 37.1667,40.5 38.8333,40.5 40.5,40.5C 41.5,43.1667 42.5,43.1667 43.5,40.5C 45.1667,40.5 46.8333,40.5 48.5,40.5C 55.4238,42.4633 62.7572,43.1299 70.5,42.5C 70.5,44.5 70.5,46.5 70.5,48.5C 51.1667,48.5 31.8333,48.5 12.5,48.5C 12.5,46.5 12.5,44.5 12.5,42.5C 20.5729,43.1318 28.2395,42.4651 35.5,40.5 Z"/></g>
<g><path style="opacity:1" fill="#918b8b" d="M 70.5,42.5 C 71.4682,44.6074 71.8016,46.9407 71.5,49.5C 51.6596,49.8304 31.9929,49.4971 12.5,48.5C 31.8333,48.5 51.1667,48.5 70.5,48.5C 70.5,46.5 70.5,44.5 70.5,42.5 Z"/></g>
<g><path style="opacity:1" fill="#aca6a6" d="M 8.5,52.5 C 8.5,61.1667 8.5,69.8333 8.5,78.5C 10.5,78.5 12.5,78.5 14.5,78.5C 12.3926,79.4682 10.0593,79.8016 7.5,79.5C 7.17336,70.3178 7.5067,61.3178 8.5,52.5 Z"/></g>
<g><path style="opacity:1" fill="#fef6f6" d="M 8.5,52.5 C 10.5,52.5 12.5,52.5 14.5,52.5C 14.5,61.1667 14.5,69.8333 14.5,78.5C 12.5,78.5 10.5,78.5 8.5,78.5C 8.5,69.8333 8.5,61.1667 8.5,52.5 Z"/></g>
<g><path style="opacity:1" fill="#ccae7f" d="M 39.5,52.5 C 39.5,61.1667 39.5,69.8333 39.5,78.5C 41.1667,78.5 42.8333,78.5 44.5,78.5C 44.5,69.8333 44.5,61.1667 44.5,52.5C 45.4933,61.3178 45.8266,70.3178 45.5,79.5C 43.1667,79.5 40.8333,79.5 38.5,79.5C 38.1734,70.3178 38.5067,61.3178 39.5,52.5 Z"/></g>
<g><path style="opacity:1" fill="#fef6f6" d="M 75.5,52.5 C 75.5,61.1667 75.5,69.8333 75.5,78.5C 73.5,78.5 71.5,78.5 69.5,78.5C 69.5,69.8333 69.5,61.1667 69.5,52.5C 71.5,52.5 73.5,52.5 75.5,52.5 Z"/></g>
<g><path style="opacity:1" fill="#aca6a6" d="M 75.5,52.5 C 76.4933,61.3178 76.8266,70.3178 76.5,79.5C 73.9407,79.8016 71.6074,79.4682 69.5,78.5C 71.5,78.5 73.5,78.5 75.5,78.5C 75.5,69.8333 75.5,61.1667 75.5,52.5 Z"/></g>
<g><path style="opacity:1" fill="#867153" d="M 18.5,52.5 C 18.5,61.1667 18.5,69.8333 18.5,78.5C 20.5,78.5 22.5,78.5 24.5,78.5C 24.5,69.8333 24.5,61.1667 24.5,52.5C 25.4933,61.3178 25.8266,70.3178 25.5,79.5C 22.8333,79.5 20.1667,79.5 17.5,79.5C 17.1734,70.3178 17.5067,61.3178 18.5,52.5 Z"/></g>
<g><path style="opacity:1" fill="#fed99f" d="M 18.5,52.5 C 20.5,52.5 22.5,52.5 24.5,52.5C 24.5,61.1667 24.5,69.8333 24.5,78.5C 22.5,78.5 20.5,78.5 18.5,78.5C 18.5,69.8333 18.5,61.1667 18.5,52.5 Z"/></g>
<g><path style="opacity:1" fill="#e2d9d9" d="M 28.5,52.5 C 30.8333,52.5 33.1667,52.5 35.5,52.5C 35.5,61.5 35.5,70.5 35.5,79.5C 33.1667,79.5 30.8333,79.5 28.5,79.5C 28.5,70.5 28.5,61.5 28.5,52.5 Z"/></g>
<g><path style="opacity:1" fill="#fff6f6" d="M 29.5,53.5 C 31.1667,53.5 32.8333,53.5 34.5,53.5C 34.5,61.8333 34.5,70.1667 34.5,78.5C 32.8333,78.5 31.1667,78.5 29.5,78.5C 29.5,70.1667 29.5,61.8333 29.5,53.5 Z"/></g>
<g><path style="opacity:1" fill="#fed99e" d="M 39.5,52.5 C 41.1667,52.5 42.8333,52.5 44.5,52.5C 44.5,61.1667 44.5,69.8333 44.5,78.5C 42.8333,78.5 41.1667,78.5 39.5,78.5C 39.5,69.8333 39.5,61.1667 39.5,52.5 Z"/></g>
<g><path style="opacity:1" fill="#e2d9d9" d="M 48.5,52.5 C 50.8333,52.5 53.1667,52.5 55.5,52.5C 55.5,61.5 55.5,70.5 55.5,79.5C 53.1667,79.5 50.8333,79.5 48.5,79.5C 48.5,70.5 48.5,61.5 48.5,52.5 Z"/></g>
<g><path style="opacity:1" fill="#fff6f6" d="M 49.5,53.5 C 51.1667,53.5 52.8333,53.5 54.5,53.5C 54.5,61.8333 54.5,70.1667 54.5,78.5C 52.8333,78.5 51.1667,78.5 49.5,78.5C 49.5,70.1667 49.5,61.8333 49.5,53.5 Z"/></g>
<g><path style="opacity:1" fill="#867153" d="M 59.5,52.5 C 59.5,61.1667 59.5,69.8333 59.5,78.5C 61.5,78.5 63.5,78.5 65.5,78.5C 65.5,69.8333 65.5,61.1667 65.5,52.5C 66.4933,61.3178 66.8266,70.3178 66.5,79.5C 63.8333,79.5 61.1667,79.5 58.5,79.5C 58.1734,70.3178 58.5067,61.3178 59.5,52.5 Z"/></g>
<g><path style="opacity:1" fill="#fed99f" d="M 59.5,52.5 C 61.5,52.5 63.5,52.5 65.5,52.5C 65.5,61.1667 65.5,69.8333 65.5,78.5C 63.5,78.5 61.5,78.5 59.5,78.5C 59.5,69.8333 59.5,61.1667 59.5,52.5 Z"/></g>
</svg>
