<?xml version="1.0" encoding="UTF-8"?>
<!DOCTYPE svg PUBLIC "-//W3C//DTD SVG 1.1//EN" "http://www.w3.org/Graphics/SVG/1.1/DTD/svg11.dtd">
<svg xmlns="http://www.w3.org/2000/svg" version="1.1" width="87px" height="83px" style="shape-rendering:geometricPrecision; text-rendering:geometricPrecision; image-rendering:optimizeQuality; fill-rule:evenodd; clip-rule:evenodd" xmlns:xlink="http://www.w3.org/1999/xlink">
<g><path style="opacity:0.701" fill="#a8b0bc" d="M 76.5,13.5 C 74.4602,11.823 72.4602,10.1563 70.5,8.5C 71.0267,1.05902 73.5267,0.0590182 78,5.5C 78.6667,7.83333 78.6667,10.1667 78,12.5C 77.6174,13.056 77.1174,13.3893 76.5,13.5 Z"/></g>
<g><path style="opacity:1" fill="#a9b1be" d="M 53.5,8.5 C 51.5398,10.1563 49.5398,11.823 47.5,13.5C 44.4732,9.20768 45.1398,5.37434 49.5,2C 50.3317,1.31232 50.9984,1.47899 51.5,2.5C 52.3721,4.4496 53.0388,6.4496 53.5,8.5 Z"/></g>
<g><path style="opacity:0.998" fill="#52575c" d="M 65.5,7.5 C 67.2161,7.62867 68.8828,7.962 70.5,8.5C 72.4602,10.1563 74.4602,11.823 76.5,13.5C 76.5,13.8333 76.5,14.1667 76.5,14.5C 76.2641,17.6085 76.5975,20.6085 77.5,23.5C 77.5,24.5 77.5,25.5 77.5,26.5C 63.0861,26.666 59.0861,20.3326 65.5,7.5 Z"/></g>
<g><path style="opacity:1" fill="#e8f4fa" d="M 65.5,7.5 C 59.0861,20.3326 63.0861,26.666 77.5,26.5C 76.5975,29.3915 76.2641,32.3915 76.5,35.5C 74.3152,33.2384 71.6485,31.7384 68.5,31C 61.7387,29.6972 55.4054,30.5305 49.5,33.5C 47.7501,29.8171 47.0834,25.8171 47.5,21.5C 47.5,19.1667 47.5,16.8333 47.5,14.5C 47.5,14.1667 47.5,13.8333 47.5,13.5C 49.5398,11.823 51.5398,10.1563 53.5,8.5C 57.4517,7.72791 61.4517,7.39458 65.5,7.5 Z"/></g>
<g><path style="opacity:0.999" fill="#c36b60" d="M 76.5,14.5 C 82.9294,14.6539 85.596,17.9873 84.5,24.5C 82.0504,24.702 79.717,24.3686 77.5,23.5C 76.5975,20.6085 76.2641,17.6085 76.5,14.5 Z"/></g>
<g><path style="opacity:1" fill="#c97267" d="M 47.5,14.5 C 47.5,16.8333 47.5,19.1667 47.5,21.5C 45.1972,24.0033 42.5305,24.67 39.5,23.5C 38.7257,17.3609 41.3923,14.3609 47.5,14.5 Z"/></g>
<g><path style="opacity:1" fill="#364353" d="M 51.5,19.5 C 52.8333,19.5 54.1667,19.5 55.5,19.5C 55.5,20.5 55.5,21.5 55.5,22.5C 54.1667,22.5 52.8333,22.5 51.5,22.5C 51.5,21.5 51.5,20.5 51.5,19.5 Z"/></g>
<g><path style="opacity:0.977" fill="#e1e1e2" d="M 47.5,21.5 C 47.0834,25.8171 47.7501,29.8171 49.5,33.5C 47.8998,37.8089 49.2331,40.9756 53.5,43C 59.1569,43.4994 64.8236,43.6661 70.5,43.5C 70.69,47.0318 70.0233,50.3652 68.5,53.5C 66.264,54.3891 64.264,55.7224 62.5,57.5C 61.668,62.492 61.0014,67.492 60.5,72.5C 58.5,72.5 56.5,72.5 54.5,72.5C 53.1807,67.9633 52.3473,63.2967 52,58.5C 51.6667,58.1667 51.3333,57.8333 51,57.5C 48.6178,58.5541 46.1178,59.2208 43.5,59.5C 37.7876,59.687 32.1209,59.3537 26.5,58.5C 25.8333,58.5 25.1667,58.5 24.5,58.5C 23.4797,57.0462 22.313,56.7129 21,57.5C 18.7005,61.8956 17.5339,66.5623 17.5,71.5C 16.209,71.2627 15.209,71.596 14.5,72.5C 13.8333,72.5 13.1667,72.5 12.5,72.5C 10.6774,66.2099 9.01077,59.8765 7.5,53.5C 12.1961,54.1313 14.8628,52.1313 15.5,47.5C 14.8628,42.8687 12.1961,40.8687 7.5,41.5C 7.5,39.8333 7.5,38.1667 7.5,36.5C 8.73753,33.2622 10.4042,30.2622 12.5,27.5C 15.3732,26.1251 18.3732,25.1251 21.5,24.5C 19.366,34.2028 22.866,37.2028 32,33.5C 33.8175,30.5839 33.9842,27.5839 32.5,24.5C 34.717,23.6314 37.0504,23.298 39.5,23.5C 42.5305,24.67 45.1972,24.0033 47.5,21.5 Z"/></g>
<g><path style="opacity:1" fill="#55595d" d="M 21.5,24.5 C 25.1667,24.5 28.8333,24.5 32.5,24.5C 33.9842,27.5839 33.8175,30.5839 32,33.5C 22.866,37.2028 19.366,34.2028 21.5,24.5 Z"/></g>
<g><path style="opacity:1" fill="#c97065" d="M 76.5,35.5 C 76.4119,39.5895 74.4119,42.2562 70.5,43.5C 64.8236,43.6661 59.1569,43.4994 53.5,43C 49.2331,40.9756 47.8998,37.8089 49.5,33.5C 55.4054,30.5305 61.7387,29.6972 68.5,31C 71.6485,31.7384 74.3152,33.2384 76.5,35.5 Z"/></g>
<g><path style="opacity:1" fill="#55595d" d="M 32.5,38.5 C 34.1992,38.3398 35.8659,38.5065 37.5,39C 39.5981,42.1213 42.4314,44.2879 46,45.5C 47.5,52 45,54.5 38.5,53C 36.9632,51.8904 36.2965,50.3904 36.5,48.5C 31.15,49.1368 28.9834,46.8034 30,41.5C 30.6979,40.3094 31.5313,39.3094 32.5,38.5 Z"/></g>
<g><path style="opacity:0.435" fill="#a9b1bd" d="M 12.5,27.5 C 10.4042,30.2622 8.73753,33.2622 7.5,36.5C 6.73209,37.2625 6.23209,38.2625 6,39.5C 5.50034,46.8258 5.33368,54.1591 5.5,61.5C 4.16667,61.1667 2.83333,60.8333 1.5,60.5C 1.33365,52.8261 1.50031,45.1594 2,37.5C 3.74599,32.2524 7.24599,28.9191 12.5,27.5 Z"/></g>
<g><path style="opacity:0.998" fill="#55595d" d="M 7.5,41.5 C 12.1961,40.8687 14.8628,42.8687 15.5,47.5C 14.8628,52.1313 12.1961,54.1313 7.5,53.5C 7.5,49.5 7.5,45.5 7.5,41.5 Z"/></g>
<g><path style="opacity:1" fill="#a9b0bc" d="M 68.5,53.5 C 67.9647,59.9145 66.9647,66.2478 65.5,72.5C 64.1667,72.5 62.8333,72.5 61.5,72.5C 61.1667,72.5 60.8333,72.5 60.5,72.5C 61.0014,67.492 61.668,62.492 62.5,57.5C 64.264,55.7224 66.264,54.3891 68.5,53.5 Z"/></g>
<g><path style="opacity:1" fill="#c66b5f" d="M 26.5,58.5 C 32.1209,59.3537 37.7876,59.687 43.5,59.5C 43.0432,61.7727 41.7099,63.106 39.5,63.5C 38.0413,63.4326 36.7079,63.7659 35.5,64.5C 35.1667,64.5 34.8333,64.5 34.5,64.5C 33.0413,64.5674 31.7079,64.2341 30.5,63.5C 27.7026,63.0334 26.3692,61.3667 26.5,58.5 Z"/></g>
<g><path style="opacity:1" fill="#a9b1bd" d="M 24.5,58.5 C 24.4599,63.1925 24.1266,67.8592 23.5,72.5C 22.1667,72.5 20.8333,72.5 19.5,72.5C 17.8333,72.5 16.1667,72.5 14.5,72.5C 15.209,71.596 16.209,71.2627 17.5,71.5C 17.5339,66.5623 18.7005,61.8956 21,57.5C 22.313,56.7129 23.4797,57.0462 24.5,58.5 Z"/></g>
<g><path style="opacity:0.954" fill="#52575a" d="M 1.5,60.5 C 2.83333,60.8333 4.16667,61.1667 5.5,61.5C 6.45837,61.9528 7.2917,62.6195 8,63.5C 9.656,71.9446 7.656,73.2779 2,67.5C 1.50335,65.1902 1.33669,62.8568 1.5,60.5 Z"/></g>
<g><path style="opacity:0.657" fill="#a8b1be" d="M 30.5,63.5 C 31.7079,64.2341 33.0413,64.5674 34.5,64.5C 34.5,65.8333 34.5,67.1667 34.5,68.5C 33.1667,68.5 31.8333,68.5 30.5,68.5C 30.5,66.8333 30.5,65.1667 30.5,63.5 Z"/></g>
<g><path style="opacity:0.586" fill="#abb1bd" d="M 39.5,63.5 C 39.5,65.1667 39.5,66.8333 39.5,68.5C 38.1667,68.5 36.8333,68.5 35.5,68.5C 35.5,67.1667 35.5,65.8333 35.5,64.5C 36.7079,63.7659 38.0413,63.4326 39.5,63.5 Z"/></g>
<g><path style="opacity:0.987" fill="#243242" d="M 19.5,72.5 C 20.8333,72.5 22.1667,72.5 23.5,72.5C 26.8898,73.9437 28.2232,76.6104 27.5,80.5C 25.5,80.5 23.5,80.5 21.5,80.5C 21.7128,77.5491 21.0461,74.8825 19.5,72.5 Z"/></g>
<g><path style="opacity:0.924" fill="#243141" d="M 61.5,72.5 C 62.8333,72.5 64.1667,72.5 65.5,72.5C 67.0174,72.5106 68.1841,73.1772 69,74.5C 69.4955,76.4727 69.6621,78.4727 69.5,80.5C 67.5,80.5 65.5,80.5 63.5,80.5C 63.7174,77.5794 63.0507,74.9128 61.5,72.5 Z"/></g>
<g><path style="opacity:1" fill="#4a5056" d="M 12.5,72.5 C 13.1667,72.5 13.8333,72.5 14.5,72.5C 16.1667,72.5 17.8333,72.5 19.5,72.5C 21.0461,74.8825 21.7128,77.5491 21.5,80.5C 17.5,80.5 13.5,80.5 9.5,80.5C 9.01812,77.1694 10.0181,74.5027 12.5,72.5 Z"/></g>
<g><path style="opacity:1" fill="#4e5358" d="M 54.5,72.5 C 56.5,72.5 58.5,72.5 60.5,72.5C 60.8333,72.5 61.1667,72.5 61.5,72.5C 63.0507,74.9128 63.7174,77.5794 63.5,80.5C 59.5,80.5 55.5,80.5 51.5,80.5C 51.0181,77.1694 52.0181,74.5027 54.5,72.5 Z"/></g>
</svg>
