<?xml version="1.0" encoding="UTF-8"?>
<!DOCTYPE svg PUBLIC "-//W3C//DTD SVG 1.1//EN" "http://www.w3.org/Graphics/SVG/1.1/DTD/svg11.dtd">
<svg xmlns="http://www.w3.org/2000/svg" version="1.1" width="1219px" height="1227px" style="shape-rendering:geometricPrecision; text-rendering:geometricPrecision; image-rendering:optimizeQuality; fill-rule:evenodd; clip-rule:evenodd" xmlns:xlink="http://www.w3.org/1999/xlink">
<g><path style="opacity:0.647" fill="#eff1f2" d="M 575.5,-0.5 C 597.833,-0.5 620.167,-0.5 642.5,-0.5C 697.63,2.74424 751.297,13.4109 803.5,31.5C 649.702,-16.6886 499.368,-7.85524 352.5,58C 230.829,116.837 137.163,205.337 71.5,323.5C 135.636,203.866 228.97,114.699 351.5,56C 422.706,23.032 497.373,4.19868 575.5,-0.5 Z"/></g>
<g><path style="opacity:1" fill="#546277" d="M 803.5,31.5 C 806.785,31.9281 809.785,32.9281 812.5,34.5C 814.792,36.2671 817.458,37.2671 820.5,37.5C 961.484,91.3168 1068.98,183.983 1143,315.5C 1187.15,397.438 1212.32,484.772 1218.5,577.5C 1218.5,601.167 1218.5,624.833 1218.5,648.5C 1205.62,822.1 1134.28,966.266 1004.5,1081C 927.382,1146.56 839.049,1190.39 739.5,1212.5C 734.169,1212.42 729.169,1213.42 724.5,1215.5C 723.081,1216.45 721.415,1216.78 719.5,1216.5C 715.511,1216.12 711.845,1216.78 708.5,1218.5C 708.167,1218.5 707.833,1218.5 707.5,1218.5C 530.401,1243.15 371.401,1201.32 230.5,1093C 186.716,1057.16 148.049,1016.66 114.5,971.5C 109.217,962.888 103.55,954.554 97.5,946.5C 96.0937,946.027 95.427,945.027 95.5,943.5C 94.6167,940.296 92.9501,937.629 90.5,935.5C 88.9998,931.827 86.9998,928.494 84.5,925.5C 82.7497,924.341 81.7497,922.674 81.5,920.5C 80.9213,917.669 79.588,915.336 77.5,913.5C 76.5903,910.008 74.9236,907.008 72.5,904.5C 70.9925,902.819 69.9925,900.819 69.5,898.5C 66.0078,890.182 62.0078,882.182 57.5,874.5C 23.7614,802.879 4.4281,727.546 -0.5,648.5C -0.5,624.833 -0.5,601.167 -0.5,577.5C 0.461384,575.735 0.794717,573.735 0.5,571.5C 2.03886,565.063 2.70553,558.396 2.5,551.5C 2.52345,545.288 3.19012,539.288 4.5,533.5C 5.97151,529.081 6.63818,524.414 6.5,519.5C 11.6023,482.092 20.6023,445.758 33.5,410.5C 35.8846,407.347 37.2179,403.68 37.5,399.5C 39.0668,393.121 41.4002,387.121 44.5,381.5C 46.685,377.787 48.3517,373.787 49.5,369.5C 51.6074,366.943 52.9408,363.943 53.5,360.5C 58.5369,352.747 62.5369,344.414 65.5,335.5C 67.539,334.089 68.539,332.089 68.5,329.5C 70.539,328.089 71.539,326.089 71.5,323.5C 137.163,205.337 230.829,116.837 352.5,58C 499.368,-7.85524 649.702,-16.6886 803.5,31.5 Z"/></g>
<g><path style="opacity:0.596" fill="#d5d8dd" d="M 812.5,34.5 C 815.542,34.7329 818.208,35.7329 820.5,37.5C 817.458,37.2671 814.792,36.2671 812.5,34.5 Z"/></g>
<g><path style="opacity:1" fill="#526074" d="M 381.5,212.5 C 398.855,211.668 414.855,215.835 429.5,225C 437.333,231.5 444.5,238.667 451,246.5C 484.13,287.658 512.464,331.991 536,379.5C 560.307,435.167 557.307,489.167 527,541.5C 485.725,597.569 430.225,620.736 360.5,611C 283.112,593.906 238.612,546.406 227,468.5C 224.777,443.841 227.777,419.841 236,396.5C 246.529,369.921 259.529,344.588 275,320.5C 295.318,288.334 318.151,258.167 343.5,230C 354.623,220.571 367.29,214.738 381.5,212.5 Z"/></g>
<g><path style="opacity:1" fill="#526074" d="M 864.5,212.5 C 882.486,212.272 899.486,216.105 915.5,224C 928.508,225.201 941.508,226.534 954.5,228C 972.383,232.968 985.216,243.802 993,260.5C 996.518,271.23 1001.52,281.23 1008,290.5C 1017.27,298.44 1027.11,305.607 1037.5,312C 1055.32,329.476 1061.48,350.643 1056,375.5C 1052.91,387.017 1047.24,397.017 1039,405.5C 1036.43,409.095 1034.76,413.095 1034,417.5C 1035.35,435.12 1035.68,452.787 1035,470.5C 1027.25,528.191 997.755,570.358 946.5,597C 943.305,598.695 940.972,601.195 939.5,604.5C 941.222,608.109 943.556,611.276 946.5,614C 975.495,636.669 1004.16,659.669 1032.5,683C 1056.47,704.946 1063.31,731.446 1053,762.5C 1047.86,773.147 1040.36,781.814 1030.5,788.5C 1027.63,791.645 1025.8,795.312 1025,799.5C 1024.54,828.838 1023.87,858.171 1023,887.5C 1021.72,904.355 1016.06,919.355 1006,932.5C 992.49,945.273 976.324,952.106 957.5,953C 900.833,954.993 844.167,954.993 787.5,953C 773.988,951.383 761.321,947.383 749.5,941C 744.598,937.45 740.264,933.284 736.5,928.5C 732.167,921.167 727.833,913.833 723.5,906.5C 721.632,905.087 719.632,903.92 717.5,903C 681.833,902.333 646.167,902.333 610.5,903C 607.107,903.798 603.774,904.798 600.5,906C 578.086,923.035 553.086,934.702 525.5,941C 439.71,957.785 353.71,958.785 267.5,944C 247.082,939.662 227.415,933.328 208.5,925C 176.336,907.524 160.503,880.358 161,843.5C 160.333,816.167 160.333,788.833 161,761.5C 161.532,720.989 180.365,692.822 217.5,677C 232.731,670.941 248.398,666.275 264.5,663C 315.754,653.736 367.421,650.402 419.5,653C 460.168,653.557 500.168,658.89 539.5,669C 560.185,674.536 578.518,684.203 594.5,698C 600.933,705.016 606.267,712.85 610.5,721.5C 612.577,724.374 615.244,726.541 618.5,728C 638.448,729.618 658.448,729.951 678.5,729C 681.973,728.681 684.806,727.181 687,724.5C 690.333,717.167 693.667,709.833 697,702.5C 702.359,694.6 708.525,687.433 715.5,681C 745.045,657.246 774.545,633.413 804,609.5C 805.805,606.789 805.805,604.122 804,601.5C 797.09,595.57 789.256,594.07 780.5,597C 761.57,609.16 741.237,611.827 719.5,605C 709.575,600.733 701.075,594.567 694,586.5C 686.932,574.034 679.599,561.701 672,549.5C 663.287,540.374 653.787,532.041 643.5,524.5C 628.634,510.11 621.801,492.443 623,471.5C 624.414,453.168 632.247,438.335 646.5,427C 655.56,421.607 664.06,415.441 672,408.5C 674,405.833 676,403.167 678,400.5C 683.152,385.542 690.652,371.875 700.5,359.5C 712.526,349.896 726.193,343.729 741.5,341C 747.378,336.79 752.211,331.623 756,325.5C 775.142,294.2 796.475,264.534 820,236.5C 832.399,223.876 847.232,215.876 864.5,212.5 Z"/></g>
<g><path style="opacity:1" fill="#505e72" d="M 871.5,223.5 C 886.711,224.719 901.044,228.885 914.5,236C 928,235.885 941.333,237.219 954.5,240C 958.5,242 962.5,244 966.5,246C 970.333,249.833 974.167,253.667 978,257.5C 984.518,269.375 990.851,281.375 997,293.5C 1004.8,302.141 1013.64,309.474 1023.5,315.5C 1044.22,331.004 1051.05,351.337 1044,376.5C 1037.81,388.24 1031.14,399.573 1024,410.5C 1025.02,429.468 1025.35,448.468 1025,467.5C 1016.6,528.567 984.098,570.733 927.5,594C 925.241,595.715 923.074,597.548 921,599.5C 920.294,601.971 920.627,604.305 922,606.5C 924.833,609.333 927.667,612.167 930.5,615C 960.539,639.011 990.539,663.011 1020.5,687C 1031.46,695.69 1039.29,706.524 1044,719.5C 1049.06,736.358 1046.72,752.024 1037,766.5C 1030.3,772.864 1023.97,779.531 1018,786.5C 1017,789.167 1016,791.833 1015,794.5C 1014.67,819.5 1014.33,844.5 1014,869.5C 1013.76,884.825 1010.76,899.492 1005,913.5C 998.668,924.831 989.501,932.998 977.5,938C 969.683,940.498 961.683,942.165 953.5,943C 926.684,944.096 899.851,944.596 873,944.5C 846.149,944.596 819.316,944.096 792.5,943C 764.588,941.783 745.421,928.283 735,902.5C 730.781,895.623 724.614,892.123 716.5,892C 681.83,891.692 647.164,892.025 612.5,893C 606.226,893.091 600.226,894.425 594.5,897C 584.253,902.907 574.253,909.241 564.5,916C 550.188,923.105 535.188,928.439 519.5,932C 443.866,946.345 367.866,948.345 291.5,938C 263.356,934.516 236.689,926.516 211.5,914C 190.485,901.646 177.652,883.48 173,859.5C 169.688,821.832 169.688,784.165 173,746.5C 177.279,723.743 189.112,706.243 208.5,694C 233.064,680.668 259.397,672.334 287.5,669C 347.706,661.499 408.039,660.499 468.5,666C 486.614,668.356 504.614,671.356 522.5,675C 534.865,678.259 546.865,682.259 558.5,687C 577.249,695.75 591.416,709.25 601,727.5C 604.15,730.65 607.317,733.817 610.5,737C 614.45,738.206 618.45,739.206 622.5,740C 641.833,740.667 661.167,740.667 680.5,740C 686.099,739.359 691.099,737.359 695.5,734C 699.313,725.543 702.98,717.043 706.5,708.5C 709.846,703.15 713.679,698.15 718,693.5C 748.289,668.622 778.789,644.122 809.5,620C 813.625,616.212 817.792,612.379 822,608.5C 823.404,606.606 824.57,604.606 825.5,602.5C 824.191,599.051 821.857,596.551 818.5,595C 809.874,590.188 800.874,586.188 791.5,583C 788.833,582.333 786.167,582.333 783.5,583C 774.427,587.869 765.094,592.203 755.5,596C 732.767,600.206 714.267,593.372 700,575.5C 693.465,563.363 686.132,551.696 678,540.5C 670.176,532.349 661.676,524.849 652.5,518C 626.555,489.68 627.222,462.013 654.5,435C 662.363,429.127 670.197,423.294 678,417.5C 681.008,413.494 684.008,409.494 687,405.5C 691.187,396.394 695.52,387.394 700,378.5C 710.257,364.255 724.09,355.755 741.5,353C 747.106,350.951 751.94,347.784 756,343.5C 777.216,309.722 800.382,277.388 825.5,246.5C 837.664,232.418 852.997,224.752 871.5,223.5 Z"/></g>
<g><path style="opacity:1" fill="#4d5a6d" d="M 380.5,229.5 C 393.721,228.074 406.055,230.574 417.5,237C 425.763,243.351 433.263,250.518 440,258.5C 472.209,298.043 499.543,340.709 522,386.5C 550.329,453.582 538.496,512.415 486.5,563C 439.567,599.744 387.901,607.744 331.5,587C 274.919,560.026 244.919,515.026 241.5,452C 242.117,431.705 246.283,412.205 254,393.5C 278.177,342.898 308.177,295.898 344,252.5C 349.573,246.689 355.573,241.355 362,236.5C 368.006,233.447 374.172,231.114 380.5,229.5 Z"/></g>
<g><path style="opacity:1" fill="#4d5a6d" d="M 864.5,229.5 C 872.547,229.277 880.547,229.777 888.5,231C 897.534,234.676 906.534,238.342 915.5,242C 924.5,242.333 933.5,242.667 942.5,243C 956.12,244.972 966.953,251.472 975,262.5C 981.564,275.963 988.897,288.963 997,301.5C 1005.19,308.352 1013.69,314.852 1022.5,321C 1044.03,340.81 1047.2,363.31 1032,388.5C 1025.26,395.616 1020.59,403.949 1018,413.5C 1029.2,472.348 1013.37,522.182 970.5,563C 962.161,569.5 953.494,575.5 944.5,581C 934.833,585.333 925.167,589.667 915.5,594C 912.637,595.364 910.637,597.53 909.5,600.5C 910.803,602.968 912.303,605.301 914,607.5C 918.874,611.714 923.707,615.88 928.5,620C 960.252,644.579 991.585,669.745 1022.5,695.5C 1049.14,724.581 1047.64,751.915 1018,777.5C 1011.61,786.354 1008.61,796.354 1009,807.5C 1008.67,833.5 1008.33,859.5 1008,885.5C 1003.8,916.37 986.296,933.87 955.5,938C 900.167,938.667 844.833,938.667 789.5,938C 774.424,936.21 761.591,930.043 751,919.5C 746.149,912.464 741.816,905.131 738,897.5C 734.611,892.781 730.111,889.614 724.5,888C 717.83,887.547 711.163,887.047 704.5,886.5C 670.809,887 637.142,887.833 603.5,889C 598.482,889.798 593.816,891.465 589.5,894C 579.058,901.125 568.392,907.792 557.5,914C 537.069,922.805 515.736,928.805 493.5,932C 418.333,942.619 343.333,941.619 268.5,929C 250.151,924.51 232.484,918.343 215.5,910.5C 190.148,895.229 176.981,872.562 176,842.5C 175.333,815.5 175.333,788.5 176,761.5C 177.658,733.007 190.491,711.173 214.5,696C 242.018,683.088 271.018,675.088 301.5,672C 360.161,666.038 418.827,666.038 477.5,672C 500.708,674.694 523.374,679.694 545.5,687C 561.003,692.675 574.503,701.508 586,713.5C 591.401,723.133 597.901,731.967 605.5,740C 607.725,740.561 609.725,741.561 611.5,743C 638.5,746.319 665.5,746.319 692.5,743C 695.927,741.569 698.76,739.402 701,736.5C 704.771,723.821 710.437,712.154 718,701.5C 725.734,693.408 733.9,685.908 742.5,679C 771.326,656.338 799.992,633.505 828.5,610.5C 830.895,608.056 833.062,605.39 835,602.5C 835.18,600.512 835.014,598.512 834.5,596.5C 824.209,592.403 814.209,587.57 804.5,582C 798.469,579.451 792.303,577.284 786,575.5C 778.055,578.404 770.555,582.238 763.5,587C 736.719,597.178 715.552,590.344 700,566.5C 696.667,560.5 693.333,554.5 690,548.5C 681.836,536.67 672.003,526.504 660.5,518C 639.105,499.818 634.271,477.984 646,452.5C 649.596,447.12 653.762,442.286 658.5,438C 668.597,431.563 677.764,424.063 686,415.5C 693.151,401.863 700.818,388.53 709,375.5C 712.809,372.363 716.642,369.197 720.5,366C 731.621,361.913 742.621,357.58 753.5,353C 757.526,349.09 761.192,344.923 764.5,340.5C 782.932,310.601 803.099,281.934 825,254.5C 835.585,241.684 848.752,233.351 864.5,229.5 Z"/></g>
<g><path style="opacity:1" fill="#495567" d="M 381.5,236.5 C 394.606,235.706 406.606,238.873 417.5,246C 425.004,253.171 432.17,260.671 439,268.5C 469.78,306.859 495.78,348.192 517,392.5C 539.079,444.489 533.413,493.156 500,538.5C 455.356,589.216 400.856,603.383 336.5,581C 273.67,551.68 244.836,502.18 250,432.5C 254.141,410.887 261.474,390.553 272,371.5C 294.009,331.484 319.509,293.818 348.5,258.5C 353.637,252.695 359.304,247.528 365.5,243C 370.779,240.523 376.113,238.356 381.5,236.5 Z"/></g>
<g><path style="opacity:1" fill="#495567" d="M 865.5,236.5 C 871.909,236.183 878.243,236.683 884.5,238C 894.692,242.259 905.026,246.259 915.5,250C 925.861,250.274 936.195,250.941 946.5,252C 954.345,254.358 961.012,258.525 966.5,264.5C 974.692,276.248 981.859,288.582 988,301.5C 990.948,304.391 993.782,307.391 996.5,310.5C 1006.38,317.207 1015.55,324.874 1024,333.5C 1035.63,349.724 1036.3,366.391 1026,383.5C 1020.32,390.204 1015.65,397.537 1012,405.5C 1011.09,421.258 1011.92,436.925 1014.5,452.5C 1011.11,513.091 982.109,555.924 927.5,581C 915.689,585.088 904.023,589.421 892.5,594C 888.745,596.549 888.745,599.216 892.5,602C 908.139,612.979 923.472,624.313 938.5,636C 962.587,655.889 986.92,675.556 1011.5,695C 1020.7,703.244 1027.53,713.078 1032,724.5C 1032.67,731.833 1032.67,739.167 1032,746.5C 1026.29,757.896 1018.62,767.896 1009,776.5C 1006.22,781.501 1004.22,786.834 1003,792.5C 1002.93,822.527 1002.27,852.527 1001,882.5C 996.34,914.81 977.507,931.31 944.5,932C 896.833,932.667 849.167,932.667 801.5,932C 782.245,931.934 766.412,924.767 754,910.5C 749.845,903 745.512,895.666 741,888.5C 738.094,885.963 734.927,883.796 731.5,882C 721.422,880.119 711.255,879.285 701,879.5C 667.819,879.976 634.653,880.809 601.5,882C 598.167,883 594.833,884 591.5,885C 578.833,892.667 566.167,900.333 553.5,908C 525.237,919.065 495.904,926.065 465.5,929C 414.837,933.629 364.171,933.629 313.5,929C 285.697,926.508 258.697,920.508 232.5,911C 213.647,903.814 199.48,891.314 190,873.5C 187.366,867.044 185.366,860.377 184,853.5C 182.017,819.498 182.017,785.498 184,751.5C 187.014,733.619 195.514,719.119 209.5,708C 224.207,698.306 240.207,691.306 257.5,687C 315.892,674.952 374.892,670.952 434.5,675C 463.84,676.724 492.84,680.724 521.5,687C 542.031,691.825 560.364,700.825 576.5,714C 584.087,723.084 591.087,732.584 597.5,742.5C 604.472,748.843 612.805,752.01 622.5,752C 645.529,752.912 668.529,752.579 691.5,751C 698.477,750.929 703.977,748.096 708,742.5C 711.248,729.181 716.581,716.848 724,705.5C 728.167,701.333 732.333,697.167 736.5,693C 774.89,662.16 813.557,631.826 852.5,602C 856.5,599.333 856.5,596.667 852.5,594C 830.996,586.384 809.996,577.717 789.5,568C 784.637,567.191 779.97,567.858 775.5,570C 749.692,591.216 726.525,588.716 706,562.5C 700.085,551.666 693.418,541.333 686,531.5C 676.588,522.749 667.255,514.082 658,505.5C 642.497,483.367 644.33,462.867 663.5,444C 676.274,435.892 687.108,425.725 696,413.5C 700.862,402.112 707.029,391.446 714.5,381.5C 723.842,372.829 734.842,367.329 747.5,365C 754.343,362.169 760.177,358.003 765,352.5C 784.225,322.296 804.558,292.963 826,264.5C 831.6,257.832 837.767,251.666 844.5,246C 851.065,241.715 858.065,238.548 865.5,236.5 Z"/></g>
<g><path style="opacity:1" fill="#fcfcfc" d="M 882.5,251.5 C 894.522,265.524 906.189,279.857 917.5,294.5C 920.744,287.198 922.911,279.532 924,271.5C 925.343,268.138 927.176,265.138 929.5,262.5C 942.4,257.948 950.4,262.281 953.5,275.5C 958.769,309.612 978.103,331.446 1011.5,341C 1019,348.084 1019.33,355.584 1012.5,363.5C 999.776,369.721 988.276,377.721 978,387.5C 977.333,389.833 977.333,392.167 978,394.5C 991.48,421.705 994.147,450.038 986,479.5C 968.923,526.961 935.423,554.461 885.5,562C 856.754,565.162 830.421,558.829 806.5,543C 795.637,533.966 785.304,524.466 775.5,514.5C 773.617,514.876 772.117,515.876 771,517.5C 763.22,529.155 757.553,541.822 754,555.5C 748.488,562.796 741.654,564.296 733.5,560C 731.641,558.442 730.141,556.609 729,554.5C 720.661,520.995 700.828,496.995 669.5,482.5C 662.242,476.807 660.742,469.807 665,461.5C 667.08,459.877 669.246,458.377 671.5,457C 706.328,445.87 725.328,422.037 728.5,385.5C 729.974,384.564 730.974,383.23 731.5,381.5C 735.351,378.839 739.684,377.839 744.5,378.5C 747.681,378.888 750.348,380.222 752.5,382.5C 753.504,383.683 754.338,385.016 755,386.5C 757.001,393.862 759.001,401.196 761,408.5C 770.438,386.289 781.438,364.955 794,344.5C 813.836,314.171 835.002,284.837 857.5,256.5C 861.05,252.786 865.05,249.619 869.5,247C 874.616,246.224 878.95,247.724 882.5,251.5 Z"/></g>
<g><path style="opacity:1" fill="#434e5e" d="M 384.5,242.5 C 396.975,242.415 407.975,246.248 417.5,254C 425.072,260.901 431.905,268.401 438,276.5C 466.744,312.781 491.077,351.781 511,393.5C 535.812,453.1 525.645,505.6 480.5,551C 437.775,586.671 390.108,594.671 337.5,575C 284.993,551.044 257.327,510.044 254.5,452C 255.087,428.911 260.587,407.078 271,386.5C 295.118,339.373 324.451,295.706 359,255.5C 366.459,248.855 374.959,244.521 384.5,242.5 Z"/></g>
<g><path style="opacity:1" fill="#fbfbfb" d="M 403.5,255.5 C 418.45,275.623 433.617,295.623 449,315.5C 467.594,342.021 483.594,370.021 497,399.5C 499.686,407.887 502.686,416.221 506,424.5C 507.231,433.792 507.731,443.126 507.5,452.5C 499.394,511.437 466.394,547.604 408.5,561C 347.739,566.798 304.405,542.298 278.5,487.5C 275.505,476.866 273.172,466.2 271.5,455.5C 271.399,445.148 271.733,434.815 272.5,424.5C 276.322,413.912 280.155,403.245 284,392.5C 297.827,364.31 313.827,337.31 332,311.5C 345.509,293.803 359.009,276.137 372.5,258.5C 376.469,252.36 381.969,248.36 389,246.5C 391.732,246.615 394.232,247.448 396.5,249C 398.703,251.372 401.037,253.539 403.5,255.5 Z"/></g>
<g><path style="opacity:1" fill="#3e4655" d="M 372.5,258.5 C 359.009,276.137 345.509,293.803 332,311.5C 313.827,337.31 297.827,364.31 284,392.5C 280.155,403.245 276.322,413.912 272.5,424.5C 270.993,430.427 270.326,436.594 270.5,443C 270.501,447.347 270.834,451.514 271.5,455.5C 273.172,466.2 275.505,476.866 278.5,487.5C 277.883,487.389 277.383,487.056 277,486.5C 276.262,490.261 276.595,493.928 278,497.5C 300.543,544.544 338.043,569.21 390.5,571.5C 446.818,568.256 484.984,540.256 505,487.5C 510.131,471.123 511.464,454.456 509,437.5C 508.826,442.684 508.326,447.684 507.5,452.5C 507.731,443.126 507.231,433.792 506,424.5C 502.686,416.221 499.686,407.887 497,399.5C 483.594,370.021 467.594,342.021 449,315.5C 433.617,295.623 418.45,275.623 403.5,255.5C 403.917,254.876 404.584,254.543 405.5,254.5C 415.058,260.222 423.225,267.555 430,276.5C 449.228,301.067 466.895,326.733 483,353.5C 496.945,376.055 507.611,400.055 515,425.5C 524.359,485.268 503.526,531.102 452.5,563C 448.033,562.61 444.699,564.276 442.5,568C 383.728,589.794 332.894,577.96 290,532.5C 260.565,494.726 253.565,453.059 269,407.5C 293.079,353.49 324.579,304.324 363.5,260C 365.881,258.234 368.548,257.068 371.5,256.5C 372.298,256.957 372.631,257.624 372.5,258.5 Z"/></g>
<g><path style="opacity:1" fill="#383e4a" d="M 435.5,521.5 C 434.448,521.649 433.448,521.483 432.5,521C 451.827,507.982 464.66,490.149 471,467.5C 473.464,449.083 470.797,431.416 463,414.5C 451.656,385.143 436.656,357.81 418,332.5C 399.869,308.406 381.202,307.739 362,330.5C 338.769,362.629 321.102,397.629 309,435.5C 303.985,458.797 308.651,479.797 323,498.5C 326.824,502.793 330.657,507.126 334.5,511.5C 335.729,512.281 337.062,512.781 338.5,513C 341.659,517.58 345.659,521.247 350.5,524C 349.906,524.464 349.239,524.631 348.5,524.5C 333.717,517.223 321.884,506.556 313,492.5C 296.842,465.039 295.175,436.706 308,407.5C 329.181,365.62 354.514,326.287 384,289.5C 387.985,284.139 391.651,284.472 395,290.5C 413.75,315.676 431.75,341.342 449,367.5C 457.809,382.785 465.809,398.452 473,414.5C 485.211,453.751 476.044,487.251 445.5,515C 442.309,517.426 438.975,519.593 435.5,521.5 Z"/></g>
<g><path style="opacity:1" fill="#39414f" d="M 435.5,521.5 C 413.948,533.794 390.948,537.294 366.5,532C 360.138,530.093 354.138,527.593 348.5,524.5C 349.239,524.631 349.906,524.464 350.5,524C 345.659,521.247 341.659,517.58 338.5,513C 337.062,512.781 335.729,512.281 334.5,511.5C 330.657,507.126 326.824,502.793 323,498.5C 308.651,479.797 303.985,458.797 309,435.5C 321.102,397.629 338.769,362.629 362,330.5C 381.202,307.739 399.869,308.406 418,332.5C 436.656,357.81 451.656,385.143 463,414.5C 470.797,431.416 473.464,449.083 471,467.5C 464.66,490.149 451.827,507.982 432.5,521C 433.448,521.483 434.448,521.649 435.5,521.5 Z"/></g>
<g><path style="opacity:0.62" fill="#e1e4e7" d="M 71.5,323.5 C 71.539,326.089 70.539,328.089 68.5,329.5C 68.9925,327.181 69.9925,325.181 71.5,323.5 Z"/></g>
<g><path style="opacity:0.651" fill="#d9dce1" d="M 68.5,329.5 C 68.539,332.089 67.539,334.089 65.5,335.5C 65.9925,333.181 66.9925,331.181 68.5,329.5 Z"/></g>
<g><path style="opacity:0.533" fill="#d7dbdf" d="M 65.5,335.5 C 62.5369,344.414 58.5369,352.747 53.5,360.5C 55.371,355.085 57.5376,349.752 60,344.5C 61.3571,341.102 63.1904,338.102 65.5,335.5 Z"/></g>
<g><path style="opacity:0.506" fill="#d2d6db" d="M 53.5,360.5 C 52.9408,363.943 51.6074,366.943 49.5,369.5C 50.0421,366.088 51.3754,363.088 53.5,360.5 Z"/></g>
<g><path style="opacity:0.282" fill="#e5e7ea" d="M 49.5,369.5 C 48.3517,373.787 46.685,377.787 44.5,381.5C 45.0966,376.983 46.7633,372.983 49.5,369.5 Z"/></g>
<g><path style="opacity:1" fill="#3d4554" d="M 386.5,319.5 C 393.758,319.8 400.091,322.3 405.5,327C 420.543,343.539 432.543,362.039 441.5,382.5C 442.242,383.287 443.075,383.953 444,384.5C 450.497,404.133 457.497,423.466 465,442.5C 467.443,460.647 463.276,476.98 452.5,491.5C 441.845,505.159 428.845,515.992 413.5,524C 397.167,528.667 380.833,528.667 364.5,524C 343.889,512.056 328.056,495.556 317,474.5C 312.367,460.167 312.367,445.834 317,431.5C 323.702,416.087 329.869,400.421 335.5,384.5C 343.124,370.378 350.957,356.378 359,342.5C 363.49,337.342 367.99,332.176 372.5,327C 376.933,323.82 381.6,321.32 386.5,319.5 Z"/></g>
<g><path style="opacity:1" fill="#465163" d="M 385.5,327.5 C 393.585,327.415 400.252,330.415 405.5,336.5C 415.547,348.707 423.713,362.04 430,376.5C 432.482,381.418 431.982,385.918 428.5,390C 427,390.5 425.5,391 424,391.5C 412.361,389.616 400.695,387.949 389,386.5C 377.614,387.777 366.281,389.444 355,391.5C 350.489,390.989 347.989,388.489 347.5,384C 352.204,366.089 360.704,350.256 373,336.5C 376.811,332.832 380.978,329.832 385.5,327.5 Z"/></g>
<g><path style="opacity:1" fill="#4e5b6e" d="M 384.5,341.5 C 391.77,340.389 397.603,342.723 402,348.5C 407.11,354.72 410.61,361.72 412.5,369.5C 411.9,373.476 409.567,375.643 405.5,376C 394.5,376.667 383.5,376.667 372.5,376C 366.78,374.764 364.947,371.264 367,365.5C 370.192,355.4 376.025,347.4 384.5,341.5 Z"/></g>
<g><path style="opacity:1" fill="#fcfcfc" d="M 436.5,415.5 C 432.521,420.146 428.188,424.479 423.5,428.5C 428.132,429.328 432.798,429.828 437.5,430C 439.286,430.785 440.786,431.951 442,433.5C 442.222,440.841 441.889,448.174 441,455.5C 440.5,456 440,456.5 439.5,457C 434.511,457.499 429.511,457.666 424.5,457.5C 427.345,463.187 431.511,467.854 437,471.5C 437.808,473.579 437.641,475.579 436.5,477.5C 431.021,481.145 426.354,485.645 422.5,491C 420.029,491.706 417.695,491.373 415.5,490C 411.623,486.292 407.957,482.458 404.5,478.5C 403.671,483.467 403.171,488.467 403,493.5C 400.786,496.075 397.953,497.408 394.5,497.5C 388.853,496.811 383.186,496.311 377.5,496C 376.874,495.25 376.374,494.416 376,493.5C 375.667,488.833 375.333,484.167 375,479.5C 374.586,479.043 374.086,478.709 373.5,478.5C 369.71,482.792 365.71,486.958 361.5,491C 359.956,492.187 358.289,492.52 356.5,492C 352.473,486.395 347.64,481.561 342,477.5C 340.925,473.933 341.758,470.933 344.5,468.5C 347.833,465.5 351.167,462.5 354.5,459.5C 353.624,458.749 352.624,458.249 351.5,458C 347.167,457.667 342.833,457.333 338.5,457C 337.789,455.745 336.956,454.579 336,453.5C 335.169,446.476 335.336,439.476 336.5,432.5C 337.308,432.192 337.975,431.692 338.5,431C 343.5,430.667 348.5,430.333 353.5,430C 353.957,429.586 354.291,429.086 354.5,428.5C 349.506,424.173 344.839,419.506 340.5,414.5C 340.238,413.022 340.571,411.689 341.5,410.5C 347.025,407.142 351.358,402.642 354.5,397C 357.303,396.245 359.97,396.578 362.5,398C 366.712,400.711 370.046,404.211 372.5,408.5C 373.209,409.404 374.209,409.737 375.5,409.5C 375.5,404.5 375.5,399.5 375.5,394.5C 376.29,393.206 377.29,392.039 378.5,391C 385.94,390.072 393.274,390.406 400.5,392C 401.333,392.833 402.167,393.667 403,394.5C 403.171,399.533 403.671,404.533 404.5,409.5C 408.651,404.848 412.985,400.348 417.5,396C 418.833,395.333 420.167,395.333 421.5,396C 425.378,401.545 430.211,406.045 436,409.5C 436.495,411.473 436.662,413.473 436.5,415.5 Z"/></g>
<g><path style="opacity:1" fill="#a2a4aa" d="M 375.5,394.5 C 375.5,399.5 375.5,404.5 375.5,409.5C 374.209,409.737 373.209,409.404 372.5,408.5C 374.138,404.087 375.138,399.421 375.5,394.5 Z"/></g>
<g><path style="opacity:1" fill="#b8bdc6" d="M 37.5,399.5 C 37.2179,403.68 35.8846,407.347 33.5,410.5C 34.0653,406.463 35.3987,402.797 37.5,399.5 Z"/></g>
<g><path style="opacity:1" fill="#39404c" d="M 340.5,414.5 C 344.839,419.506 349.506,424.173 354.5,428.5C 354.291,429.086 353.957,429.586 353.5,430C 348.5,430.333 343.5,430.667 338.5,431C 337.975,431.692 337.308,432.192 336.5,432.5C 335.336,439.476 335.169,446.476 336,453.5C 336.956,454.579 337.789,455.745 338.5,457C 342.833,457.333 347.167,457.667 351.5,458C 352.624,458.249 353.624,458.749 354.5,459.5C 351.167,462.5 347.833,465.5 344.5,468.5C 341.758,470.933 340.925,473.933 342,477.5C 347.64,481.561 352.473,486.395 356.5,492C 358.289,492.52 359.956,492.187 361.5,491C 365.71,486.958 369.71,482.792 373.5,478.5C 374.086,478.709 374.586,479.043 375,479.5C 375.333,484.167 375.667,488.833 376,493.5C 376.374,494.416 376.874,495.25 377.5,496C 383.186,496.311 388.853,496.811 394.5,497.5C 397.953,497.408 400.786,496.075 403,493.5C 403.171,488.467 403.671,483.467 404.5,478.5C 407.957,482.458 411.623,486.292 415.5,490C 417.695,491.373 420.029,491.706 422.5,491C 426.354,485.645 431.021,481.145 436.5,477.5C 437.641,475.579 437.808,473.579 437,471.5C 431.511,467.854 427.345,463.187 424.5,457.5C 429.511,457.666 434.511,457.499 439.5,457C 440,456.5 440.5,456 441,455.5C 441.889,448.174 442.222,440.841 442,433.5C 440.786,431.951 439.286,430.785 437.5,430C 432.798,429.828 428.132,429.328 423.5,428.5C 428.188,424.479 432.521,420.146 436.5,415.5C 437.315,414.571 438.148,413.571 439,412.5C 444.9,419.723 448.233,428.057 449,437.5C 452.871,490.337 428.371,514.17 375.5,509C 364.83,507.305 355.163,503.305 346.5,497C 334.618,483.195 328.951,467.029 329.5,448.5C 329.249,438.42 331.082,428.754 335,419.5C 336.076,416.921 337.909,415.254 340.5,414.5 Z"/></g>
<g><path style="opacity:1" fill="#8f929a" d="M 272.5,424.5 C 271.733,434.815 271.399,445.148 271.5,455.5C 270.834,451.514 270.501,447.347 270.5,443C 270.326,436.594 270.993,430.427 272.5,424.5 Z"/></g>
<g><path style="opacity:1" fill="#3a414d" d="M 278.5,487.5 C 304.405,542.298 347.739,566.798 408.5,561C 466.394,547.604 499.394,511.437 507.5,452.5C 508.326,447.684 508.826,442.684 509,437.5C 511.464,454.456 510.131,471.123 505,487.5C 484.984,540.256 446.818,568.256 390.5,571.5C 338.043,569.21 300.543,544.544 278,497.5C 276.595,493.928 276.262,490.261 277,486.5C 277.383,487.056 277.883,487.389 278.5,487.5 Z"/></g>
<g><path style="opacity:0.961" fill="#a5abb4" d="M 6.5,519.5 C 6.63818,524.414 5.97151,529.081 4.5,533.5C 4.53188,528.609 5.19854,523.943 6.5,519.5 Z"/></g>
<g><path style="opacity:1" fill="#455061" d="M 731.5,381.5 C 730.974,383.23 729.974,384.564 728.5,385.5C 728.44,384.957 728.107,384.624 727.5,384.5C 724.156,387.345 720.989,390.345 718,393.5C 711.409,406.361 704.075,418.695 696,430.5C 685.854,438.921 675.854,447.587 666,456.5C 656.836,468.994 656.169,481.994 664,495.5C 673.984,506.651 684.484,517.318 695.5,527.5C 701.682,535.873 707.348,544.539 712.5,553.5C 723.793,571.32 739.127,576.153 758.5,568C 766.187,561.929 774.687,557.429 784,554.5C 787.862,555.453 791.695,556.62 795.5,558C 838.134,585.219 882.801,588.886 929.5,569C 976.822,544.517 1001.49,505.684 1003.5,452.5C 1002.66,437.469 1001.83,422.469 1001,407.5C 1001.8,402.519 1003.46,397.852 1006,393.5C 1011.49,386.681 1016.15,379.348 1020,371.5C 1023.53,359.997 1021.86,349.33 1015,339.5C 1009.86,334.869 1005.36,329.869 1001.5,324.5C 993.386,318.597 986.386,311.597 980.5,303.5C 979.167,302.833 977.833,302.167 976.5,301.5C 971.756,291.673 966.256,282.339 960,273.5C 957.561,270.941 954.895,268.608 952,266.5C 951.835,268.678 952.668,270.511 954.5,272C 953.663,273.011 953.33,274.178 953.5,275.5C 950.4,262.281 942.4,257.948 929.5,262.5C 922.63,261.792 915.63,260.958 908.5,260C 900.157,256.059 891.824,252.225 883.5,248.5C 882.833,248.667 882.167,248.833 881.5,249C 882.252,249.671 882.586,250.504 882.5,251.5C 878.95,247.724 874.616,246.224 869.5,247C 865.05,249.619 861.05,252.786 857.5,256.5C 857.53,255.503 857.03,254.836 856,254.5C 846.725,260.441 838.725,267.774 832,276.5C 811.296,303.889 791.963,332.223 774,361.5C 768.824,368.17 762.324,373.17 754.5,376.5C 753.5,377.5 752.5,378.5 751.5,379.5C 752.127,380.417 752.461,381.417 752.5,382.5C 750.348,380.222 747.681,378.888 744.5,378.5C 742.369,377.686 740.036,377.186 737.5,377C 746.007,375.043 754.007,371.877 761.5,367.5C 775.444,347.656 788.944,327.323 802,306.5C 811.544,292.709 821.544,279.375 832,266.5C 852.791,240.174 877.291,236.007 905.5,254C 908.893,254.798 912.226,255.798 915.5,257C 924.5,257.333 933.5,257.667 942.5,258C 952.302,260.309 960.135,265.475 966,273.5C 972.075,286.576 979.408,298.91 988,310.5C 999.188,319.116 1009.85,328.45 1020,338.5C 1028.63,352.806 1028.63,367.139 1020,381.5C 1014.12,388.389 1009.46,396.055 1006,404.5C 1005.75,407.89 1005.25,411.223 1004.5,414.5C 1016.69,471.37 1001.02,518.703 957.5,556.5C 913.91,589.308 866.91,595.141 816.5,574C 810.317,571.045 804.317,567.712 798.5,564C 794.046,561.937 789.379,560.77 784.5,560.5C 782.5,560.667 780.5,560.833 778.5,561C 770.48,565.699 762.48,570.366 754.5,575C 738.139,579.867 724.639,575.7 714,562.5C 707.987,553.158 701.987,543.825 696,534.5C 685.94,523.586 675.44,513.252 664.5,503.5C 653.341,489.664 651.507,474.664 659,458.5C 663.133,453.366 667.633,448.532 672.5,444C 679.936,439.229 686.769,433.729 693,427.5C 701.414,414.343 709.581,401.01 717.5,387.5C 719.078,386.702 720.744,386.202 722.5,386C 725.002,382.745 728.002,381.245 731.5,381.5 Z"/></g>
<g><path style="opacity:1" fill="#39404d" d="M 860.5,360.5 C 868.969,366.239 877.636,371.739 886.5,377C 906.662,393.483 920.162,414.316 927,439.5C 930.33,443.248 934.497,444.915 939.5,444.5C 939.369,445.239 939.536,445.906 940,446.5C 949.384,451.922 955.384,459.922 958,470.5C 958.278,469.584 958.778,468.918 959.5,468.5C 943.416,514.697 910.75,536.53 861.5,534C 837.876,530.605 818.376,519.771 803,501.5C 800.861,499.194 799.361,496.527 798.5,493.5C 798.529,491.971 799.196,490.804 800.5,490C 805.527,487.155 810.527,484.321 815.5,481.5C 817.394,480.952 819.06,479.952 820.5,478.5C 820.833,479 821.167,479.5 821.5,480C 817.974,499.131 824.307,513.798 840.5,524C 875.303,537.096 906.136,530.596 933,504.5C 939.148,497.207 943.481,488.874 946,479.5C 947.307,470.422 944.807,462.588 938.5,456C 932.9,451.541 927.233,447.374 921.5,443.5C 912.895,431.672 904.728,419.338 897,406.5C 887.69,396.858 878.024,387.525 868,378.5C 865.187,372.875 862.354,367.208 859.5,361.5C 859.624,360.893 859.957,360.56 860.5,360.5 Z"/></g>
<g><path style="opacity:1" fill="#434e5e" d="M 820.5,475.5 C 822.509,466.525 819.509,460.191 811.5,456.5C 812.552,456.649 813.552,456.483 814.5,456C 811.648,453.479 810.148,450.313 810,446.5C 807.965,443.755 806.299,440.755 805,437.5C 803.681,428.201 804.681,419.201 808,410.5C 814.597,394.355 823.764,379.855 835.5,367C 840.709,361.973 846.376,361.307 852.5,365C 864.575,381.605 878.741,396.105 895,408.5C 899.073,413.322 902.073,418.655 904,424.5C 906.032,427.854 908.032,431.187 910,434.5C 914.47,437.049 917.47,440.715 919,445.5C 925.308,451.138 931.641,456.805 938,462.5C 942.053,468.373 943.053,474.706 941,481.5C 935.513,497.512 925.013,509.512 909.5,517.5C 888.377,528.006 866.711,529.173 844.5,521C 835.367,516.766 829.034,509.932 825.5,500.5C 824.071,492.57 823.238,484.57 823,476.5C 822.658,474.381 821.825,474.047 820.5,475.5 Z"/></g>
<g><path style="opacity:1" fill="#4c586b" d="M 841.5,374.5 C 845.681,374.424 849.348,375.758 852.5,378.5C 863.321,388.635 874.155,398.635 885,408.5C 894.081,420.329 902.415,432.663 910,445.5C 916.446,451.957 922.946,458.29 929.5,464.5C 934.638,472.978 934.804,481.645 930,490.5C 908.345,517.825 880.845,525.992 847.5,515C 837.949,510.067 832.783,502.234 832,491.5C 833.077,479.065 830.743,467.399 825,456.5C 817.642,448.353 812.808,439.02 810.5,428.5C 812.023,417.792 815.523,407.792 821,398.5C 824,393.833 827,389.167 830,384.5C 833.435,380.555 837.268,377.222 841.5,374.5 Z"/></g>
<g><path style="opacity:1" fill="#373f4b" d="M 1012.5,363.5 C 1013.65,363.791 1014.32,364.624 1014.5,366C 1011.75,375.015 1007.08,382.848 1000.5,389.5C 998.632,394.732 996.632,399.899 994.5,405C 995.434,419.89 996.101,435.056 996.5,450.5C 997.689,482.586 987.356,510.586 965.5,534.5C 964.15,535.95 962.484,536.617 960.5,536.5C 960.579,537.93 960.246,539.264 959.5,540.5C 924.191,571.808 883.857,581.975 838.5,571C 822.236,564.816 806.736,557.316 792,548.5C 787.308,548.501 782.475,548.668 777.5,549C 769.001,552.836 761.001,557.503 753.5,563C 744.047,566.496 735.381,565.662 727.5,560.5C 725.151,557.983 722.651,555.65 720,553.5C 714,544.167 708,534.833 702,525.5C 693.233,516.396 684.233,507.73 675,499.5C 673.333,497.167 671.667,494.833 670,492.5C 669.67,489.511 668.836,486.678 667.5,484C 667.836,482.97 668.503,482.47 669.5,482.5C 700.828,496.995 720.661,520.995 729,554.5C 730.141,556.609 731.641,558.442 733.5,560C 741.654,564.296 748.488,562.796 754,555.5C 757.553,541.822 763.22,529.155 771,517.5C 772.117,515.876 773.617,514.876 775.5,514.5C 785.304,524.466 795.637,533.966 806.5,543C 830.421,558.829 856.754,565.162 885.5,562C 935.423,554.461 968.923,526.961 986,479.5C 994.147,450.038 991.48,421.705 978,394.5C 977.333,392.167 977.333,389.833 978,387.5C 988.276,377.721 999.776,369.721 1012.5,363.5 Z"/></g>
<g><path style="opacity:1" fill="#3e4756" d="M 859.5,349.5 C 859.423,353.215 859.756,356.881 860.5,360.5C 859.957,360.56 859.624,360.893 859.5,361.5C 862.354,367.208 865.187,372.875 868,378.5C 878.024,387.525 887.69,396.858 897,406.5C 904.728,419.338 912.895,431.672 921.5,443.5C 927.233,447.374 932.9,451.541 938.5,456C 944.807,462.588 947.307,470.422 946,479.5C 943.481,488.874 939.148,497.207 933,504.5C 906.136,530.596 875.303,537.096 840.5,524C 824.307,513.798 817.974,499.131 821.5,480C 821.167,479.5 820.833,479 820.5,478.5C 819.06,479.952 817.394,480.952 815.5,481.5C 817.196,479.475 818.863,477.475 820.5,475.5C 821.825,474.047 822.658,474.381 823,476.5C 823.238,484.57 824.071,492.57 825.5,500.5C 829.034,509.932 835.367,516.766 844.5,521C 866.711,529.173 888.377,528.006 909.5,517.5C 925.013,509.512 935.513,497.512 941,481.5C 943.053,474.706 942.053,468.373 938,462.5C 931.641,456.805 925.308,451.138 919,445.5C 917.47,440.715 914.47,437.049 910,434.5C 908.032,431.187 906.032,427.854 904,424.5C 902.073,418.655 899.073,413.322 895,408.5C 878.741,396.105 864.575,381.605 852.5,365C 846.376,361.307 840.709,361.973 835.5,367C 823.764,379.855 814.597,394.355 808,410.5C 804.681,419.201 803.681,428.201 805,437.5C 806.299,440.755 807.965,443.755 810,446.5C 810.148,450.313 811.648,453.479 814.5,456C 813.552,456.483 812.552,456.649 811.5,456.5C 809.597,456.204 807.93,455.537 806.5,454.5C 807.239,454.631 807.906,454.464 808.5,454C 806.069,449.535 803.736,445.035 801.5,440.5C 798.717,430.229 799.551,420.229 804,410.5C 808.224,400.385 813.224,390.718 819,381.5C 819.49,380.207 819.657,378.873 819.5,377.5C 820.675,377.719 821.675,377.386 822.5,376.5C 828.239,363.927 837.239,354.427 849.5,348C 851.167,347.333 852.833,347.333 854.5,348C 855.522,350.545 856.688,353.045 858,355.5C 858.191,353.292 858.691,351.292 859.5,349.5 Z"/></g>
<g><path style="opacity:1" fill="#313843" d="M 936.5,321.5 C 937.552,321.351 938.552,321.517 939.5,322C 948.493,334.324 958.826,345.324 970.5,355C 964.066,361.434 957.566,367.934 951,374.5C 947.052,380.092 942.886,385.426 938.5,390.5C 936.272,389.781 934.439,388.448 933,386.5C 930.829,382.156 928.163,378.156 925,374.5C 918.434,367.934 911.934,361.434 905.5,355C 912.27,348.903 919.103,342.737 926,336.5C 929.72,331.62 933.22,326.62 936.5,321.5 Z"/></g>
<g><path style="opacity:1" fill="#353c48" d="M 859.5,349.5 C 858.691,351.292 858.191,353.292 858,355.5C 856.688,353.045 855.522,350.545 854.5,348C 852.833,347.333 851.167,347.333 849.5,348C 837.239,354.427 828.239,363.927 822.5,376.5C 821.675,377.386 820.675,377.719 819.5,377.5C 819.657,378.873 819.49,380.207 819,381.5C 813.224,390.718 808.224,400.385 804,410.5C 799.551,420.229 798.717,430.229 801.5,440.5C 803.736,445.035 806.069,449.535 808.5,454C 807.906,454.464 807.239,454.631 806.5,454.5C 797.227,453.117 789.727,448.784 784,441.5C 783.107,435.328 783.773,429.328 786,423.5C 794.204,401.759 804.537,381.093 817,361.5C 833.361,335.444 851.194,310.444 870.5,286.5C 873.245,285.025 875.412,285.691 877,288.5C 884.759,299.031 892.259,309.698 899.5,320.5C 899.124,322.383 898.124,323.883 896.5,325C 886.66,331.92 875.993,337.254 864.5,341C 861.288,343.019 859.622,345.853 859.5,349.5 Z"/></g>
<g><path style="opacity:1" fill="#3c4451" d="M 857.5,256.5 C 835.002,284.837 813.836,314.171 794,344.5C 781.438,364.955 770.438,386.289 761,408.5C 759.001,401.196 757.001,393.862 755,386.5C 754.338,385.016 753.504,383.683 752.5,382.5C 752.461,381.417 752.127,380.417 751.5,379.5C 752.5,378.5 753.5,377.5 754.5,376.5C 762.324,373.17 768.824,368.17 774,361.5C 791.963,332.223 811.296,303.889 832,276.5C 838.725,267.774 846.725,260.441 856,254.5C 857.03,254.836 857.53,255.503 857.5,256.5 Z"/></g>
<g><path style="opacity:1" fill="#3f4857" d="M 728.5,385.5 C 725.328,422.037 706.328,445.87 671.5,457C 669.246,458.377 667.08,459.877 665,461.5C 660.742,469.807 662.242,476.807 669.5,482.5C 668.503,482.47 667.836,482.97 667.5,484C 668.836,486.678 669.67,489.511 670,492.5C 671.667,494.833 673.333,497.167 675,499.5C 684.233,507.73 693.233,516.396 702,525.5C 708,534.833 714,544.167 720,553.5C 722.651,555.65 725.151,557.983 727.5,560.5C 735.381,565.662 744.047,566.496 753.5,563C 761.001,557.503 769.001,552.836 777.5,549C 782.475,548.668 787.308,548.501 792,548.5C 806.736,557.316 822.236,564.816 838.5,571C 883.857,581.975 924.191,571.808 959.5,540.5C 960.246,539.264 960.579,537.93 960.5,536.5C 962.484,536.617 964.15,535.95 965.5,534.5C 987.356,510.586 997.689,482.586 996.5,450.5C 996.101,435.056 995.434,419.89 994.5,405C 996.632,399.899 998.632,394.732 1000.5,389.5C 1007.08,382.848 1011.75,375.015 1014.5,366C 1014.32,364.624 1013.65,363.791 1012.5,363.5C 1019.33,355.584 1019,348.084 1011.5,341C 978.103,331.446 958.769,309.612 953.5,275.5C 953.33,274.178 953.663,273.011 954.5,272C 952.668,270.511 951.835,268.678 952,266.5C 954.895,268.608 957.561,270.941 960,273.5C 966.256,282.339 971.756,291.673 976.5,301.5C 977.833,302.167 979.167,302.833 980.5,303.5C 986.386,311.597 993.386,318.597 1001.5,324.5C 1005.36,329.869 1009.86,334.869 1015,339.5C 1021.86,349.33 1023.53,359.997 1020,371.5C 1016.15,379.348 1011.49,386.681 1006,393.5C 1003.46,397.852 1001.8,402.519 1001,407.5C 1001.83,422.469 1002.66,437.469 1003.5,452.5C 1001.49,505.684 976.822,544.517 929.5,569C 882.801,588.886 838.134,585.219 795.5,558C 791.695,556.62 787.862,555.453 784,554.5C 774.687,557.429 766.187,561.929 758.5,568C 739.127,576.153 723.793,571.32 712.5,553.5C 707.348,544.539 701.682,535.873 695.5,527.5C 684.484,517.318 673.984,506.651 664,495.5C 656.169,481.994 656.836,468.994 666,456.5C 675.854,447.587 685.854,438.921 696,430.5C 704.075,418.695 711.409,406.361 718,393.5C 720.989,390.345 724.156,387.345 727.5,384.5C 728.107,384.624 728.44,384.957 728.5,385.5 Z"/></g>
<g><path style="opacity:1" fill="#333a45" d="M 760.5,485.5 C 754.472,493.352 748.306,501.019 742,508.5C 740.395,507.899 739.062,506.899 738,505.5C 733.077,496.753 726.911,489.087 719.5,482.5C 720.496,482.414 721.329,482.748 722,483.5C 722.062,466.094 730.562,458.927 747.5,462C 757.764,466.704 762.098,474.538 760.5,485.5 Z"/></g>
<g><path style="opacity:1" fill="#2d323b" d="M 760.5,485.5 C 762.098,474.538 757.764,466.704 747.5,462C 730.562,458.927 722.062,466.094 722,483.5C 721.329,482.748 720.496,482.414 719.5,482.5C 716.524,479.698 713.358,477.031 710,474.5C 709.333,473.167 709.333,471.833 710,470.5C 713.253,468.457 716.42,466.29 719.5,464C 727.806,456.369 735.306,448.203 742,439.5C 751.609,451.61 762.442,462.61 774.5,472.5C 769.843,476.831 765.176,481.165 760.5,485.5 Z"/></g>
<g><path style="opacity:1" fill="#2e343e" d="M 959.5,468.5 C 958.778,468.918 958.278,469.584 958,470.5C 955.384,459.922 949.384,451.922 940,446.5C 939.536,445.906 939.369,445.239 939.5,444.5C 943.281,444.026 946.448,442.359 949,439.5C 951.66,435.186 953.327,430.519 954,425.5C 955.167,423.833 956.333,422.167 957.5,420.5C 961.845,428.24 963.511,436.573 962.5,445.5C 962.905,453.378 961.905,461.044 959.5,468.5 Z"/></g>
<g><path style="opacity:1" fill="#526074" d="M 842.5,395.5 C 846.911,395.203 850.911,396.369 854.5,399C 867.712,407.878 878.545,419.045 887,432.5C 894.581,447.076 904.081,460.243 915.5,472C 916.504,474.35 917.504,476.684 918.5,479C 915.79,487.748 910.456,494.414 902.5,499C 889.72,506.165 876.053,508.498 861.5,506C 854.402,503.901 849.568,499.401 847,492.5C 847.254,477.193 843.921,462.859 837,449.5C 822.205,434.119 821.705,418.119 835.5,401.5C 837.678,399.255 840.012,397.255 842.5,395.5 Z"/></g>
<g><path style="opacity:1" fill="#3c4451" d="M 929.5,262.5 C 927.176,265.138 925.343,268.138 924,271.5C 922.911,279.532 920.744,287.198 917.5,294.5C 906.189,279.857 894.522,265.524 882.5,251.5C 882.586,250.504 882.252,249.671 881.5,249C 882.167,248.833 882.833,248.667 883.5,248.5C 891.824,252.225 900.157,256.059 908.5,260C 915.63,260.958 922.63,261.792 929.5,262.5 Z"/></g>
<g><path style="opacity:0.219" fill="#cbcdd1" d="M 2.5,551.5 C 2.70553,558.396 2.03886,565.063 0.5,571.5C 0.637726,564.637 1.30439,557.97 2.5,551.5 Z"/></g>
<g><path style="opacity:1" fill="#455061" d="M 869.5,605.5 C 876.004,605.701 882.337,606.867 888.5,609C 898.77,614.083 908.437,620.083 917.5,627C 947.524,651.03 977.524,675.03 1007.5,699C 1015.18,706.19 1021.02,714.69 1025,724.5C 1028.76,738.223 1025.76,750.223 1016,760.5C 1005.48,768.337 999.144,778.67 997,791.5C 996.667,819.167 996.333,846.833 996,874.5C 994.269,907.143 977.103,924.309 944.5,926C 893.811,926.958 843.144,926.625 792.5,925C 777.71,923.279 766.043,916.446 757.5,904.5C 753.986,898.135 750.486,891.802 747,885.5C 743.23,880.733 738.396,877.566 732.5,876C 723.72,874.626 714.887,873.793 706,873.5C 670.823,874.045 635.657,874.879 600.5,876C 594.142,877.422 588.142,879.756 582.5,883C 569.413,892.545 555.413,900.545 540.5,907C 523.211,912.858 505.544,917.191 487.5,920C 421.836,928.629 356.169,928.629 290.5,920C 268.602,916.944 247.602,910.944 227.5,902C 206.668,891.832 194.168,875.332 190,852.5C 187.834,824.538 187.167,796.538 188,768.5C 188.211,744.781 197.378,725.614 215.5,711C 237.757,698.263 261.757,690.263 287.5,687C 305.427,684.39 323.427,682.39 341.5,681C 392.026,678.75 442.359,680.75 492.5,687C 514.457,690.545 535.457,696.878 555.5,706C 564.899,711.235 572.899,718.069 579.5,726.5C 584.465,735.972 590.798,744.472 598.5,752C 606.937,756.25 615.937,758.25 625.5,758C 648.853,758.833 672.186,758.5 695.5,757C 702.965,756.84 709.132,754.006 714,748.5C 716.608,739.926 718.941,731.26 721,722.5C 723.663,717.173 726.829,712.173 730.5,707.5C 735.61,702.781 740.61,697.948 745.5,693C 775.651,668.759 805.985,644.759 836.5,621C 846.392,613.427 857.392,608.261 869.5,605.5 Z"/></g>
<g><path style="opacity:1" fill="#414a59" d="M 870.5,608.5 C 875.556,608.544 880.39,609.544 885,611.5C 885.333,611.167 885.667,610.833 886,610.5C 898.391,616.277 909.891,623.443 920.5,632C 938.355,646.69 956.355,661.19 974.5,675.5C 975.244,676.991 975.91,678.491 976.5,680C 988.657,688.835 1000.16,698.335 1011,708.5C 1025.31,726.139 1024.97,743.473 1010,760.5C 1002.4,766.571 997.064,774.237 994,783.5C 992.748,811.141 992.081,838.808 992,866.5C 992.833,904.333 974.333,922.833 936.5,922C 894.167,922.667 851.833,922.667 809.5,922C 794.379,922.898 780.712,919.065 768.5,910.5C 765.509,907.339 762.675,904.005 760,900.5C 757.202,894.241 753.869,888.241 750,882.5C 743.662,874.846 735.495,870.679 725.5,870C 686.829,869.523 648.162,869.856 609.5,871C 599.463,871.235 590.129,873.902 581.5,879C 566.832,889.5 551.166,898.167 534.5,905C 497.283,915.508 459.283,921.175 420.5,922C 379.704,923.325 339.037,921.658 298.5,917C 272.184,913.892 247.184,906.559 223.5,895C 204.256,883.363 194.089,866.197 193,843.5C 192.577,823.665 192.077,803.831 191.5,784C 187.811,738.364 208.145,710.03 252.5,699C 296.31,688.295 340.81,683.128 386,683.5C 429.945,683.412 473.445,687.579 516.5,696C 540.246,701.283 560.746,712.116 578,728.5C 582.928,738.137 589.428,746.637 597.5,754C 604.084,757.396 611.084,759.396 618.5,760C 642.167,760.667 665.833,760.667 689.5,760C 694.292,759.783 698.958,758.95 703.5,757.5C 714.042,755.445 719.375,748.945 719.5,738C 722.444,721.933 730.11,708.767 742.5,698.5C 774.079,673.11 805.745,647.943 837.5,623C 847.454,615.525 858.454,610.692 870.5,608.5 Z"/></g>
<g><path style="opacity:1" fill="#fcfcfd" d="M 1010.5,743.5 C 1009.23,744.09 1007.9,744.59 1006.5,745C 997.833,745.333 989.167,745.667 980.5,746C 979.789,747.255 978.956,748.421 978,749.5C 977.667,797.167 977.333,844.833 977,892.5C 975.596,898.568 971.762,901.735 965.5,902C 903.167,902.667 840.833,902.667 778.5,902C 772.859,901.254 769.359,898.087 768,892.5C 767.831,878.994 767.331,865.66 766.5,852.5C 765.942,851.21 764.942,850.377 763.5,850C 700.5,849.333 637.5,849.333 574.5,850C 571.7,857.929 567.367,864.929 561.5,871C 546.208,880.995 529.542,887.662 511.5,891C 438.141,904.341 364.475,906.008 290.5,896C 264.934,892.644 240.934,884.811 218.5,872.5C 211.669,867.176 207.669,860.176 206.5,851.5C 206.333,814.832 206.5,778.165 207,741.5C 207.44,739.134 207.94,736.801 208.5,734.5C 209.343,731.484 210.843,728.817 213,726.5C 222.734,717.88 233.901,711.713 246.5,708C 281.556,698.849 317.223,693.516 353.5,692C 389.902,690.769 426.236,691.769 462.5,695C 490.584,697.698 517.918,703.698 544.5,713C 554.233,717.114 562.399,723.28 569,731.5C 569.725,733.949 570.725,736.283 572,738.5C 572.333,746.833 572.667,755.167 573,763.5C 574.141,765.609 575.641,767.442 577.5,769C 609.134,770.144 640.801,770.644 672.5,770.5C 702.335,770.5 732.002,770.167 761.5,769.5C 763.903,769.607 765.736,768.607 767,766.5C 767.667,760.167 767.667,753.833 767,747.5C 766.5,747 766,746.5 765.5,746C 756.173,745.5 746.839,745.334 737.5,745.5C 729.526,741.201 726.692,734.535 729,725.5C 730.458,723.04 732.291,720.873 734.5,719C 778.652,683.759 822.985,648.759 867.5,614C 873.86,612.532 879.526,613.865 884.5,618C 928.29,652.788 971.79,687.954 1015,723.5C 1019.15,731.522 1017.65,738.189 1010.5,743.5 Z"/></g>
<g><path style="opacity:1" fill="#404957" d="M 921.5,716.5 C 934.677,716.829 947.677,716.495 960.5,715.5C 961.289,715.783 961.956,716.283 962.5,717C 903.168,717.5 843.834,717.667 784.5,717.5C 784.263,716.209 784.596,715.209 785.5,714.5C 798.124,716.481 811.124,717.148 824.5,716.5C 833.839,716.666 843.173,716.5 852.5,716C 845.821,715.218 839.987,712.718 835,708.5C 832.557,701.938 833.557,695.938 838,690.5C 845.52,681.983 854.687,675.816 865.5,672C 877.441,670.487 888.107,673.32 897.5,680.5C 898.639,683.802 900.973,685.968 904.5,687C 918.181,703.019 914.515,712.686 893.5,716C 902.827,716.5 912.161,716.666 921.5,716.5 Z"/></g>
<g><path style="opacity:1" fill="#2f353f" d="M 960.5,715.5 C 947.677,716.495 934.677,716.829 921.5,716.5C 926.936,707.707 926.603,699.041 920.5,690.5C 889.462,653.688 857.962,653.355 826,689.5C 823.147,694.235 820.98,699.235 819.5,704.5C 820.084,708.995 821.75,712.995 824.5,716.5C 811.124,717.148 798.124,716.481 785.5,714.5C 811.914,694.26 837.914,673.427 863.5,652C 868.299,646.978 873.632,646.311 879.5,650C 906.164,672.321 933.164,694.155 960.5,715.5 Z"/></g>
<g><path style="opacity:1" fill="#373f4c" d="M 921.5,716.5 C 912.161,716.666 902.827,716.5 893.5,716C 914.515,712.686 918.181,703.019 904.5,687C 900.973,685.968 898.639,683.802 897.5,680.5C 888.107,673.32 877.441,670.487 865.5,672C 854.687,675.816 845.52,681.983 838,690.5C 833.557,695.938 832.557,701.938 835,708.5C 839.987,712.718 845.821,715.218 852.5,716C 843.173,716.5 833.839,716.666 824.5,716.5C 821.75,712.995 820.084,708.995 819.5,704.5C 820.98,699.235 823.147,694.235 826,689.5C 857.962,653.355 889.462,653.688 920.5,690.5C 926.603,699.041 926.936,707.707 921.5,716.5 Z"/></g>
<g><path style="opacity:1" fill="#455162" d="M 871.5,679.5 C 882.234,680.131 890.734,684.797 897,693.5C 897.667,696.5 897.667,699.5 897,702.5C 894.274,704.188 891.441,705.688 888.5,707C 875.493,709.527 862.826,708.527 850.5,704C 849.26,702.27 848.26,700.437 847.5,698.5C 849.357,692.284 853.023,687.45 858.5,684C 862.577,681.46 866.91,679.96 871.5,679.5 Z"/></g>
<g><path style="opacity:1" fill="#313843" d="M 487.5,761.5 C 486.957,761.44 486.624,761.107 486.5,760.5C 494.658,756.418 495.991,750.918 490.5,744C 487.178,741.442 483.511,739.442 479.5,738C 450.513,730.527 421.013,727.361 391,728.5C 360.053,727.636 329.553,730.803 299.5,738C 294.639,739.393 290.472,741.893 287,745.5C 283.656,752.182 285.49,757.182 292.5,760.5C 290.955,761.452 289.288,761.785 287.5,761.5C 270.058,759.406 253.558,754.406 238,746.5C 237.333,745.167 237.333,743.833 238,742.5C 258.967,732.382 281.134,726.549 304.5,725C 372.162,716.145 439.495,718.145 506.5,731C 517.91,733.47 528.91,737.137 539.5,742C 540.833,743.667 540.833,745.333 539.5,747C 522.987,754.782 505.654,759.616 487.5,761.5 Z"/></g>
<g><path style="opacity:1" fill="#3a4250" d="M 487.5,761.5 C 470.798,764.816 453.798,766.816 436.5,767.5C 434.801,767.66 433.134,767.494 431.5,767C 441.292,765.529 450.625,763.362 459.5,760.5C 465.293,759.684 470.459,757.018 475,752.5C 475.667,751.5 475.667,750.5 475,749.5C 473.378,747.094 471.211,745.261 468.5,744C 461.495,741.773 454.828,739.606 448.5,737.5C 447.833,737.833 447.167,738.167 446.5,738.5C 440.515,736.785 434.515,736.118 428.5,736.5C 426.896,736.061 425.396,735.394 424,734.5C 401.821,734.506 379.654,734.506 357.5,734.5C 355.078,736.65 352.411,736.983 349.5,735.5C 344.336,736.453 339.169,737.453 334,738.5C 333.228,738.355 332.561,738.022 332,737.5C 330.946,739.754 329.446,740.087 327.5,738.5C 326.522,738.977 325.689,739.643 325,740.5C 324.667,740.167 324.333,739.833 324,739.5C 319.664,741.39 315.164,742.89 310.5,744C 307.745,745.711 305.411,747.878 303.5,750.5C 304.128,752.258 305.128,753.758 306.5,755C 310.656,757.241 314.822,759.408 319,761.5C 321.407,761.327 323.74,761.327 326,761.5C 328.856,761.873 331.69,763.039 334.5,765C 339.143,765.83 343.81,766.497 348.5,767C 344.848,767.499 341.182,767.665 337.5,767.5C 320.558,766.63 303.892,764.63 287.5,761.5C 289.288,761.785 290.955,761.452 292.5,760.5C 285.49,757.182 283.656,752.182 287,745.5C 290.472,741.893 294.639,739.393 299.5,738C 329.553,730.803 360.053,727.636 391,728.5C 421.013,727.361 450.513,730.527 479.5,738C 483.511,739.442 487.178,741.442 490.5,744C 495.991,750.918 494.658,756.418 486.5,760.5C 486.624,761.107 486.957,761.44 487.5,761.5 Z"/></g>
<g><path style="opacity:1" fill="#3f4857" d="M 436.5,767.5 C 420.832,768.622 404.998,769.622 389,770.5C 371.646,770.02 354.48,769.02 337.5,767.5C 341.182,767.665 344.848,767.499 348.5,767C 343.81,766.497 339.143,765.83 334.5,765C 331.69,763.039 328.856,761.873 326,761.5C 323.74,761.327 321.407,761.327 319,761.5C 314.822,759.408 310.656,757.241 306.5,755C 305.128,753.758 304.128,752.258 303.5,750.5C 305.411,747.878 307.745,745.711 310.5,744C 315.164,742.89 319.664,741.39 324,739.5C 324.333,739.833 324.667,740.167 325,740.5C 325.689,739.643 326.522,738.977 327.5,738.5C 329.446,740.087 330.946,739.754 332,737.5C 332.561,738.022 333.228,738.355 334,738.5C 339.169,737.453 344.336,736.453 349.5,735.5C 352.411,736.983 355.078,736.65 357.5,734.5C 379.654,734.506 401.821,734.506 424,734.5C 425.396,735.394 426.896,736.061 428.5,736.5C 434.515,736.118 440.515,736.785 446.5,738.5C 447.167,738.167 447.833,737.833 448.5,737.5C 454.828,739.606 461.495,741.773 468.5,744C 471.211,745.261 473.378,747.094 475,749.5C 475.667,750.5 475.667,751.5 475,752.5C 470.459,757.018 465.293,759.684 459.5,760.5C 450.625,763.362 441.292,765.529 431.5,767C 433.134,767.494 434.801,767.66 436.5,767.5 Z"/></g>
<g><path style="opacity:1" fill="#434d5e" d="M 384.5,738.5 C 399.172,739.167 413.839,740 428.5,741C 437.141,742.104 445.474,744.271 453.5,747.5C 455.012,748.249 456.012,749.416 456.5,751C 455.201,752.326 453.868,753.66 452.5,755C 431.906,760.642 410.906,763.142 389.5,762.5C 368.427,763.115 347.76,760.615 327.5,755C 322.206,752.244 322.206,749.577 327.5,747C 335.61,744.173 343.943,742.173 352.5,741C 363.341,740.414 374.007,739.581 384.5,738.5 Z"/></g>
<g><path style="opacity:1" fill="#39404d" d="M 205.5,851.5 C 205.833,851.5 206.167,851.5 206.5,851.5C 207.669,860.176 211.669,867.176 218.5,872.5C 217.233,871.913 216.233,871.913 215.5,872.5C 222.217,880.032 230.217,885.865 239.5,890C 267.17,900.218 295.836,906.218 325.5,908C 388.307,913.695 450.64,910.695 512.5,899C 521.901,896.2 531.235,893.2 540.5,890C 555.828,881.343 571.161,872.676 586.5,864C 593.897,861.28 601.564,859.613 609.5,859C 649.495,857.793 689.495,857.46 729.5,858C 747.299,860.794 759.466,870.627 766,887.5C 766.5,875.838 766.667,864.171 766.5,852.5C 767.331,865.66 767.831,878.994 768,892.5C 769.359,898.087 772.859,901.254 778.5,902C 840.833,902.667 903.167,902.667 965.5,902C 971.762,901.735 975.596,898.568 977,892.5C 977.333,844.833 977.667,797.167 978,749.5C 978.956,748.421 979.789,747.255 980.5,746C 989.167,745.667 997.833,745.333 1006.5,745C 1007.9,744.59 1009.23,744.09 1010.5,743.5C 1011.76,745.772 1011.6,748.105 1010,750.5C 1003.65,757.18 997.655,764.18 992,771.5C 988.744,778.855 986.578,786.522 985.5,794.5C 986.647,818.476 986.814,842.476 986,866.5C 987.528,883.754 981.695,897.754 968.5,908.5C 964.144,911.18 959.478,913.013 954.5,914C 946.484,914.693 938.484,915.526 930.5,916.5C 892.167,915.167 853.833,915.167 815.5,916.5C 806.668,915.47 797.835,914.47 789,913.5C 781.264,911.298 774.597,907.298 769,901.5C 764.593,895.698 760.926,889.365 758,882.5C 755.024,877.192 751.024,872.859 746,869.5C 741.38,867.185 736.714,865.185 732,863.5C 692.436,863.776 652.769,863.776 613,863.5C 603.781,864.485 594.615,866.651 585.5,870C 571.123,878.403 556.79,886.737 542.5,895C 522.224,903.104 501.724,907.937 481,909.5C 473.337,910.724 465.671,912.057 458,913.5C 457.228,913.355 456.561,913.022 456,912.5C 441.884,913.848 427.717,915.181 413.5,916.5C 399.339,916.42 385.173,916.42 371,916.5C 354.946,915.193 338.946,913.859 323,912.5C 296.329,911.302 270.162,906.469 244.5,898C 237.578,895.036 230.912,891.702 224.5,888C 221.839,886.517 220.172,884.35 219.5,881.5C 218.448,881.649 217.448,881.483 216.5,881C 213.346,876.68 210.013,872.514 206.5,868.5C 204.21,861.469 202.044,854.469 200,847.5C 198.746,817.842 198.412,788.175 199,758.5C 199.724,753.238 201.224,748.238 203.5,743.5C 204.167,779.664 204.833,815.664 205.5,851.5 Z"/></g>
<g><path style="opacity:1" fill="#2c313a" d="M 737.5,745.5 C 746.839,745.334 756.173,745.5 765.5,746C 766,746.5 766.5,747 767,747.5C 767.667,753.833 767.667,760.167 767,766.5C 765.736,768.607 763.903,769.607 761.5,769.5C 749.829,769.667 738.162,769.5 726.5,769C 735.296,764.356 738.296,757.19 735.5,747.5C 735.747,746.287 736.414,745.62 737.5,745.5 Z"/></g>
<g><path style="opacity:1" fill="#363d48" d="M 928.5,874.5 C 933.749,871.422 938.249,867.422 942,862.5C 944.759,857.151 946.759,851.484 948,845.5C 948.667,826.5 948.667,807.5 948,788.5C 944.118,767.617 931.618,756.117 910.5,754C 885.5,753.333 860.5,753.333 835.5,754C 811.434,756.735 799.267,770.235 799,794.5C 798.122,811.865 798.455,829.198 800,846.5C 801.221,858.854 807.054,868.188 817.5,874.5C 810.825,874.666 804.158,874.5 797.5,874C 796.299,873.097 795.465,871.931 795,870.5C 794.333,829.833 794.333,789.167 795,748.5C 795.833,747.667 796.667,746.833 797.5,746C 847.5,745.333 897.5,745.333 947.5,746C 948.333,746.833 949.167,747.667 950,748.5C 950.667,789.167 950.667,829.833 950,870.5C 949.5,872.333 948.333,873.5 946.5,874C 940.509,874.499 934.509,874.666 928.5,874.5 Z"/></g>
<g><path style="opacity:1" fill="#39414f" d="M 928.5,874.5 C 925.167,874.5 921.833,874.5 918.5,874.5C 916.031,873.683 913.365,873.183 910.5,873C 927.151,871.943 937.651,863.443 942,847.5C 942.667,826.833 942.667,806.167 942,785.5C 940.096,779.192 937.262,773.359 933.5,768C 927.297,764.482 920.797,761.649 914,759.5C 886.642,758.175 859.309,758.175 832,759.5C 817.201,762.298 808.201,771.298 805,786.5C 803.1,808.493 803.1,830.493 805,852.5C 807.536,855.854 809.369,859.521 810.5,863.5C 811.5,863.5 812.5,863.5 813.5,863.5C 813.5,864.5 813.5,865.5 813.5,866.5C 817.362,867.428 821.029,868.928 824.5,871C 828.147,871.774 831.814,872.441 835.5,873C 831.975,873.179 828.641,873.679 825.5,874.5C 822.833,874.5 820.167,874.5 817.5,874.5C 807.054,868.188 801.221,858.854 800,846.5C 798.455,829.198 798.122,811.865 799,794.5C 799.267,770.235 811.434,756.735 835.5,754C 860.5,753.333 885.5,753.333 910.5,754C 931.618,756.117 944.118,767.617 948,788.5C 948.667,807.5 948.667,826.5 948,845.5C 946.759,851.484 944.759,857.151 942,862.5C 938.249,867.422 933.749,871.422 928.5,874.5 Z"/></g>
<g><path style="opacity:1" fill="#3f4857" d="M 918.5,874.5 C 887.5,874.5 856.5,874.5 825.5,874.5C 828.641,873.679 831.975,873.179 835.5,873C 831.814,872.441 828.147,871.774 824.5,871C 821.029,868.928 817.362,867.428 813.5,866.5C 813.5,865.5 813.5,864.5 813.5,863.5C 812.5,863.5 811.5,863.5 810.5,863.5C 809.369,859.521 807.536,855.854 805,852.5C 803.1,830.493 803.1,808.493 805,786.5C 808.201,771.298 817.201,762.298 832,759.5C 859.309,758.175 886.642,758.175 914,759.5C 920.797,761.649 927.297,764.482 933.5,768C 937.262,773.359 940.096,779.192 942,785.5C 942.667,806.167 942.667,826.833 942,847.5C 937.651,863.443 927.151,871.943 910.5,873C 913.365,873.183 916.031,873.683 918.5,874.5 Z"/></g>
<g><path style="opacity:1" fill="#475365" d="M 837.5,765.5 C 860.836,765.333 884.169,765.5 907.5,766C 924.264,766.433 933.764,774.933 936,791.5C 936.667,808.167 936.667,824.833 936,841.5C 934.194,854.969 926.694,863.136 913.5,866C 886.167,866.667 858.833,866.667 831.5,866C 820.662,863.162 813.829,856.329 811,845.5C 809,825.833 809,806.167 811,786.5C 815.089,773.387 823.922,766.387 837.5,765.5 Z"/></g>
<g><path style="opacity:1" fill="#aeb0b6" d="M 208.5,734.5 C 207.94,736.801 207.44,739.134 207,741.5C 206.5,778.165 206.333,814.832 206.5,851.5C 206.167,851.5 205.833,851.5 205.5,851.5C 205.333,814.165 205.5,776.832 206,739.5C 206.099,737.347 206.933,735.681 208.5,734.5 Z"/></g>
<g><path style="opacity:1" fill="#515f73" d="M 845.5,775.5 C 867.526,775.134 889.526,775.634 911.5,777C 920.674,781.117 925.508,788.284 926,798.5C 927.121,813.931 926.455,829.265 924,844.5C 922.221,848.612 919.388,851.778 915.5,854C 910.594,855.476 905.594,856.476 900.5,857C 879.47,857.902 858.47,857.569 837.5,856C 827.123,853.621 821.29,847.121 820,836.5C 819.066,821.445 819.4,806.445 821,791.5C 823.072,784.427 827.572,779.594 834.5,777C 838.356,776.823 842.023,776.323 845.5,775.5 Z"/></g>
<g><path style="opacity:1" fill="#353b47" d="M 526.5,856.5 C 540.586,842.326 543.586,825.993 535.5,807.5C 529.026,799.766 520.692,796.099 510.5,796.5C 493.189,798.728 475.856,800.894 458.5,803C 397.908,808.483 337.575,806.483 277.5,797C 264.82,794.572 253.654,797.405 244,805.5C 233.065,824.389 235.898,841.055 252.5,855.5C 252.043,856.298 251.376,856.631 250.5,856.5C 242.715,856.195 237.215,852.528 234,845.5C 233.333,823.167 233.333,800.833 234,778.5C 234.725,777.941 235.558,777.608 236.5,777.5C 267.288,787.957 298.954,794.124 331.5,796C 379.577,798.493 427.577,797.493 475.5,793C 497.094,790.394 518.094,785.394 538.5,778C 540.5,777.333 542.5,777.333 544.5,778C 545.66,800.427 545.827,822.927 545,845.5C 543.542,847.96 541.709,850.127 539.5,852C 535.347,854.079 531.014,855.579 526.5,856.5 Z"/></g>
<g><path style="opacity:1" fill="#39414f" d="M 526.5,856.5 C 522.805,858.432 518.805,859.765 514.5,860.5C 513.127,860.657 511.793,860.49 510.5,860C 515.63,856.593 520.63,852.926 525.5,849C 526.448,848.517 527.448,848.351 528.5,848.5C 531.267,842.8 533.433,836.8 535,830.5C 536.648,814.824 529.814,805.324 514.5,802C 511.5,801.333 508.5,801.333 505.5,802C 499.007,802.552 492.674,803.718 486.5,805.5C 485.914,805.291 485.414,804.957 485,804.5C 477.827,805.751 470.66,807.085 463.5,808.5C 462.446,808.32 461.446,807.987 460.5,807.5C 445.853,808.833 431.187,810.167 416.5,811.5C 396.991,811.453 377.491,811.453 358,811.5C 345.492,810.119 332.992,808.786 320.5,807.5C 319.707,807.931 318.873,808.265 318,808.5C 303.407,805.589 288.907,803.256 274.5,801.5C 250.06,800.777 240.226,812.444 245,836.5C 250.6,849.103 260.1,856.936 273.5,860C 270.183,860.498 266.85,860.665 263.5,860.5C 258.927,859.612 254.594,858.279 250.5,856.5C 251.376,856.631 252.043,856.298 252.5,855.5C 235.898,841.055 233.065,824.389 244,805.5C 253.654,797.405 264.82,794.572 277.5,797C 337.575,806.483 397.908,808.483 458.5,803C 475.856,800.894 493.189,798.728 510.5,796.5C 520.692,796.099 529.026,799.766 535.5,807.5C 543.586,825.993 540.586,842.326 526.5,856.5 Z"/></g>
<g><path style="opacity:1" fill="#303640" d="M 575.5,797.5 C 637.501,797.333 699.501,797.5 761.5,798C 763.519,798.45 765.352,799.283 767,800.5C 767.667,807.167 767.667,813.833 767,820.5C 766.25,821.126 765.416,821.626 764.5,822C 701.833,822.667 639.167,822.667 576.5,822C 574.667,821.5 573.5,820.333 573,818.5C 572.333,812.167 572.333,805.833 573,799.5C 573.995,798.934 574.828,798.267 575.5,797.5 Z"/></g>
<g><path style="opacity:1" fill="#414a59" d="M 514.5,860.5 C 483.133,868.385 451.133,872.885 418.5,874C 375.562,876.389 332.895,874.056 290.5,867C 281.236,865.398 272.236,863.231 263.5,860.5C 266.85,860.665 270.183,860.498 273.5,860C 260.1,856.936 250.6,849.103 245,836.5C 240.226,812.444 250.06,800.777 274.5,801.5C 288.907,803.256 303.407,805.589 318,808.5C 318.873,808.265 319.707,807.931 320.5,807.5C 332.992,808.786 345.492,810.119 358,811.5C 377.491,811.453 396.991,811.453 416.5,811.5C 431.187,810.167 445.853,808.833 460.5,807.5C 461.446,807.987 462.446,808.32 463.5,808.5C 470.66,807.085 477.827,805.751 485,804.5C 485.414,804.957 485.914,805.291 486.5,805.5C 492.674,803.718 499.007,802.552 505.5,802C 508.5,801.333 511.5,801.333 514.5,802C 529.814,805.324 536.648,814.824 535,830.5C 533.433,836.8 531.267,842.8 528.5,848.5C 527.448,848.351 526.448,848.517 525.5,849C 520.63,852.926 515.63,856.593 510.5,860C 511.793,860.49 513.127,860.657 514.5,860.5 Z"/></g>
<g><path style="opacity:1" fill="#485365" d="M 268.5,808.5 C 286.512,810.468 304.512,812.635 322.5,815C 343.48,816.526 364.48,817.693 385.5,818.5C 409.851,817.731 434.185,816.564 458.5,815C 478.069,811.68 497.736,810.013 517.5,810C 528.23,816.872 530.897,826.205 525.5,838C 522.117,843.696 517.45,848.029 511.5,851C 493.662,857.041 475.329,861.041 456.5,863C 399.186,869.19 342.186,867.19 285.5,857C 277.269,855.382 269.603,852.382 262.5,848C 253.625,841.382 249.792,832.549 251,821.5C 254.335,813.602 260.168,809.269 268.5,808.5 Z"/></g>
<g><path style="opacity:1" fill="#4e5b6e" d="M 274.5,819.5 C 349.938,829.821 425.438,830.154 501,820.5C 508.294,819.46 513.128,822.293 515.5,829C 512.868,837.436 507.202,842.769 498.5,845C 473.504,850.728 448.171,854.061 422.5,855C 384.714,856.524 347.048,855.19 309.5,851C 297.116,849.425 285.116,846.425 273.5,842C 268.312,839.139 264.979,834.806 263.5,829C 264.92,823.071 268.587,819.904 274.5,819.5 Z"/></g>
<g><path style="opacity:1" fill="#363d48" d="M 766.5,852.5 C 766.667,864.171 766.5,875.838 766,887.5C 759.466,870.627 747.299,860.794 729.5,858C 689.495,857.46 649.495,857.793 609.5,859C 601.564,859.613 593.897,861.28 586.5,864C 571.161,872.676 555.828,881.343 540.5,890C 531.235,893.2 521.901,896.2 512.5,899C 450.64,910.695 388.307,913.695 325.5,908C 295.836,906.218 267.17,900.218 239.5,890C 230.217,885.865 222.217,880.032 215.5,872.5C 216.233,871.913 217.233,871.913 218.5,872.5C 240.934,884.811 264.934,892.644 290.5,896C 364.475,906.008 438.141,904.341 511.5,891C 529.542,887.662 546.208,880.995 561.5,871C 567.367,864.929 571.7,857.929 574.5,850C 637.5,849.333 700.5,849.333 763.5,850C 764.942,850.377 765.942,851.21 766.5,852.5 Z"/></g>
<g><path style="opacity:0.431" fill="#cacdd0" d="M 57.5,874.5 C 62.0078,882.182 66.0078,890.182 69.5,898.5C 64.4595,891.086 60.4595,883.086 57.5,874.5 Z"/></g>
<g><path style="opacity:0.369" fill="#d1d2d6" d="M 72.5,904.5 C 74.9236,907.008 76.5903,910.008 77.5,913.5C 75.0764,910.992 73.4097,907.992 72.5,904.5 Z"/></g>
<g><path style="opacity:0.459" fill="#ccd0d4" d="M 77.5,913.5 C 79.588,915.336 80.9213,917.669 81.5,920.5C 79.412,918.664 78.0787,916.331 77.5,913.5 Z"/></g>
<g><path style="opacity:0.545" fill="#c8cad0" d="M 84.5,925.5 C 86.9998,928.494 88.9998,931.827 90.5,935.5C 87.4977,932.839 85.4977,929.505 84.5,925.5 Z"/></g>
<g><path style="opacity:0.439" fill="#cacdd1" d="M 90.5,935.5 C 92.9501,937.629 94.6167,940.296 95.5,943.5C 93.0499,941.371 91.3833,938.704 90.5,935.5 Z"/></g>
<g><path style="opacity:0.333" fill="#dbdde2" d="M 97.5,946.5 C 103.55,954.554 109.217,962.888 114.5,971.5C 107.667,963.993 102.001,955.66 97.5,946.5 Z"/></g>
<g><path style="opacity:0.355" fill="#dfe0e2" d="M 114.5,971.5 C 148.049,1016.66 186.716,1057.16 230.5,1093C 371.401,1201.32 530.401,1243.15 707.5,1218.5C 686.304,1222.32 664.97,1224.98 643.5,1226.5C 620.5,1226.5 597.5,1226.5 574.5,1226.5C 387.372,1211.87 236.538,1130.87 122,983.5C 119.228,979.612 116.728,975.612 114.5,971.5 Z"/></g>
<g><path style="opacity:0.576" fill="#c4c7cc" d="M 739.5,1212.5 C 734.769,1214.26 729.769,1215.26 724.5,1215.5C 729.169,1213.42 734.169,1212.42 739.5,1212.5 Z"/></g>
<g><path style="opacity:0.314" fill="#d5d8d9" d="M 719.5,1216.5 C 716.054,1217.69 712.387,1218.35 708.5,1218.5C 711.845,1216.78 715.511,1216.12 719.5,1216.5 Z"/></g>
</svg>
