<?xml version="1.0" encoding="UTF-8"?>
<!DOCTYPE svg PUBLIC "-//W3C//DTD SVG 1.1//EN" "http://www.w3.org/Graphics/SVG/1.1/DTD/svg11.dtd">
<svg xmlns="http://www.w3.org/2000/svg" version="1.1" width="1112px" height="1105px" style="shape-rendering:geometricPrecision; text-rendering:geometricPrecision; image-rendering:optimizeQuality; fill-rule:evenodd; clip-rule:evenodd" xmlns:xlink="http://www.w3.org/1999/xlink">
<g><path style="opacity:0.999" fill="#a19f98" d="M 524.5,-0.5 C 545.167,-0.5 565.833,-0.5 586.5,-0.5C 700.643,6.76129 803.309,44.5946 894.5,113C 905.653,121.657 916.32,130.824 926.5,140.5C 927.585,142.587 929.251,143.92 931.5,144.5C 935.5,147.833 939.167,151.5 942.5,155.5C 946.833,160.5 951.5,165.167 956.5,169.5C 965.243,176.907 972.91,185.24 979.5,194.5C 980.419,197.089 982.086,199.089 984.5,200.5C 987.645,203.46 990.312,206.793 992.5,210.5C 993.08,212.749 994.413,214.415 996.5,215.5C 1019.33,243.797 1038.66,274.463 1054.5,307.5C 1054.92,310.918 1056.26,313.918 1058.5,316.5C 1065.5,328.847 1071.17,341.847 1075.5,355.5C 1075.42,358.649 1076.42,361.316 1078.5,363.5C 1080.74,368.216 1082.41,373.216 1083.5,378.5C 1084.19,383.915 1085.86,388.915 1088.5,393.5C 1090.3,398.36 1091.63,403.36 1092.5,408.5C 1093.08,413.809 1094.41,418.809 1096.5,423.5C 1104.29,455.165 1109.29,487.165 1111.5,519.5C 1111.5,541.167 1111.5,562.833 1111.5,584.5C 1096.43,762.542 1016.76,903.375 872.5,1007C 786.375,1065.1 691.375,1097.6 587.5,1104.5C 566.167,1104.5 544.833,1104.5 523.5,1104.5C 351.711,1091.04 213.211,1016.7 108,881.5C 42.8949,792.909 6.7282,693.576 -0.5,583.5C -0.5,562.5 -0.5,541.5 -0.5,520.5C 3.73372,448.994 21.4004,380.994 52.5,316.5C 54.2927,314.574 55.2927,312.241 55.5,309.5C 74.4406,269.916 98.1072,233.582 126.5,200.5C 128.914,199.089 130.581,197.089 131.5,194.5C 138.759,184.572 147.092,175.572 156.5,167.5C 160.5,164.167 164.167,160.5 167.5,156.5C 237.945,87.7514 321.278,40.918 417.5,16C 452.844,7.44086 488.511,1.94086 524.5,-0.5 Z"/></g>
<g><path style="opacity:1" fill="#9d9b94" d="M 529.5,105.5 C 636.161,99.5631 720.161,139.896 781.5,226.5C 810.678,272.644 825.178,323.311 825,378.5C 825.333,456.167 825.667,533.833 826,611.5C 827.036,614.914 829.036,617.58 832,619.5C 842.101,622.634 851.935,626.467 861.5,631C 872.569,638.404 879.735,648.571 883,661.5C 884.493,671.277 886.493,680.944 889,690.5C 891.022,693.356 893.522,695.689 896.5,697.5C 919.035,706.548 931.535,723.214 934,747.5C 935.613,779.136 935.947,810.803 935,842.5C 933.654,856.655 929.321,869.655 922,881.5C 913.491,890.839 902.991,896.673 890.5,899C 881.238,900.655 871.904,901.655 862.5,902C 657.5,902.667 452.5,902.667 247.5,902C 229.193,902.441 212.193,898.108 196.5,889C 184.552,878.197 177.718,864.697 176,848.5C 174,815.167 174,781.833 176,748.5C 177.336,734.588 182.503,722.421 191.5,712C 200.764,705.121 210.264,698.621 220,692.5C 223.195,684.504 225.195,676.171 226,667.5C 229.267,650.788 238.1,637.955 252.5,629C 261.463,625.542 270.463,622.209 279.5,619C 282.081,615.947 283.915,612.447 285,608.5C 285.333,527.167 285.667,445.833 286,364.5C 292.313,264.33 338.48,188.83 424.5,138C 457.447,120.317 492.447,109.484 529.5,105.5 Z"/></g>
<g><path style="opacity:1" fill="#9a9791" d="M 530.5,109.5 C 633.751,103.816 715.584,142.482 776,225.5C 801.573,263.88 816.24,306.213 820,352.5C 821.749,424.996 821.916,497.496 820.5,570C 820.176,585.575 821.009,601.075 823,616.5C 824.141,618.609 825.641,620.442 827.5,622C 837.605,625.695 847.605,629.695 857.5,634C 867.541,639.911 874.374,648.411 878,659.5C 880.456,667.659 882.122,675.992 883,684.5C 883.791,690.25 886.291,695.083 890.5,699C 899.808,703.318 908.308,708.818 916,715.5C 925.701,727.274 930.701,740.941 931,756.5C 931.667,784.5 931.667,812.5 931,840.5C 928.663,876.504 909.496,895.337 873.5,897C 661.167,897.667 448.833,897.667 236.5,897C 203.793,895.624 184.96,878.79 180,846.5C 179.602,830.33 179.102,814.163 178.5,798C 179.095,782.17 179.595,766.336 180,750.5C 181.213,735.241 187.38,722.408 198.5,712C 206,707.082 213.667,702.416 221.5,698C 223.377,695.749 224.877,693.249 226,690.5C 227.312,676.919 230.645,663.919 236,651.5C 241.275,642.225 248.775,635.392 258.5,631C 266.308,628.707 273.974,626.04 281.5,623C 284.433,620.736 286.6,617.902 288,614.5C 288.333,546.167 288.667,477.833 289,409.5C 285.951,358.883 293.951,310.217 313,263.5C 357.936,173.42 430.436,122.087 530.5,109.5 Z"/></g>
<g><path style="opacity:1" fill="#96938d" d="M 530.5,113.5 C 632.467,107.97 713.134,146.304 772.5,228.5C 795.815,263.724 809.982,302.39 815,344.5C 815.989,434.837 816.989,525.17 818,615.5C 818.714,620.381 821.214,624.048 825.5,626.5C 834.991,629.498 844.324,632.998 853.5,637C 863.893,643.607 871.06,652.774 875,664.5C 876.697,675.32 879.03,685.987 882,696.5C 883.141,698.609 884.641,700.442 886.5,702C 893.582,705.81 900.582,709.81 907.5,714C 918.418,723.753 924.585,735.919 926,750.5C 928,782.5 928,814.5 926,846.5C 921.03,876.136 903.53,891.636 873.5,893C 661.5,893.667 449.5,893.667 237.5,893C 205.099,891.599 187.265,874.765 184,842.5C 182,813.167 182,783.833 184,754.5C 185.708,730.534 197.542,714.034 219.5,705C 223.333,702.5 226.5,699.333 229,695.5C 231.332,684.842 233.666,674.176 236,663.5C 241.44,649.06 251.273,638.894 265.5,633C 271.986,631.462 278.319,629.462 284.5,627C 288.549,624.616 291.049,621.116 292,616.5C 293.32,533.869 293.986,451.202 294,368.5C 299.875,267.35 346.708,191.85 434.5,142C 464.866,126.708 496.866,117.208 530.5,113.5 Z"/></g>
<g><path style="opacity:1" fill="#93918a" d="M 544.5,115.5 C 647.754,115.534 726.587,159.201 781,246.5C 798.578,277.759 809.244,311.425 813,347.5C 813.955,437.847 814.955,528.181 816,618.5C 817.152,622.487 819.318,625.82 822.5,628.5C 832.281,631.705 841.948,635.205 851.5,639C 862.035,645.535 869.202,654.701 873,666.5C 874.696,674.095 876.03,681.761 877,689.5C 877.906,696.226 881.073,701.559 886.5,705.5C 906.735,712.563 918.901,726.563 923,747.5C 924.114,764.467 924.614,781.467 924.5,798.5C 924.333,813.167 924.167,827.833 924,842.5C 919.312,875.504 900.145,891.67 866.5,891C 659.167,891.667 451.833,891.667 244.5,891C 207.536,891.364 188.036,873.198 186,836.5C 185.087,807.476 185.42,778.476 187,749.5C 190.844,727.96 203.01,713.46 223.5,706C 226.578,703.677 229.078,700.843 231,697.5C 233.72,686.898 236.053,676.231 238,665.5C 243.411,651.088 253.245,640.922 267.5,635C 274.747,633.437 281.747,631.104 288.5,628C 291.85,624.468 294.016,620.301 295,615.5C 295.333,536.167 295.667,456.833 296,377.5C 298.443,279.082 340.943,203.582 423.5,151C 460.95,129.35 501.283,117.517 544.5,115.5 Z"/></g>
<g><path style="opacity:1" fill="#8f8c86" d="M 544.5,117.5 C 639.483,117.071 714.317,155.071 769,231.5C 792.312,267.034 806.312,306.034 811,348.5C 811.956,439.181 812.956,529.847 814,620.5C 815.409,623.582 817.242,626.415 819.5,629C 829.817,633.157 840.15,637.157 850.5,641C 861.082,647.314 867.916,656.481 871,668.5C 872.812,677.466 874.478,686.466 876,695.5C 877.875,699.406 880.375,702.906 883.5,706C 894.376,710.39 903.709,716.89 911.5,725.5C 917.07,734.374 920.57,744.04 922,754.5C 922.667,783.5 922.667,812.5 922,841.5C 917.755,873.732 899.255,889.566 866.5,889C 659.167,889.667 451.833,889.667 244.5,889C 233.323,888.908 222.656,886.575 212.5,882C 199.083,873.907 191.25,862.074 189,846.5C 187,814.5 187,782.5 189,750.5C 190.952,738.095 196.452,727.595 205.5,719C 212.504,714.163 219.837,709.829 227.5,706C 231.145,702.547 233.645,698.38 235,693.5C 235.586,678.752 239.586,665.085 247,652.5C 251.901,647.266 257.401,642.766 263.5,639C 272.288,636.304 280.954,633.304 289.5,630C 293.257,626.579 295.757,622.412 297,617.5C 297.333,538.167 297.667,458.833 298,379.5C 300.414,277.606 344.914,200.773 431.5,149C 466.857,129.967 504.524,119.467 544.5,117.5 Z"/></g>
<g><path style="opacity:0.027" fill="#e5e5e3" d="M 926.5,140.5 C 928.749,141.08 930.415,142.413 931.5,144.5C 929.251,143.92 927.585,142.587 926.5,140.5 Z"/></g>
<g><path style="opacity:0.024" fill="#e5e4e3" d="M 942.5,155.5 C 948.167,159.167 952.833,163.833 956.5,169.5C 951.5,165.167 946.833,160.5 942.5,155.5 Z"/></g>
<g><path style="opacity:0.549" fill="#ddddda" d="M 167.5,156.5 C 164.167,160.5 160.5,164.167 156.5,167.5C 159.167,162.833 162.833,159.167 167.5,156.5 Z"/></g>
<g><path style="opacity:0.612" fill="#e0dfdd" d="M 131.5,194.5 C 130.581,197.089 128.914,199.089 126.5,200.5C 127.419,197.911 129.086,195.911 131.5,194.5 Z"/></g>
<g><path style="opacity:0.51" fill="#e2e2e0" d="M 979.5,194.5 C 981.914,195.911 983.581,197.911 984.5,200.5C 982.086,199.089 980.419,197.089 979.5,194.5 Z"/></g>
<g><path style="opacity:0.459" fill="#dfdedc" d="M 992.5,210.5 C 994.587,211.585 995.92,213.251 996.5,215.5C 994.413,214.415 993.08,212.749 992.5,210.5 Z"/></g>
<g><path style="opacity:0.396" fill="#eeeeed" d="M 55.5,309.5 C 55.2927,312.241 54.2927,314.574 52.5,316.5C 52.7073,313.759 53.7073,311.426 55.5,309.5 Z"/></g>
<g><path style="opacity:0.439" fill="#e6e5e3" d="M 1054.5,307.5 C 1056.62,310.088 1057.96,313.088 1058.5,316.5C 1056.26,313.918 1054.92,310.918 1054.5,307.5 Z"/></g>
<g><path style="opacity:0.12" fill="#ebebea" d="M 1075.5,355.5 C 1077.02,357.89 1078.02,360.557 1078.5,363.5C 1076.42,361.316 1075.42,358.649 1075.5,355.5 Z"/></g>
<g><path style="opacity:0.902" fill="#dcdbd8" d="M 1083.5,378.5 C 1085.74,383.216 1087.41,388.216 1088.5,393.5C 1085.86,388.915 1084.19,383.915 1083.5,378.5 Z"/></g>
<g><path style="opacity:0.847" fill="#dededc" d="M 1092.5,408.5 C 1094.59,413.191 1095.92,418.191 1096.5,423.5C 1094.41,418.809 1093.08,413.809 1092.5,408.5 Z"/></g>
<g><path style="opacity:1" fill="#8b8882" d="M 381.5,191.5 C 381.5,192.167 381.5,192.833 381.5,193.5C 351.945,220.613 330.445,253.28 317,291.5C 311.26,309.344 307.26,327.344 305,345.5C 304.333,355.5 303.667,365.5 303,375.5C 302.667,456.5 302.333,537.5 302,618.5C 300.903,625.584 297.403,631.084 291.5,635C 281.292,638.07 271.292,641.736 261.5,646C 257.701,648.797 254.201,651.964 251,655.5C 249.016,659.469 247.016,663.469 245,667.5C 242.712,679.275 240.046,690.941 237,702.5C 235.207,705.295 233.04,707.795 230.5,710C 221.404,714.628 212.904,720.128 205,726.5C 199.22,733.495 195.554,741.495 194,750.5C 192.009,782.168 192.009,813.835 194,845.5C 197.173,865.006 208.339,877.173 227.5,882C 232.815,882.813 238.148,883.479 243.5,884C 451.5,884.667 659.5,884.667 867.5,884C 884.571,884.708 898.404,878.541 909,865.5C 913.367,858.092 916.034,850.092 917,841.5C 917.667,812.5 917.667,783.5 917,754.5C 915.492,741.013 909.658,729.846 899.5,721C 890.519,716.602 882.353,711.102 875,704.5C 873.667,701.833 872.333,699.167 871,696.5C 869.496,687.134 867.829,677.8 866,668.5C 862.433,657.599 855.599,649.433 845.5,644C 836.044,640.971 826.711,637.637 817.5,634C 813.048,630.929 810.215,626.762 809,621.5C 807.688,536.523 807.022,451.523 807,366.5C 805.687,322.241 793.687,281.241 771,243.5C 765.897,236.281 761.064,228.948 756.5,221.5C 783.128,254.811 799.628,292.811 806,335.5C 806.535,341.515 807.201,347.515 808,353.5C 808.021,441.523 808.688,529.523 810,617.5C 811.175,627.008 816.342,633.175 825.5,636C 855.668,640.849 870.834,658.682 871,689.5C 872.383,698.685 876.883,705.852 884.5,711C 907.42,719.58 918.92,736.08 919,760.5C 919.667,785.833 919.667,811.167 919,836.5C 918.161,865.016 903.494,881.349 875,885.5C 662,885.5 449,885.5 236,885.5C 225.205,884.015 215.372,880.182 206.5,874C 198.892,866.77 194.559,858.103 193.5,848C 192.207,843.963 191.374,839.796 191,835.5C 190.333,810.5 190.333,785.5 191,760.5C 192.163,735.965 204.33,719.132 227.5,710C 234.118,705.154 237.951,698.654 239,690.5C 239.701,678.023 243.034,666.357 249,655.5C 253.25,650.578 258.084,646.411 263.5,643C 272.833,639.667 282.167,636.333 291.5,633C 298.572,626.884 301.739,619.051 301,609.5C 301.333,529.833 301.667,450.167 302,370.5C 303.692,300.304 329.526,240.804 379.5,192C 380.094,191.536 380.761,191.369 381.5,191.5 Z"/></g>
<g><path style="opacity:1" fill="#86837e" d="M 756.5,221.5 C 761.064,228.948 765.897,236.281 771,243.5C 793.687,281.241 805.687,322.241 807,366.5C 807.022,451.523 807.688,536.523 809,621.5C 810.215,626.762 813.048,630.929 817.5,634C 826.711,637.637 836.044,640.971 845.5,644C 855.599,649.433 862.433,657.599 866,668.5C 867.829,677.8 869.496,687.134 871,696.5C 872.333,699.167 873.667,701.833 875,704.5C 882.353,711.102 890.519,716.602 899.5,721C 909.658,729.846 915.492,741.013 917,754.5C 917.667,783.5 917.667,812.5 917,841.5C 916.034,850.092 913.367,858.092 909,865.5C 898.404,878.541 884.571,884.708 867.5,884C 659.5,884.667 451.5,884.667 243.5,884C 238.148,883.479 232.815,882.813 227.5,882C 208.339,877.173 197.173,865.006 194,845.5C 192.009,813.835 192.009,782.168 194,750.5C 195.554,741.495 199.22,733.495 205,726.5C 212.904,720.128 221.404,714.628 230.5,710C 233.04,707.795 235.207,705.295 237,702.5C 240.046,690.941 242.712,679.275 245,667.5C 247.016,663.469 249.016,659.469 251,655.5C 254.201,651.964 257.701,648.797 261.5,646C 271.292,641.736 281.292,638.07 291.5,635C 297.403,631.084 300.903,625.584 302,618.5C 302.333,537.5 302.667,456.5 303,375.5C 303.667,365.5 304.333,355.5 305,345.5C 307.26,327.344 311.26,309.344 317,291.5C 330.445,253.28 351.945,220.613 381.5,193.5C 381.5,192.833 381.5,192.167 381.5,191.5C 384.439,187.812 387.772,184.312 391.5,181C 462.296,123.736 541.963,107.402 630.5,132C 658.939,140.396 684.606,154.396 707.5,174C 711.753,175.797 715.753,178.13 719.5,181C 728.681,190.348 738.014,199.514 747.5,208.5C 750.932,212.588 753.932,216.921 756.5,221.5 Z"/></g>
<g><path style="opacity:1" fill="#827f7a" d="M 470.5,140.5 C 470.144,141.87 469.31,142.87 468,143.5C 460.415,146.414 452.915,149.414 445.5,152.5C 440.974,155.931 435.974,158.598 430.5,160.5C 427.722,164.1 424.055,166.267 419.5,167C 411.566,173.879 403.233,180.212 394.5,186C 391.758,187.886 390.091,190.386 389.5,193.5C 388.127,193.343 386.793,193.51 385.5,194C 381.333,198.167 377.167,202.333 373,206.5C 372.51,207.793 372.343,209.127 372.5,210.5C 371.448,210.351 370.448,210.517 369.5,211C 366.61,216.954 362.444,221.788 357,225.5C 331.789,259.444 316.122,297.444 310,339.5C 308.299,355.293 307.132,371.127 306.5,387C 307.642,465.161 307.808,543.327 307,621.5C 306.011,628.318 302.844,633.818 297.5,638C 286.679,640.888 276.345,644.888 266.5,650C 267.448,650.483 268.448,650.649 269.5,650.5C 264.975,651.852 261.809,654.852 260,659.5C 259.832,680.004 259.332,700.337 258.5,720.5C 258.5,705.833 258.5,691.167 258.5,676.5C 258.5,672.833 258.5,669.167 258.5,665.5C 258.657,664.127 258.49,662.793 258,661.5C 256.088,663.657 254.421,665.991 253,668.5C 250.212,680.86 247.378,693.193 244.5,705.5C 242.248,709.051 239.581,712.217 236.5,715C 231.223,718.14 225.89,720.973 220.5,723.5C 216.88,725.453 213.88,728.119 211.5,731.5C 211.631,730.624 211.298,729.957 210.5,729.5C 208.247,730.253 206.413,731.586 205,733.5C 201.683,739.117 199.35,745.117 198,751.5C 196,782.5 196,813.5 198,844.5C 200.936,862.429 211.103,873.596 228.5,878C 233.489,878.749 238.489,879.415 243.5,880C 451.5,880.667 659.5,880.667 867.5,880C 880.675,879.637 892.342,875.47 902.5,867.5C 902.719,868.675 902.386,869.675 901.5,870.5C 898.848,871.653 896.848,873.487 895.5,876C 888.905,879.399 881.905,881.399 874.5,882C 661.833,882.667 449.167,882.667 236.5,882C 225.443,879.974 215.443,875.474 206.5,868.5C 199.618,858.998 195.785,848.331 195,836.5C 194.333,811.167 194.333,785.833 195,760.5C 196.084,746.673 201.251,734.673 210.5,724.5C 217.769,720.334 225.103,716.167 232.5,712C 234.628,708.87 237.128,706.037 240,703.5C 242.774,691.188 245.441,678.855 248,666.5C 252.049,657.449 258.549,650.615 267.5,646C 277.067,643.276 286.401,639.943 295.5,636C 299.721,632.395 302.554,627.895 304,622.5C 305.294,538.514 305.961,454.514 306,370.5C 306.956,301.942 331.956,243.942 381,196.5C 381.483,195.552 381.649,194.552 381.5,193.5C 390.917,187.917 399.584,181.083 407.5,173C 421.407,163.232 436.073,154.566 451.5,147C 457.669,144.243 464.003,142.077 470.5,140.5 Z"/></g>
<g><path style="opacity:1" fill="#53514f" d="M 258.5,676.5 C 258.5,691.167 258.5,705.833 258.5,720.5C 258.047,721.458 257.381,722.292 256.5,723C 253.854,723.497 251.187,723.664 248.5,723.5C 247.737,722.732 246.737,722.232 245.5,722C 249.142,720.56 251.808,718.06 253.5,714.5C 254.381,711.07 255.548,707.737 257,704.5C 257.17,694.991 257.67,685.658 258.5,676.5 Z"/></g>
<g><path style="opacity:1" fill="#716f6c" d="M 880.5,723.5 C 876.167,723.5 871.833,723.5 867.5,723.5C 867.611,722.883 867.944,722.383 868.5,722C 864.445,719.399 860.945,716.232 858,712.5C 855.473,704.004 853.806,695.337 853,686.5C 852.5,697.495 852.333,708.495 852.5,719.5C 851.503,699.674 851.17,679.674 851.5,659.5C 851.435,659.062 851.601,658.728 852,658.5C 853.525,661.563 855.525,664.23 858,666.5C 861.225,678.683 863.559,691.016 865,703.5C 869.24,711.74 875.407,717.907 883.5,722C 882.263,722.232 881.263,722.732 880.5,723.5 Z"/></g>
<g><path style="opacity:1" fill="#62605d" d="M 258.5,665.5 C 258.5,669.167 258.5,672.833 258.5,676.5C 257.67,685.658 257.17,694.991 257,704.5C 255.548,707.737 254.381,711.07 253.5,714.5C 251.808,718.06 249.142,720.56 245.5,722C 246.737,722.232 247.737,722.732 248.5,723.5C 244.167,723.5 239.833,723.5 235.5,723.5C 235.082,722.778 234.416,722.278 233.5,722C 241.667,719.167 247.167,713.667 250,705.5C 252.114,691.861 254.947,678.528 258.5,665.5 Z"/></g>
<g><path style="opacity:1" fill="#575553" d="M 867.5,723.5 C 863.154,723.666 858.821,723.499 854.5,723C 853.177,722.184 852.511,721.017 852.5,719.5C 852.333,708.495 852.5,697.495 853,686.5C 853.806,695.337 855.473,704.004 858,712.5C 860.945,716.232 864.445,719.399 868.5,722C 867.944,722.383 867.611,722.883 867.5,723.5 Z"/></g>
<g><path style="opacity:1" fill="#726f6b" d="M 258.5,665.5 C 254.947,678.528 252.114,691.861 250,705.5C 247.167,713.667 241.667,719.167 233.5,722C 234.416,722.278 235.082,722.778 235.5,723.5C 230.5,723.5 225.5,723.5 220.5,723.5C 225.89,720.973 231.223,718.14 236.5,715C 239.581,712.217 242.248,709.051 244.5,705.5C 247.378,693.193 250.212,680.86 253,668.5C 254.421,665.991 256.088,663.657 258,661.5C 258.49,662.793 258.657,664.127 258.5,665.5 Z"/></g>
<g><path style="opacity:1" fill="#565351" d="M 320.5,645.5 C 320.262,647.404 319.262,648.738 317.5,649.5C 312.833,649.5 308.167,649.5 303.5,649.5C 307.607,648.726 311.107,646.726 314,643.5C 315.643,639.54 317.31,635.54 319,631.5C 319.333,539.5 319.667,447.5 320,355.5C 320.5,452.166 320.667,548.833 320.5,645.5 Z"/></g>
<g><path style="opacity:1" fill="#696764" d="M 347.5,258.5 C 334.507,283.835 326.173,310.501 322.5,338.5C 322.649,337.448 322.483,336.448 322,335.5C 321.64,337.608 320.973,339.608 320,341.5C 318.533,354.641 317.366,367.808 316.5,381C 317.153,419.323 317.486,457.656 317.5,496C 317.603,539.845 317.103,583.678 316,627.5C 314.36,636.433 309.527,643.1 301.5,647.5C 299.018,648.067 296.684,648.734 294.5,649.5C 289.167,649.5 283.833,649.5 278.5,649.5C 284.004,648.213 289.67,647.047 295.5,646C 305.824,641.656 311.657,633.823 313,622.5C 314.301,535.85 314.968,449.183 315,362.5C 316.132,346.378 318.132,330.378 321,314.5C 326.197,298.918 332.197,283.585 339,268.5C 339.497,266.19 339.663,263.857 339.5,261.5C 342.946,259.831 345.446,257.165 347,253.5C 347.494,255.134 347.66,256.801 347.5,258.5 Z"/></g>
<g><path style="opacity:1" fill="#575452" d="M 804.5,649.5 C 800.154,649.666 795.821,649.499 791.5,649C 790.748,648.329 790.414,647.496 790.5,646.5C 790.333,550.166 790.5,453.833 791,357.5C 791.333,449.833 791.667,542.167 792,634.5C 794.696,640.805 798.862,645.805 804.5,649.5 Z"/></g>
<g><path style="opacity:1" fill="#6f6c6a" d="M 322.5,338.5 C 321.847,440.986 321.18,543.32 320.5,645.5C 320.667,548.833 320.5,452.166 320,355.5C 319.667,447.5 319.333,539.5 319,631.5C 317.31,635.54 315.643,639.54 314,643.5C 311.107,646.726 307.607,648.726 303.5,649.5C 300.5,649.5 297.5,649.5 294.5,649.5C 296.684,648.734 299.018,648.067 301.5,647.5C 309.527,643.1 314.36,636.433 316,627.5C 317.103,583.678 317.603,539.845 317.5,496C 317.486,457.656 317.153,419.323 316.5,381C 317.366,367.808 318.533,354.641 320,341.5C 320.973,339.608 321.64,337.608 322,335.5C 322.483,336.448 322.649,337.448 322.5,338.5 Z"/></g>
<g><path style="opacity:1" fill="#74716e" d="M 791.5,314.5 C 793.308,320.285 794.808,326.285 796,332.5C 797.244,341.185 798.577,349.852 800,358.5C 800.333,443.5 800.667,528.5 801,613.5C 801.766,622.173 803.599,630.507 806.5,638.5C 810.127,639.28 813.46,640.78 816.5,643C 824.06,645.07 831.393,647.237 838.5,649.5C 834.833,649.5 831.167,649.5 827.5,649.5C 819.564,648.57 812.397,645.57 806,640.5C 804.269,636.705 802.269,633.038 800,629.5C 799.118,626.211 798.452,622.877 798,619.5C 797.667,535.167 797.333,450.833 797,366.5C 795.961,349.066 794.128,331.733 791.5,314.5 Z"/></g>
<g><path style="opacity:1" fill="#706d6a" d="M 339.5,261.5 C 339.663,263.857 339.497,266.19 339,268.5C 332.197,283.585 326.197,298.918 321,314.5C 318.132,330.378 316.132,346.378 315,362.5C 314.968,449.183 314.301,535.85 313,622.5C 311.657,633.823 305.824,641.656 295.5,646C 289.67,647.047 284.004,648.213 278.5,649.5C 276.801,649.66 275.134,649.494 273.5,649C 282.53,646.99 291.197,643.99 299.5,640C 304.579,636.01 307.745,630.843 309,624.5C 310.025,535.178 311.025,445.844 312,356.5C 314.3,327.3 321.3,299.3 333,272.5C 334.689,268.44 336.856,264.773 339.5,261.5 Z"/></g>
<g><path style="opacity:1" fill="#6d6a68" d="M 791.5,314.5 C 794.128,331.733 795.961,349.066 797,366.5C 797.333,450.833 797.667,535.167 798,619.5C 798.452,622.877 799.118,626.211 800,629.5C 802.269,633.038 804.269,636.705 806,640.5C 812.397,645.57 819.564,648.57 827.5,649.5C 819.833,649.5 812.167,649.5 804.5,649.5C 798.862,645.805 794.696,640.805 792,634.5C 791.667,542.167 791.333,449.833 791,357.5C 790.5,453.833 790.333,550.166 790.5,646.5C 789.667,546.001 789.167,445.334 789,344.5C 786.501,317.168 779.335,291.168 767.5,266.5C 768.407,262.569 769.574,262.569 771,266.5C 774.399,274.297 778.065,281.964 782,289.5C 784.517,298.236 787.683,306.569 791.5,314.5 Z"/></g>
<g><path style="opacity:1" fill="#7c7975" d="M 902.5,867.5 C 892.342,875.47 880.675,879.637 867.5,880C 659.5,880.667 451.5,880.667 243.5,880C 238.489,879.415 233.489,878.749 228.5,878C 211.103,873.596 200.936,862.429 198,844.5C 196,813.5 196,782.5 198,751.5C 199.35,745.117 201.683,739.117 205,733.5C 206.413,731.586 208.247,730.253 210.5,729.5C 211.298,729.957 211.631,730.624 211.5,731.5C 211.443,732.609 211.11,733.609 210.5,734.5C 207.769,736.071 205.935,738.405 205,741.5C 202.153,747.692 200.653,754.192 200.5,761C 199.054,787.512 199.22,814.012 201,840.5C 205.062,863.232 218.562,875.399 241.5,877C 450.833,877.667 660.167,877.667 869.5,877C 878.425,876.686 886.758,874.353 894.5,870C 897.688,865.815 901.188,861.982 905,858.5C 907.283,853.372 908.949,848.038 910,842.5C 910.667,813.167 910.667,783.833 910,754.5C 907.755,746.391 904.589,739.391 900.5,733.5C 896.406,725.453 889.74,722.119 880.5,723.5C 881.263,722.732 882.263,722.232 883.5,722C 875.407,717.907 869.24,711.74 865,703.5C 863.559,691.016 861.225,678.683 858,666.5C 855.525,664.23 853.525,661.563 852,658.5C 851.601,658.728 851.435,659.062 851.5,659.5C 848.835,654.001 844.502,650.667 838.5,649.5C 831.393,647.237 824.06,645.07 816.5,643C 813.46,640.78 810.127,639.28 806.5,638.5C 803.599,630.507 801.766,622.173 801,613.5C 800.667,528.5 800.333,443.5 800,358.5C 798.577,349.852 797.244,341.185 796,332.5C 794.808,326.285 793.308,320.285 791.5,314.5C 788.849,301.925 785.349,289.592 781,277.5C 770.564,257.605 758.897,238.605 746,220.5C 740,214.5 734,208.5 728,202.5C 726.71,198.723 724.21,196.223 720.5,195C 702.007,177.432 681.007,163.099 657.5,152C 656.5,151.333 655.5,151.333 654.5,152C 654.201,153.073 654.201,154.24 654.5,155.5C 646.817,152.437 639.15,149.271 631.5,146C 624.219,144.292 617.219,142.126 610.5,139.5C 615.316,139.176 620.316,139.009 625.5,139C 623.871,138.415 622.371,137.581 621,136.5C 608.406,133.292 595.739,130.625 583,128.5C 564.057,128.538 545.057,128.538 526,128.5C 507.394,132.187 488.894,136.187 470.5,140.5C 473.883,138.726 477.383,137.06 481,135.5C 587.187,108.196 676.354,134.863 748.5,215.5C 761.397,232.267 772.564,250.267 782,269.5C 785.198,276.764 788.198,284.097 791,291.5C 796.095,311.554 799.762,331.887 802,352.5C 802.978,442.844 803.978,533.177 805,623.5C 807.474,632.64 813.307,638.474 822.5,641C 841.983,641.638 855.483,650.805 863,668.5C 865.523,678.384 867.523,688.384 869,698.5C 870.827,704.002 873.993,708.502 878.5,712C 888.915,716.634 898.082,723.134 906,731.5C 908.062,733.901 909.729,736.567 911,739.5C 912.98,746.351 914.313,753.351 915,760.5C 915.667,785.833 915.667,811.167 915,836.5C 914.257,844.374 912.59,852.041 910,859.5C 907.978,861.531 906.311,863.865 905,866.5C 904.329,867.252 903.496,867.586 902.5,867.5 Z"/></g>
<g><path style="opacity:1" fill="#73706d" d="M 791.5,314.5 C 787.683,306.569 784.517,298.236 782,289.5C 778.065,281.964 774.399,274.297 771,266.5C 769.574,262.569 768.407,262.569 767.5,266.5C 742.007,217.007 704.341,180.007 654.5,155.5C 654.201,154.24 654.201,153.073 654.5,152C 655.5,151.333 656.5,151.333 657.5,152C 681.007,163.099 702.007,177.432 720.5,195C 724.21,196.223 726.71,198.723 728,202.5C 734,208.5 740,214.5 746,220.5C 758.897,238.605 770.564,257.605 781,277.5C 785.349,289.592 788.849,301.925 791.5,314.5 Z"/></g>
<g><path style="opacity:1" fill="#797672" d="M 610.5,139.5 C 510.565,120.413 429.065,150.413 366,229.5C 359.31,238.892 353.143,248.559 347.5,258.5C 347.66,256.801 347.494,255.134 347,253.5C 345.446,257.165 342.946,259.831 339.5,261.5C 336.856,264.773 334.689,268.44 333,272.5C 321.3,299.3 314.3,327.3 312,356.5C 311.025,445.844 310.025,535.178 309,624.5C 307.745,630.843 304.579,636.01 299.5,640C 291.197,643.99 282.53,646.99 273.5,649C 275.134,649.494 276.801,649.66 278.5,649.5C 283.833,649.5 289.167,649.5 294.5,649.5C 297.5,649.5 300.5,649.5 303.5,649.5C 308.167,649.5 312.833,649.5 317.5,649.5C 301.675,650.496 285.675,650.83 269.5,650.5C 268.448,650.649 267.448,650.483 266.5,650C 276.345,644.888 286.679,640.888 297.5,638C 302.844,633.818 306.011,628.318 307,621.5C 307.808,543.327 307.642,465.161 306.5,387C 307.132,371.127 308.299,355.293 310,339.5C 316.122,297.444 331.789,259.444 357,225.5C 362.444,221.788 366.61,216.954 369.5,211C 370.448,210.517 371.448,210.351 372.5,210.5C 372.343,209.127 372.51,207.793 373,206.5C 377.167,202.333 381.333,198.167 385.5,194C 386.793,193.51 388.127,193.343 389.5,193.5C 390.091,190.386 391.758,187.886 394.5,186C 403.233,180.212 411.566,173.879 419.5,167C 424.055,166.267 427.722,164.1 430.5,160.5C 435.974,158.598 440.974,155.931 445.5,152.5C 452.915,149.414 460.415,146.414 468,143.5C 469.31,142.87 470.144,141.87 470.5,140.5C 488.894,136.187 507.394,132.187 526,128.5C 545.057,128.538 564.057,128.538 583,128.5C 595.739,130.625 608.406,133.292 621,136.5C 622.371,137.581 623.871,138.415 625.5,139C 620.316,139.009 615.316,139.176 610.5,139.5 Z"/></g>
<g><path style="opacity:1" fill="#fdfdfd" d="M 610.5,139.5 C 617.219,142.126 624.219,144.292 631.5,146C 639.15,149.271 646.817,152.437 654.5,155.5C 704.341,180.007 742.007,217.007 767.5,266.5C 779.335,291.168 786.501,317.168 789,344.5C 789.167,445.334 789.667,546.001 790.5,646.5C 790.414,647.496 790.748,648.329 791.5,649C 795.821,649.499 800.154,649.666 804.5,649.5C 812.167,649.5 819.833,649.5 827.5,649.5C 831.167,649.5 834.833,649.5 838.5,649.5C 844.502,650.667 848.835,654.001 851.5,659.5C 851.17,679.674 851.503,699.674 852.5,719.5C 852.511,721.017 853.177,722.184 854.5,723C 858.821,723.499 863.154,723.666 867.5,723.5C 871.833,723.5 876.167,723.5 880.5,723.5C 889.74,722.119 896.406,725.453 900.5,733.5C 900.5,738.167 900.5,742.833 900.5,747.5C 900.5,781.5 900.5,815.5 900.5,849.5C 899.579,855.419 896.245,859.086 890.5,860.5C 666.5,860.5 442.5,860.5 218.5,860.5C 214.132,858.108 211.466,854.441 210.5,849.5C 210.5,816.5 210.5,783.5 210.5,750.5C 210.5,745.167 210.5,739.833 210.5,734.5C 211.11,733.609 211.443,732.609 211.5,731.5C 213.88,728.119 216.88,725.453 220.5,723.5C 225.5,723.5 230.5,723.5 235.5,723.5C 239.833,723.5 244.167,723.5 248.5,723.5C 251.187,723.664 253.854,723.497 256.5,723C 257.381,722.292 258.047,721.458 258.5,720.5C 259.332,700.337 259.832,680.004 260,659.5C 261.809,654.852 264.975,651.852 269.5,650.5C 285.675,650.83 301.675,650.496 317.5,649.5C 319.262,648.738 320.262,647.404 320.5,645.5C 321.18,543.32 321.847,440.986 322.5,338.5C 326.173,310.501 334.507,283.835 347.5,258.5C 353.143,248.559 359.31,238.892 366,229.5C 429.065,150.413 510.565,120.413 610.5,139.5 Z"/></g>
<g><path style="opacity:1" fill="#5d5b59" d="M 815.5,722.5 C 817.5,722.5 819.5,722.5 821.5,722.5C 816.695,723.487 811.695,723.821 806.5,723.5C 805.391,722.71 804.058,722.21 802.5,722C 814.316,716.258 817.316,707.425 811.5,695.5C 807.779,691.948 803.446,689.448 798.5,688C 786.866,686.865 775.199,686.199 763.5,686C 694.167,685.833 624.833,685.667 555.5,685.5C 477.159,685.377 398.825,685.877 320.5,687C 314.999,687.709 309.665,689.042 304.5,691C 295.783,698.245 294.283,706.745 300,716.5C 302.167,718.333 304.333,720.167 306.5,722C 305.263,722.232 304.263,722.732 303.5,723.5C 298.305,723.821 293.305,723.487 288.5,722.5C 291.059,722.802 293.393,722.468 295.5,721.5C 286.977,701.716 292.977,689.216 313.5,684C 336.829,682.898 360.162,681.898 383.5,681C 498.167,680.333 612.833,680.333 727.5,681C 750.837,681.926 774.17,682.926 797.5,684C 805.051,684.189 810.884,687.356 815,693.5C 818.137,700.338 818.804,707.338 817,714.5C 814.876,717.325 812.376,719.825 809.5,722C 811.473,722.495 813.473,722.662 815.5,722.5 Z"/></g>
<g><path style="opacity:1" fill="#666461" d="M 806.5,723.5 C 802.167,723.5 797.833,723.5 793.5,723.5C 793.389,722.883 793.056,722.383 792.5,722C 805.741,720.611 811.741,713.445 810.5,700.5C 806.945,695.046 801.945,691.546 795.5,690C 777.513,689 759.513,688.334 741.5,688C 617.167,687.333 492.833,687.333 368.5,688C 350.82,688.343 333.154,689.01 315.5,690C 313.509,690.374 311.842,691.207 310.5,692.5C 301.389,695.131 297.889,701.131 300,710.5C 303.319,716.227 308.153,719.561 314.5,720.5C 315.263,721.268 316.263,721.768 317.5,722C 314.635,722.183 311.969,722.683 309.5,723.5C 307.5,723.5 305.5,723.5 303.5,723.5C 304.263,722.732 305.263,722.232 306.5,722C 304.333,720.167 302.167,718.333 300,716.5C 294.283,706.745 295.783,698.245 304.5,691C 309.665,689.042 314.999,687.709 320.5,687C 398.825,685.877 477.159,685.377 555.5,685.5C 624.833,685.667 694.167,685.833 763.5,686C 775.199,686.199 786.866,686.865 798.5,688C 803.446,689.448 807.779,691.948 811.5,695.5C 817.316,707.425 814.316,716.258 802.5,722C 804.058,722.21 805.391,722.71 806.5,723.5 Z"/></g>
<g><path style="opacity:1" fill="#6c6967" d="M 793.5,723.5 C 632.167,723.5 470.833,723.5 309.5,723.5C 311.969,722.683 314.635,722.183 317.5,722C 316.263,721.768 315.263,721.268 314.5,720.5C 473.483,721.66 632.483,721.826 791.5,721C 801.135,719.854 807.135,714.687 809.5,705.5C 809.022,700.182 806.355,696.348 801.5,694C 797.469,693.519 793.469,692.853 789.5,692C 646.506,690.402 503.506,690.069 360.5,691C 347.5,691.333 334.5,691.667 321.5,692C 317.766,693.08 314.1,693.246 310.5,692.5C 311.842,691.207 313.509,690.374 315.5,690C 333.154,689.01 350.82,688.343 368.5,688C 492.833,687.333 617.167,687.333 741.5,688C 759.513,688.334 777.513,689 795.5,690C 801.945,691.546 806.945,695.046 810.5,700.5C 811.741,713.445 805.741,720.611 792.5,722C 793.056,722.383 793.389,722.883 793.5,723.5 Z"/></g>
<g><path style="opacity:1" fill="#535250" d="M 821.5,722.5 C 819.5,722.5 817.5,722.5 815.5,722.5C 817.816,720.669 819.649,718.335 821,715.5C 824.199,705.081 822.366,695.747 815.5,687.5C 811.947,684.556 807.947,682.39 803.5,681C 790.207,679.785 776.874,679.119 763.5,679C 633.833,678.333 504.167,678.333 374.5,679C 352.539,680.81 330.539,681.81 308.5,682C 294.397,686.391 287.897,695.891 289,710.5C 290.172,714.858 292.339,718.525 295.5,721.5C 293.393,722.468 291.059,722.802 288.5,722.5C 287.883,722.389 287.383,722.056 287,721.5C 286.333,707.167 286.333,692.833 287,678.5C 287.5,678 288,677.5 288.5,677C 466.167,676.333 643.833,676.333 821.5,677C 822.416,677.374 823.25,677.874 824,678.5C 824.667,692.5 824.667,706.5 824,720.5C 823.583,721.756 822.75,722.423 821.5,722.5 Z"/></g>
<g><path style="opacity:1" fill="#565452" d="M 815.5,722.5 C 813.473,722.662 811.473,722.495 809.5,722C 812.376,719.825 814.876,717.325 817,714.5C 818.804,707.338 818.137,700.338 815,693.5C 810.884,687.356 805.051,684.189 797.5,684C 774.17,682.926 750.837,681.926 727.5,681C 612.833,680.333 498.167,680.333 383.5,681C 360.162,681.898 336.829,682.898 313.5,684C 292.977,689.216 286.977,701.716 295.5,721.5C 292.339,718.525 290.172,714.858 289,710.5C 287.897,695.891 294.397,686.391 308.5,682C 330.539,681.81 352.539,680.81 374.5,679C 504.167,678.333 633.833,678.333 763.5,679C 776.874,679.119 790.207,679.785 803.5,681C 807.947,682.39 811.947,684.556 815.5,687.5C 822.366,695.747 824.199,705.081 821,715.5C 819.649,718.335 817.816,720.669 815.5,722.5 Z"/></g>
<g><path style="opacity:1" fill="#706d6a" d="M 314.5,720.5 C 308.153,719.561 303.319,716.227 300,710.5C 297.889,701.131 301.389,695.131 310.5,692.5C 314.1,693.246 317.766,693.08 321.5,692C 334.5,691.667 347.5,691.333 360.5,691C 503.506,690.069 646.506,690.402 789.5,692C 793.469,692.853 797.469,693.519 801.5,694C 806.355,696.348 809.022,700.182 809.5,705.5C 807.135,714.687 801.135,719.854 791.5,721C 632.483,721.826 473.483,721.66 314.5,720.5 Z"/></g>
<g><path style="opacity:1" fill="#777571" d="M 323.5,692.5 C 477.834,692.333 632.167,692.5 786.5,693C 793.45,693.022 799.284,695.522 804,700.5C 806.52,706.208 805.353,711.042 800.5,715C 797.804,715.765 795.304,716.932 793,718.5C 792.586,718.043 792.086,717.709 791.5,717.5C 789.224,718.213 786.891,718.713 784.5,719C 631.5,719.667 478.5,719.667 325.5,719C 318.546,718.956 312.38,716.456 307,711.5C 304.111,705.058 305.611,699.892 311.5,696C 315.623,694.808 319.623,693.641 323.5,692.5 Z"/></g>
<g><path style="opacity:1" fill="#7d7b76" d="M 334.5,696.5 C 481.5,696.333 628.5,696.5 775.5,697C 781.231,697.21 786.897,697.876 792.5,699C 797.746,700.237 799.58,703.404 798,708.5C 796.269,710.617 794.102,712.117 791.5,713C 784.875,714.045 778.208,714.711 771.5,715C 627.167,715.667 482.833,715.667 338.5,715C 331.035,714.862 323.702,713.862 316.5,712C 313.061,709.725 311.894,706.559 313,702.5C 314.579,700.959 316.413,699.792 318.5,699C 323.956,698.055 329.289,697.222 334.5,696.5 Z"/></g>
<g><path style="opacity:1" fill="#83807b" d="M 332.5,698.5 C 481.167,698.333 629.834,698.5 778.5,699C 782.558,699.34 786.558,700.007 790.5,701C 793.458,703.128 794.124,705.794 792.5,709C 789.861,710.946 786.861,711.946 783.5,712C 631.5,712.667 479.5,712.667 327.5,712C 323.953,711.693 320.62,710.86 317.5,709.5C 316.264,706.091 317.264,703.258 320.5,701C 324.637,700.161 328.637,699.327 332.5,698.5 Z"/></g>
<g><path style="opacity:1" fill="#62605d" d="M 504.5,166.5 C 502.723,167.6 500.723,168.434 498.5,169C 500.833,169.333 503.167,169.667 505.5,170C 504.5,170.333 503.5,170.667 502.5,171C 504,171.167 505.5,171.333 507,171.5C 531.311,166.484 555.811,165.317 580.5,168C 597.052,170.909 613.385,174.576 629.5,179C 635.53,181.684 641.53,184.35 647.5,187C 648.167,188 648.833,189 649.5,190C 658.188,193.488 665.521,198.654 671.5,205.5C 680.515,210.349 688.515,216.515 695.5,224C 698.94,224.939 701.273,227.105 702.5,230.5C 705.54,232.571 708.373,234.905 711,237.5C 716.653,244.009 721.82,251.009 726.5,258.5C 728.818,259.652 730.652,261.319 732,263.5C 732.49,262.207 732.657,260.873 732.5,259.5C 749.916,287.248 760.083,317.582 763,350.5C 763.667,449.167 763.667,547.833 763,646.5C 762.167,647.333 761.333,648.167 760.5,649C 754.175,649.5 747.842,649.666 741.5,649.5C 745.016,647.9 748.016,645.566 750.5,642.5C 753.316,636.199 756.149,629.865 759,623.5C 759.667,538.833 759.667,454.167 759,369.5C 758.186,352.619 755.853,335.952 752,319.5C 747.205,306.788 742.205,294.121 737,281.5C 725.632,257.435 709.298,237.102 688,220.5C 687.517,219.552 687.351,218.552 687.5,217.5C 685.266,216.296 682.933,215.13 680.5,214C 677.378,210.082 673.378,207.249 668.5,205.5C 665.085,201.622 661.085,198.455 656.5,196C 604.386,167.82 549.719,161.987 492.5,178.5C 489.675,180.465 486.675,182.299 483.5,184C 475.462,185.679 467.796,188.346 460.5,192C 440.012,203.315 421.678,217.482 405.5,234.5C 409.504,229.818 413.17,224.818 416.5,219.5C 426.833,212 437.167,204.5 447.5,197C 460.099,191.036 472.765,185.036 485.5,179C 493.355,176.449 501.355,174.449 509.5,173C 505.709,172.409 502.042,172.909 498.5,174.5C 497.833,174.333 497.167,174.167 496.5,174C 498.087,173.138 499.754,172.471 501.5,172C 499.339,171.415 497.339,170.582 495.5,169.5C 498.084,167.528 501.084,166.528 504.5,166.5 Z"/></g>
<g><path style="opacity:1" fill="#63615e" d="M 359.5,299.5 C 359.414,300.496 359.748,301.329 360.5,302C 358,302.833 357.833,304 360,305.5C 361.087,303.068 361.587,303.402 361.5,306.5C 359.652,314.546 357.485,322.546 355,330.5C 353.338,339.451 352.005,348.451 351,357.5C 350.333,446.167 350.333,534.833 351,623.5C 354.369,633.374 360.535,641.04 369.5,646.5C 370.386,647.325 370.719,648.325 370.5,649.5C 363.492,649.666 356.492,649.5 349.5,649C 349,648.5 348.5,648 348,647.5C 347.333,548.833 347.333,450.167 348,351.5C 349.243,333.444 353.077,316.11 359.5,299.5 Z"/></g>
<g><path style="opacity:1" fill="#5a5856" d="M 732.5,259.5 C 732.657,260.873 732.49,262.207 732,263.5C 730.652,261.319 728.818,259.652 726.5,258.5C 721.82,251.009 716.653,244.009 711,237.5C 708.373,234.905 705.54,232.571 702.5,230.5C 701.273,227.105 698.94,224.939 695.5,224C 688.515,216.515 680.515,210.349 671.5,205.5C 665.521,198.654 658.188,193.488 649.5,190C 648.833,189 648.167,188 647.5,187C 641.53,184.35 635.53,181.684 629.5,179C 613.385,174.576 597.052,170.909 580.5,168C 555.811,165.317 531.311,166.484 507,171.5C 505.5,171.333 504,171.167 502.5,171C 503.5,170.667 504.5,170.333 505.5,170C 503.167,169.667 500.833,169.333 498.5,169C 500.723,168.434 502.723,167.6 504.5,166.5C 573.564,151.172 635.564,165.672 690.5,210C 707.279,224.268 721.279,240.768 732.5,259.5 Z"/></g>
<g><path style="opacity:1" fill="#676562" d="M 741.5,649.5 C 617.833,649.5 494.167,649.5 370.5,649.5C 370.719,648.325 370.386,647.325 369.5,646.5C 360.535,641.04 354.369,633.374 351,623.5C 350.333,534.833 350.333,446.167 351,357.5C 352.005,348.451 353.338,339.451 355,330.5C 357.485,322.546 359.652,314.546 361.5,306.5C 364.75,297.013 368.416,287.68 372.5,278.5C 373.675,278.719 374.675,278.386 375.5,277.5C 377.559,274.051 379.059,270.384 380,266.5C 387.095,255.411 394.928,244.911 403.5,235C 404.094,234.536 404.761,234.369 405.5,234.5C 421.678,217.482 440.012,203.315 460.5,192C 467.796,188.346 475.462,185.679 483.5,184C 486.675,182.299 489.675,180.465 492.5,178.5C 549.719,161.987 604.386,167.82 656.5,196C 661.085,198.455 665.085,201.622 668.5,205.5C 673.378,207.249 677.378,210.082 680.5,214C 682.933,215.13 685.266,216.296 687.5,217.5C 687.351,218.552 687.517,219.552 688,220.5C 709.298,237.102 725.632,257.435 737,281.5C 742.205,294.121 747.205,306.788 752,319.5C 755.853,335.952 758.186,352.619 759,369.5C 759.667,454.167 759.667,538.833 759,623.5C 756.149,629.865 753.316,636.199 750.5,642.5C 748.016,645.566 745.016,647.9 741.5,649.5 Z"/></g>
<g><path style="opacity:1" fill="#797773" d="M 426.5,227.5 C 415.791,237.71 405.957,248.71 397,260.5C 391.332,270.688 385.832,281.021 380.5,291.5C 379.758,292.287 378.925,292.953 378,293.5C 368.289,314.693 362.622,337.026 361,360.5C 360.333,447.5 360.333,534.5 361,621.5C 362.135,625.905 363.468,630.238 365,634.5C 369.294,639.51 374.794,642.01 381.5,642C 497.5,642.667 613.5,642.667 729.5,642C 741,639.833 747.833,633 750,621.5C 750.693,610.175 751.193,598.842 751.5,587.5C 750.715,514.17 750.215,440.837 750,367.5C 749.333,360.167 748.667,352.833 748,345.5C 744.899,336.763 742.899,327.763 742,318.5C 739.183,310.378 736.183,302.378 733,294.5C 727.803,285.356 723.303,276.023 719.5,266.5C 722.557,270.258 725.39,274.258 728,278.5C 732.255,287.347 736.255,296.347 740,305.5C 744.628,318.155 747.962,330.822 750,343.5C 751.023,349.793 751.689,356.126 752,362.5C 752.685,447.501 753.018,532.501 753,617.5C 752.139,623.278 750.806,628.944 749,634.5C 747.878,636.624 746.378,638.457 744.5,640C 738.077,642.606 731.41,644.272 724.5,645C 611.833,645.667 499.167,645.667 386.5,645C 368.333,644.167 358.833,634.667 358,616.5C 357.333,534.833 357.333,453.167 358,371.5C 358.791,352.427 361.625,333.761 366.5,315.5C 370.278,306.197 374.278,296.863 378.5,287.5C 379.242,286.713 380.075,286.047 381,285.5C 383.923,279.985 386.59,274.318 389,268.5C 393.169,262.834 396.835,256.834 400,250.5C 406.688,242.646 413.855,235.313 421.5,228.5C 423.117,227.962 424.784,227.629 426.5,227.5 Z"/></g>
<g><path style="opacity:1" fill="#726f6c" d="M 662.5,206.5 C 665.016,206.755 667.35,207.589 669.5,209C 686.701,220.868 701.201,235.368 713,252.5C 716,254.167 718.333,256.5 720,259.5C 735.847,285.543 747.013,313.543 753.5,343.5C 754.597,351.805 755.431,360.139 756,368.5C 756.667,453.5 756.667,538.5 756,623.5C 752.808,638.358 743.641,646.525 728.5,648C 612.833,648.667 497.167,648.667 381.5,648C 378.471,647.461 375.471,646.794 372.5,646C 370.416,645.303 368.749,644.136 367.5,642.5C 366.218,639.383 364.051,637.05 361,635.5C 358.206,630.536 356.539,625.203 356,619.5C 355.333,535.167 355.333,450.833 356,366.5C 356.139,348.614 359.639,331.614 366.5,315.5C 361.625,333.761 358.791,352.427 358,371.5C 357.333,453.167 357.333,534.833 358,616.5C 358.833,634.667 368.333,644.167 386.5,645C 499.167,645.667 611.833,645.667 724.5,645C 731.41,644.272 738.077,642.606 744.5,640C 746.378,638.457 747.878,636.624 749,634.5C 750.806,628.944 752.139,623.278 753,617.5C 753.018,532.501 752.685,447.501 752,362.5C 751.689,356.126 751.023,349.793 750,343.5C 747.962,330.822 744.628,318.155 740,305.5C 736.255,296.347 732.255,287.347 728,278.5C 725.39,274.258 722.557,270.258 719.5,266.5C 714.62,261.1 710.453,255.1 707,248.5C 705.255,247.044 703.422,245.711 701.5,244.5C 699.234,240.529 696.567,236.862 693.5,233.5C 683.319,226.137 673.652,218.303 664.5,210C 639.219,195.473 612.553,185.14 584.5,179C 541.421,172.62 501.088,179.953 463.5,201C 454.512,204.331 446.179,208.998 438.5,215C 434.628,219.405 430.628,223.572 426.5,227.5C 424.784,227.629 423.117,227.962 421.5,228.5C 428.979,222.106 435.979,215.273 442.5,208C 453.281,203.11 463.615,197.444 473.5,191C 539.111,166.164 602.111,171.33 662.5,206.5 Z"/></g>
<g><path style="opacity:1" fill="#7f7c78" d="M 719.5,266.5 C 723.303,276.023 727.803,285.356 733,294.5C 736.183,302.378 739.183,310.378 742,318.5C 742.899,327.763 744.899,336.763 748,345.5C 748.667,352.833 749.333,360.167 750,367.5C 750.215,440.837 750.715,514.17 751.5,587.5C 751.193,598.842 750.693,610.175 750,621.5C 747.833,633 741,639.833 729.5,642C 613.5,642.667 497.5,642.667 381.5,642C 374.794,642.01 369.294,639.51 365,634.5C 363.468,630.238 362.135,625.905 361,621.5C 360.333,534.5 360.333,447.5 361,360.5C 362.622,337.026 368.289,314.693 378,293.5C 378.925,292.953 379.758,292.287 380.5,291.5C 385.832,281.021 391.332,270.688 397,260.5C 405.957,248.71 415.791,237.71 426.5,227.5C 430.628,223.572 434.628,219.405 438.5,215C 446.179,208.998 454.512,204.331 463.5,201C 501.088,179.953 541.421,172.62 584.5,179C 612.553,185.14 639.219,195.473 664.5,210C 673.652,218.303 683.319,226.137 693.5,233.5C 696.567,236.862 699.234,240.529 701.5,244.5C 703.422,245.711 705.255,247.044 707,248.5C 710.453,255.1 714.62,261.1 719.5,266.5 Z"/></g>
<g><path style="opacity:1" fill="#86837e" d="M 541.5,182.5 C 620.382,180.125 680.549,212.125 722,278.5C 726.809,287.633 731.143,296.967 735,306.5C 742.048,324.821 746.048,343.821 747,363.5C 747.274,435.835 747.774,508.169 748.5,580.5C 748.544,594.191 748.044,607.858 747,621.5C 744.463,630.703 738.63,636.537 729.5,639C 720.847,639.737 712.18,640.237 703.5,640.5C 605,639.168 506.5,639.168 408,640.5C 399.152,640.261 390.319,639.761 381.5,639C 367.126,634.123 360.959,623.956 363,608.5C 362.333,533.5 362.333,458.5 363,383.5C 362.253,315.848 388.086,261.348 440.5,220C 470.652,197.92 504.318,185.42 541.5,182.5 Z"/></g>
<g><path style="opacity:1" fill="#8e8b85" d="M 539.5,187.5 C 600.52,183.88 652.02,203.88 694,247.5C 698.035,253.366 702.868,258.366 708.5,262.5C 728.912,291.559 740.746,323.892 744,359.5C 744.95,445.499 745.284,531.499 745,617.5C 743.041,629.126 736.207,635.626 724.5,637C 611.5,637.667 498.5,637.667 385.5,637C 374.342,635.176 367.842,628.676 366,617.5C 365.333,533.833 365.333,450.167 366,366.5C 369.595,310.478 392.429,264.312 434.5,228C 438.277,227.223 441.611,225.556 444.5,223C 446.422,221.58 447.755,219.747 448.5,217.5C 460.378,211.394 472.378,205.561 484.5,200C 502.434,193.473 520.767,189.306 539.5,187.5 Z"/></g>
<g><path style="opacity:1" fill="#5b5856" d="M 495.5,169.5 C 497.339,170.582 499.339,171.415 501.5,172C 499.754,172.471 498.087,173.138 496.5,174C 497.167,174.167 497.833,174.333 498.5,174.5C 502.042,172.909 505.709,172.409 509.5,173C 501.355,174.449 493.355,176.449 485.5,179C 472.765,185.036 460.099,191.036 447.5,197C 437.167,204.5 426.833,212 416.5,219.5C 413.17,224.818 409.504,229.818 405.5,234.5C 404.761,234.369 404.094,234.536 403.5,235C 394.928,244.911 387.095,255.411 380,266.5C 379.059,270.384 377.559,274.051 375.5,277.5C 374.675,278.386 373.675,278.719 372.5,278.5C 368.416,287.68 364.75,297.013 361.5,306.5C 361.587,303.402 361.087,303.068 360,305.5C 357.833,304 358,302.833 360.5,302C 359.748,301.329 359.414,300.496 359.5,299.5C 380.315,242.18 418.648,201.013 474.5,176C 481.312,173.117 488.312,170.951 495.5,169.5 Z"/></g>
<g><path style="opacity:1" fill="#94918b" d="M 539.5,192.5 C 607.135,187.125 661.968,211.125 704,264.5C 728.205,299.632 740.205,338.632 740,381.5C 740.667,459.5 740.667,537.5 740,615.5C 739.051,625.571 733.551,631.071 723.5,632C 717.333,632.167 711.167,632.333 705,632.5C 605.333,629.833 505.667,629.833 406,632.5C 397.029,632.854 388.196,632.02 379.5,630C 374.196,626.679 371.363,621.846 371,615.5C 370.333,532.5 370.333,449.5 371,366.5C 376.518,298.84 407.684,247.674 464.5,213C 488,200.554 513,193.721 539.5,192.5 Z"/></g>
<g><path style="opacity:1" fill="#8e8b85" d="M 547.5,200.5 C 563.553,198.966 578.553,202.132 592.5,210C 602.102,216.94 608.602,226.107 612,237.5C 614.205,250.086 615.872,262.753 617,275.5C 618.152,279.487 620.318,282.82 623.5,285.5C 631.231,288.375 639.064,289.375 647,288.5C 659.783,288.613 672.283,290.447 684.5,294C 696.333,299.167 704.833,307.667 710,319.5C 716.978,343.568 715.145,366.902 704.5,389.5C 699.001,393.502 694.001,398.002 689.5,403C 682.494,406.168 675.161,408.168 667.5,409C 655.843,409.833 644.176,410.5 632.5,411C 621.533,412.721 616.033,419.221 616,430.5C 615.333,462.5 615.333,494.5 616,526.5C 616.09,537.237 621.256,543.737 631.5,546C 648.042,545.887 664.375,547.554 680.5,551C 703.491,560.47 710.324,576.637 701,599.5C 694.995,608.414 686.828,614.247 676.5,617C 663.634,619.489 650.634,620.822 637.5,621C 588.167,621.667 538.833,621.667 489.5,621C 474.149,620.708 458.816,620.041 443.5,619C 427.169,616.926 415.002,608.759 407,594.5C 402.005,578.633 406.172,565.8 419.5,556C 425.067,553.26 430.733,550.927 436.5,549C 450.78,547.249 465.113,546.249 479.5,546C 488.584,544.248 493.418,538.748 494,529.5C 494.667,495.167 494.667,460.833 494,426.5C 493.032,416.532 487.532,411.366 477.5,411C 413.402,416.549 387.235,387.382 399,323.5C 399.668,319.501 401.835,316.668 405.5,315C 404.483,313.951 404.316,312.784 405,311.5C 414.458,298.516 427.291,291.349 443.5,290C 450.006,289.571 456.506,289.071 463,288.5C 471.338,289.459 479.505,288.292 487.5,285C 490.467,282.9 492.3,280.066 493,276.5C 494.478,265.197 495.812,253.864 497,242.5C 503.822,216.353 520.655,202.353 547.5,200.5 Z"/></g>
<g><path style="opacity:1" fill="#86837e" d="M 542.5,205.5 C 550.642,205.525 558.809,205.525 567,205.5C 576.838,206.849 586.005,210.516 594.5,216.5C 598.821,222.463 602.654,228.796 606,235.5C 607.156,239.123 608.156,242.789 609,246.5C 609.449,259.021 611.116,271.355 614,283.5C 616.167,285.667 618.333,287.833 620.5,290C 623.44,291.152 626.44,292.152 629.5,293C 646.736,292.554 663.736,294.221 680.5,298C 686.535,300.71 692.035,304.21 697,308.5C 705.946,320.596 710.113,334.263 709.5,349.5C 709.067,359.767 707.234,369.767 704,379.5C 697.692,392.248 687.525,400.082 673.5,403C 658.904,404.95 644.238,405.95 629.5,406C 617.065,408.78 610.898,416.614 611,429.5C 610.333,462.167 610.333,494.833 611,527.5C 611.263,532.005 612.263,536.339 614,540.5C 616.5,543.667 619,546.833 621.5,550C 638.477,551.651 655.477,552.984 672.5,554C 697.003,560.451 704.503,575.285 695,598.5C 683.481,609.518 669.647,614.684 653.5,614C 589.167,615.968 524.834,615.968 460.5,614C 446.373,614.773 433.373,611.44 421.5,604C 411.925,596.376 408.758,586.543 412,574.5C 417.281,563.234 426.115,556.4 438.5,554C 454.217,553.1 469.883,551.766 485.5,550C 493.52,546.48 498.02,540.313 499,531.5C 499.667,496.167 499.667,460.833 499,425.5C 497.634,414.467 491.468,407.967 480.5,406C 465.763,405.95 451.096,404.95 436.5,403C 415.699,397.525 404.199,384.025 402,362.5C 398.888,343.825 402.221,326.492 412,310.5C 420.404,301.638 430.404,296.304 442,294.5C 455.402,292.896 468.902,291.729 482.5,291C 488.817,289.353 493.317,285.52 496,279.5C 497.543,266.475 499.209,253.475 501,240.5C 507.713,220.247 521.546,208.581 542.5,205.5 Z"/></g>
<g><path style="opacity:1" fill="#7f7b77" d="M 545.5,209.5 C 564.393,207.436 581.227,212.103 596,223.5C 599.779,228.723 602.779,234.39 605,240.5C 606.912,251.755 608.246,263.089 609,274.5C 611.055,287.885 618.888,295.052 632.5,296C 642.167,296.333 651.833,296.667 661.5,297C 688.779,298.281 703.612,312.448 706,339.5C 708.122,356.234 705.122,371.901 697,386.5C 687.403,396.487 675.569,401.654 661.5,402C 649.486,402.425 637.486,403.092 625.5,404C 615.592,407.245 610.092,414.079 609,424.5C 608.333,460.833 608.333,497.167 609,533.5C 609.976,542.303 614.476,548.469 622.5,552C 637.777,553.798 653.111,555.131 668.5,556C 679.699,557.896 688.532,563.396 695,572.5C 699.109,588.175 693.942,599.675 679.5,607C 671.345,609.456 663.011,610.789 654.5,611C 584.484,613.202 514.484,612.869 444.5,610C 427.081,608.744 416.748,599.578 413.5,582.5C 414.743,575.659 417.41,569.493 421.5,564C 426.328,561.085 431.328,558.418 436.5,556C 452.509,555.133 468.509,554.133 484.5,553C 497.999,548.545 503.833,539.045 502,524.5C 502.667,494.167 502.667,463.833 502,433.5C 501.739,426.595 500.405,419.928 498,413.5C 494.833,411.667 492.333,409.167 490.5,406C 488.392,405.64 486.392,404.973 484.5,404C 472.846,403.112 461.18,402.445 449.5,402C 425.285,401.414 410.452,389.58 405,366.5C 401.94,348.018 404.274,330.352 412,313.5C 415.195,312.149 417.028,309.815 417.5,306.5C 425.142,302.855 433.142,300.022 441.5,298C 453.468,296.858 465.468,296.192 477.5,296C 481.928,295.413 486.261,294.413 490.5,293C 494.367,289.274 497.534,285.108 500,280.5C 501.773,269.221 503.107,257.887 504,246.5C 507.089,229.791 516.589,218.624 532.5,213C 537.042,212.133 541.375,210.967 545.5,209.5 Z"/></g>
<g><path style="opacity:1" fill="#726f6c" d="M 422.5,586.5 C 425.032,587.596 427.365,588.929 429.5,590.5C 429.062,590.435 428.728,590.601 428.5,591C 432.492,595.654 437.492,598.654 443.5,600C 459.337,601.831 475.17,602.998 491,603.5C 544.759,603.837 598.592,603.337 652.5,602C 664.405,601.54 675.072,598.04 684.5,591.5C 683.101,594.736 681.101,597.57 678.5,600C 673.754,602.416 668.754,604.083 663.5,605C 591.503,608.292 519.503,608.292 447.5,605C 438.635,603.399 430.635,599.899 423.5,594.5C 421.401,591.934 421.068,589.267 422.5,586.5 Z"/></g>
<g><path style="opacity:1" fill="#666461" d="M 429.5,590.5 C 433.833,590.5 438.167,590.5 442.5,590.5C 442.082,591.222 441.416,591.722 440.5,592C 445.633,594.156 450.967,595.489 456.5,596C 525.206,600.937 593.873,600.604 662.5,595C 665.089,593.803 667.756,592.803 670.5,592C 669.944,591.617 669.611,591.117 669.5,590.5C 673.5,590.5 677.5,590.5 681.5,590.5C 682.791,590.263 683.791,590.596 684.5,591.5C 675.072,598.04 664.405,601.54 652.5,602C 598.592,603.337 544.759,603.837 491,603.5C 475.17,602.998 459.337,601.831 443.5,600C 437.492,598.654 432.492,595.654 428.5,591C 428.728,590.601 429.062,590.435 429.5,590.5 Z"/></g>
<g><path style="opacity:1" fill="#5f5c5a" d="M 442.5,590.5 C 518.167,590.5 593.833,590.5 669.5,590.5C 669.611,591.117 669.944,591.617 670.5,592C 667.756,592.803 665.089,593.803 662.5,595C 593.873,600.604 525.206,600.937 456.5,596C 450.967,595.489 445.633,594.156 440.5,592C 441.416,591.722 442.082,591.222 442.5,590.5 Z"/></g>
<g><path style="opacity:1" fill="#555351" d="M 456.5,591.5 C 525.167,591.333 593.834,591.5 662.5,592C 597.048,597.384 531.548,597.884 466,593.5C 462.424,593.485 459.258,592.818 456.5,591.5 Z"/></g>
<g><path style="opacity:1" fill="#53514f" d="M 594.5,382.5 C 620.167,382.5 645.833,382.5 671.5,382.5C 668.275,383.65 664.942,384.816 661.5,386C 647.112,386.069 632.779,386.736 618.5,388C 608.492,390.826 600.992,396.659 596,405.5C 594.848,429.439 594.348,453.439 594.5,477.5C 594.667,500.5 594.833,523.5 595,546.5C 595.662,548.813 596.162,551.146 596.5,553.5C 597.675,553.281 598.675,553.614 599.5,554.5C 601.491,557.817 603.824,560.817 606.5,563.5C 602.818,563.665 599.152,563.499 595.5,563C 595,562.5 594.5,562 594,561.5C 593.168,501.665 593.335,441.999 594.5,382.5 Z"/></g>
<g><path style="opacity:1" fill="#5f5d5b" d="M 671.5,382.5 C 673.833,382.5 676.167,382.5 678.5,382.5C 674.083,384.53 669.417,386.197 664.5,387.5C 650.14,388.108 635.807,388.942 621.5,390C 617.243,393.473 612.576,396.473 607.5,399C 604.765,402.343 601.931,405.509 599,408.5C 597.189,412.988 596.189,417.654 596,422.5C 595.333,459.5 595.333,496.5 596,533.5C 597.573,545.456 603.406,554.956 613.5,562C 611.618,562.198 609.952,562.698 608.5,563.5C 607.833,563.5 607.167,563.5 606.5,563.5C 603.824,560.817 601.491,557.817 599.5,554.5C 598.675,553.614 597.675,553.281 596.5,553.5C 596.162,551.146 595.662,548.813 595,546.5C 594.833,523.5 594.667,500.5 594.5,477.5C 594.348,453.439 594.848,429.439 596,405.5C 600.992,396.659 608.492,390.826 618.5,388C 632.779,386.736 647.112,386.069 661.5,386C 664.942,384.816 668.275,383.65 671.5,382.5 Z"/></g>
<g><path style="opacity:1" fill="#615f5c" d="M 428.5,381.5 C 457.005,381.169 485.338,381.502 513.5,382.5C 490.164,382.333 466.831,382.5 443.5,383C 458.511,383.167 473.511,383.667 488.5,384.5C 491.062,385.641 493.728,386.474 496.5,387C 497.648,388.649 498.981,390.149 500.5,391.5C 508.133,394.422 513.299,399.755 516,407.5C 516.667,452.167 516.667,496.833 516,541.5C 513.333,547.5 510.667,553.5 508,559.5C 506.373,560.532 505.207,561.866 504.5,563.5C 503.167,563.5 501.833,563.5 500.5,563.5C 499.737,562.732 498.737,562.232 497.5,562C 500,560.833 502.5,559.667 505,558.5C 505.333,557.167 505.667,555.833 506,554.5C 510.768,550.298 513.434,544.965 514,538.5C 514.667,498.5 514.667,458.5 514,418.5C 513.245,413.465 511.579,408.798 509,404.5C 504.43,400.256 499.597,396.422 494.5,393C 477.505,391.957 460.505,390.957 443.5,390C 437.178,388.672 431.511,386.005 426.5,382C 427.094,381.536 427.761,381.369 428.5,381.5 Z"/></g>
<g><path style="opacity:1" fill="#53504f" d="M 513.5,382.5 C 515.017,382.511 516.184,383.177 517,384.5C 517.667,443.5 517.667,502.5 517,561.5C 513.078,563.312 508.911,563.979 504.5,563.5C 505.207,561.866 506.373,560.532 508,559.5C 510.667,553.5 513.333,547.5 516,541.5C 516.667,496.833 516.667,452.167 516,407.5C 513.299,399.755 508.133,394.422 500.5,391.5C 498.981,390.149 497.648,388.649 496.5,387C 493.728,386.474 491.062,385.641 488.5,384.5C 473.511,383.667 458.511,383.167 443.5,383C 466.831,382.5 490.164,382.333 513.5,382.5 Z"/></g>
<g><path style="opacity:1" fill="#676562" d="M 620.5,563.5 C 616.5,563.5 612.5,563.5 608.5,563.5C 609.952,562.698 611.618,562.198 613.5,562C 603.406,554.956 597.573,545.456 596,533.5C 595.333,496.5 595.333,459.5 596,422.5C 596.189,417.654 597.189,412.988 599,408.5C 601.931,405.509 604.765,402.343 607.5,399C 612.576,396.473 617.243,393.473 621.5,390C 635.807,388.942 650.14,388.108 664.5,387.5C 669.417,386.197 674.083,384.53 678.5,382.5C 680.403,382.204 682.07,381.537 683.5,380.5C 688.636,378.249 691.302,374.249 691.5,368.5C 692.331,353.672 692.831,338.672 693,323.5C 696.618,331.757 698.451,340.423 698.5,349.5C 700.041,364.645 695.375,377.312 684.5,387.5C 682.176,388.662 679.842,389.829 677.5,391C 670.89,391.78 664.39,392.947 658,394.5C 644.401,392.869 630.901,393.702 617.5,397C 609.216,400.621 603.716,406.788 601,415.5C 599.362,455.795 599.029,496.128 600,536.5C 603.373,553.878 613.873,562.378 631.5,562C 627.644,562.177 623.977,562.677 620.5,563.5 Z"/></g>
<g><path style="opacity:1" fill="#73706d" d="M 691.5,314.5 C 698.605,324.728 701.939,336.228 701.5,349C 702.977,367.461 696.31,381.961 681.5,392.5C 678.291,393.215 675.291,394.382 672.5,396C 658.859,397.118 645.193,397.784 631.5,398C 616.482,398.566 607.315,406.066 604,420.5C 602.008,459.166 602.008,497.833 604,536.5C 606.943,551.411 616.11,558.911 631.5,559C 644.558,559.382 657.558,560.382 670.5,562C 667.964,562.186 665.631,562.686 663.5,563.5C 649.167,563.5 634.833,563.5 620.5,563.5C 623.977,562.677 627.644,562.177 631.5,562C 613.873,562.378 603.373,553.878 600,536.5C 599.029,496.128 599.362,455.795 601,415.5C 603.716,406.788 609.216,400.621 617.5,397C 630.901,393.702 644.401,392.869 658,394.5C 664.39,392.947 670.89,391.78 677.5,391C 679.842,389.829 682.176,388.662 684.5,387.5C 695.375,377.312 700.041,364.645 698.5,349.5C 698.451,340.423 696.618,331.757 693,323.5C 692.831,338.672 692.331,353.672 691.5,368.5C 691.5,350.5 691.5,332.5 691.5,314.5 Z"/></g>
<g><path style="opacity:1" fill="#797672" d="M 420.5,312.5 C 419.526,331.12 419.192,349.787 419.5,368.5C 418.668,351.672 418.168,334.672 418,317.5C 412.451,326.534 410.284,336.368 411.5,347C 410.274,359.547 413.107,371.047 420,381.5C 426.743,387.623 434.577,391.789 443.5,394C 459.828,395.046 476.162,396.046 492.5,397C 503.999,401.519 509.499,410.019 509,422.5C 509.167,441 509.333,459.5 509.5,478C 509.619,499.195 509.119,520.361 508,541.5C 505.978,549.052 501.478,554.552 494.5,558C 480.93,560.27 467.263,561.603 453.5,562C 466.007,562.169 478.34,562.669 490.5,563.5C 470.833,563.5 451.167,563.5 431.5,563.5C 429.158,563.225 429.158,562.392 431.5,561C 434.5,560 437.5,559 440.5,558C 454.429,556.079 468.429,555.079 482.5,555C 493.093,552.736 500.259,546.569 504,536.5C 504.667,498.167 504.667,459.833 504,421.5C 503.649,417.444 502.315,413.777 500,410.5C 494.799,406.316 488.965,403.316 482.5,401.5C 467.808,400.665 453.141,399.498 438.5,398C 419.686,392.566 409.186,380.066 407,360.5C 404.945,344.782 407.278,329.782 414,315.5C 416.062,313.367 418.229,312.367 420.5,312.5 Z"/></g>
<g><path style="opacity:1" fill="#7f7c7b" d="M 683.5,380.5 C 682.07,381.537 680.403,382.204 678.5,382.5C 676.167,382.5 673.833,382.5 671.5,382.5C 645.833,382.5 620.167,382.5 594.5,382.5C 624.02,381.802 653.687,381.135 683.5,380.5 Z"/></g>
<g><path style="opacity:1" fill="#6a6764" d="M 419.5,368.5 C 419.797,374.777 422.797,379.11 428.5,381.5C 427.761,381.369 427.094,381.536 426.5,382C 431.511,386.005 437.178,388.672 443.5,390C 460.505,390.957 477.505,391.957 494.5,393C 499.597,396.422 504.43,400.256 509,404.5C 511.579,408.798 513.245,413.465 514,418.5C 514.667,458.5 514.667,498.5 514,538.5C 513.434,544.965 510.768,550.298 506,554.5C 505.667,555.833 505.333,557.167 505,558.5C 502.5,559.667 500,560.833 497.5,562C 498.737,562.232 499.737,562.732 500.5,563.5C 497.167,563.5 493.833,563.5 490.5,563.5C 478.34,562.669 466.007,562.169 453.5,562C 467.263,561.603 480.93,560.27 494.5,558C 501.478,554.552 505.978,549.052 508,541.5C 509.119,520.361 509.619,499.195 509.5,478C 509.333,459.5 509.167,441 509,422.5C 509.499,410.019 503.999,401.519 492.5,397C 476.162,396.046 459.828,395.046 443.5,394C 434.577,391.789 426.743,387.623 420,381.5C 413.107,371.047 410.274,359.547 411.5,347C 410.284,336.368 412.451,326.534 418,317.5C 418.168,334.672 418.668,351.672 419.5,368.5 Z"/></g>
<g><path style="opacity:1" fill="#9a9791" d="M 497.5,205.5 C 501.219,205.002 504.553,205.836 507.5,208C 502.574,215.456 498.408,223.29 495,231.5C 491.963,246.403 489.63,261.403 488,276.5C 485.736,279.433 482.902,281.6 479.5,283C 466.199,284.314 452.866,285.314 439.5,286C 421.69,288.03 407.524,296.197 397,310.5C 392.157,319.842 389.991,329.842 390.5,340.5C 389.589,358.177 393.089,374.844 401,390.5C 410.064,403.459 422.564,410.959 438.5,413C 450.161,413.772 461.827,414.438 473.5,415C 483.709,415.875 489.209,421.375 490,431.5C 490.667,462.833 490.667,494.167 490,525.5C 489.293,535.207 484.126,540.707 474.5,542C 457.148,541.27 440.148,543.27 423.5,548C 398.899,561.481 393.232,580.648 406.5,605.5C 412.199,610.865 417.533,616.531 422.5,622.5C 421.91,623.799 420.91,624.632 419.5,625C 407.081,629.119 394.748,629.119 382.5,625C 377.422,621.583 374.922,616.75 375,610.5C 374.333,533.167 374.333,455.833 375,378.5C 375.513,365.342 377.179,352.342 380,339.5C 386.868,318.9 394.535,298.567 403,278.5C 421.949,248.55 447.449,226.05 479.5,211C 485.495,208.818 491.495,206.985 497.5,205.5 Z"/></g>
<g><path style="opacity:1" fill="#a09d97" d="M 382.5,366.5 C 383.675,366.281 384.675,366.614 385.5,367.5C 389.418,381.785 396.418,394.285 406.5,405C 415.946,412.044 426.612,416.377 438.5,418C 451.595,418.003 464.595,419.003 477.5,421C 481.408,422.576 483.908,425.409 485,429.5C 485.667,462.167 485.667,494.833 485,527.5C 483.387,533.447 479.553,536.947 473.5,538C 456.93,537.597 440.597,539.264 424.5,543C 398.381,553.115 389.215,571.615 397,598.5C 400.148,605.282 403.648,611.782 407.5,618C 407.18,619.653 406.18,620.653 404.5,621C 397.255,623.378 390.255,622.878 383.5,619.5C 381.806,617.446 380.639,615.112 380,612.5C 379.333,535.833 379.333,459.167 380,382.5C 380.882,377.161 381.715,371.827 382.5,366.5 Z"/></g>
<g><path style="opacity:1" fill="#9a9791" d="M 606.5,205.5 C 619.648,206.828 631.981,210.661 643.5,217C 670.217,232.383 691.717,253.216 708,279.5C 715.745,296.752 722.745,314.418 729,332.5C 732.814,346.237 734.814,360.237 735,374.5C 735.669,453.168 736.002,531.834 736,610.5C 735.599,618.896 731.432,624.396 723.5,627C 712.723,628.693 702.057,628.027 691.5,625C 690.09,624.632 689.09,623.799 688.5,622.5C 694.491,616.007 700.324,609.34 706,602.5C 717.237,573.141 707.737,553.974 677.5,545C 663.915,543.015 650.248,542.015 636.5,542C 628.352,541.512 623.185,537.345 621,529.5C 620.02,494.44 620.354,459.44 622,424.5C 623.869,419.649 627.369,416.816 632.5,416C 645.791,414.616 659.125,413.616 672.5,413C 692.63,410.545 706.464,400.045 714,381.5C 720.453,359.674 721.12,337.674 716,315.5C 706.114,297.791 690.947,287.957 670.5,286C 657.142,285.244 643.809,284.244 630.5,283C 625.6,281.098 622.433,277.598 621,272.5C 621.675,249.182 615.842,227.849 603.5,208.5C 604.34,207.265 605.34,206.265 606.5,205.5 Z"/></g>
<g><path style="opacity:1" fill="#9f9d97" d="M 725.5,365.5 C 726.497,365.47 727.164,365.97 727.5,367C 729.542,376.041 730.708,385.207 731,394.5C 731.667,467.167 731.667,539.833 731,612.5C 728.592,619.962 723.425,623.295 715.5,622.5C 712.076,622.518 708.743,622.018 705.5,621C 704.196,620.196 703.529,619.029 703.5,617.5C 707.601,610.298 711.434,602.965 715,595.5C 720.249,569.823 710.749,552.323 686.5,543C 670.398,539.264 654.065,537.597 637.5,538C 630.512,536.6 626.345,532.434 625,525.5C 623.448,498.188 623.115,470.854 624,443.5C 624.307,438.118 624.974,432.785 626,427.5C 627.5,424.667 629.667,422.5 632.5,421C 647.127,419.207 661.794,417.873 676.5,417C 694.07,414.134 707.237,404.967 716,389.5C 719.86,381.749 723.027,373.749 725.5,365.5 Z"/></g>
<g><path style="opacity:1" fill="#5c5a58" d="M 593.5,242.5 C 594.847,256.332 596.013,270.332 597,284.5C 597.919,288.518 599.586,292.185 602,295.5C 605.566,298.699 609.4,301.533 613.5,304C 611.942,304.21 610.609,304.71 609.5,305.5C 604.821,305.666 600.155,305.499 595.5,305C 594.619,304.292 593.953,303.458 593.5,302.5C 593.5,282.5 593.5,262.5 593.5,242.5 Z"/></g>
<g><path style="opacity:1" fill="#7b7875" d="M 680.5,305.5 C 660.167,305.5 639.833,305.5 619.5,305.5C 632.66,304.669 645.994,304.169 659.5,304C 646.5,303.667 633.5,303.333 620.5,303C 612.546,300.712 606.713,295.878 603,288.5C 601.318,274.684 599.818,260.851 598.5,247C 595.392,242.338 593.892,237.172 594,231.5C 593.501,235.152 593.335,238.818 593.5,242.5C 593.5,262.5 593.5,282.5 593.5,302.5C 592.668,277.67 592.168,252.67 592,227.5C 591.487,226.473 590.987,225.473 590.5,224.5C 590.783,223.711 591.283,223.044 592,222.5C 594.409,226.304 597.076,229.97 600,233.5C 601.485,238.44 602.819,243.44 604,248.5C 604.823,259.52 605.823,270.52 607,281.5C 610.04,290.542 616.207,296.042 625.5,298C 642.496,297.875 659.329,299.375 676,302.5C 678.199,303.586 679.699,304.586 680.5,305.5 Z"/></g>
<g><path style="opacity:1" fill="#686562" d="M 517.5,244.5 C 516.539,248.335 515.705,252.335 515,256.5C 514.859,266.216 514.193,275.883 513,285.5C 509.86,293.148 504.693,299.148 497.5,303.5C 498.602,304.176 499.602,304.842 500.5,305.5C 498.5,305.5 496.5,305.5 494.5,305.5C 493.048,304.698 491.382,304.198 489.5,304C 492.963,301.602 496.63,299.768 500.5,298.5C 503.912,292.008 507.078,285.341 510,278.5C 510.811,266.483 511.811,254.483 513,242.5C 516.987,230.625 518.487,231.292 517.5,244.5 Z"/></g>
<g><path style="opacity:1" fill="#7b7874" d="M 519.5,225.5 C 518.851,251.628 518.184,277.628 517.5,303.5C 517.5,283.833 517.5,264.167 517.5,244.5C 518.487,231.292 516.987,230.625 513,242.5C 511.811,254.483 510.811,266.483 510,278.5C 507.078,285.341 503.912,292.008 500.5,298.5C 496.63,299.768 492.963,301.602 489.5,304C 491.382,304.198 493.048,304.698 494.5,305.5C 472.833,305.5 451.167,305.5 429.5,305.5C 428.761,305.631 428.094,305.464 427.5,305C 433.902,302.4 440.568,300.733 447.5,300C 459.813,298.987 472.147,298.321 484.5,298C 495.785,295.715 502.285,288.882 504,277.5C 504.265,262.908 506.265,248.574 510,234.5C 511.875,230.594 514.375,227.094 517.5,224C 518.816,223.472 519.483,223.972 519.5,225.5 Z"/></g>
<g><path style="opacity:1" fill="#696663" d="M 619.5,305.5 C 616.167,305.5 612.833,305.5 609.5,305.5C 610.609,304.71 611.942,304.21 613.5,304C 609.4,301.533 605.566,298.699 602,295.5C 599.586,292.185 597.919,288.518 597,284.5C 596.013,270.332 594.847,256.332 593.5,242.5C 593.335,238.818 593.501,235.152 594,231.5C 593.892,237.172 595.392,242.338 598.5,247C 599.818,260.851 601.318,274.684 603,288.5C 606.713,295.878 612.546,300.712 620.5,303C 633.5,303.333 646.5,303.667 659.5,304C 645.994,304.169 632.66,304.669 619.5,305.5 Z"/></g>
<g><path style="opacity:1" fill="#5c5957" d="M 517.5,244.5 C 517.5,264.167 517.5,283.833 517.5,303.5C 517.389,304.117 517.056,304.617 516.5,305C 511.177,305.499 505.844,305.666 500.5,305.5C 499.602,304.842 498.602,304.176 497.5,303.5C 504.693,299.148 509.86,293.148 513,285.5C 514.193,275.883 514.859,266.216 515,256.5C 515.705,252.335 516.539,248.335 517.5,244.5 Z"/></g>
<g><path style="opacity:1" fill="#9f9d96" d="M 619.5,213.5 C 628.096,214.643 636.096,217.476 643.5,222C 661.777,233.27 677.944,247.103 692,263.5C 695.732,268.906 699.065,274.573 702,280.5C 702.991,282.447 703.325,284.447 703,286.5C 700.263,287.61 697.429,287.777 694.5,287C 688.678,284.759 682.678,283.093 676.5,282C 662.494,281.074 648.494,280.074 634.5,279C 629.124,276.96 625.957,273.127 625,267.5C 624.294,250.47 621.461,233.804 616.5,217.5C 616.787,215.557 617.787,214.223 619.5,213.5 Z"/></g>
<g><path style="opacity:1" fill="#9f9d96" d="M 486.5,213.5 C 488.527,213.338 490.527,213.505 492.5,214C 493.116,215.4 493.449,216.9 493.5,218.5C 491.773,226.184 489.94,233.85 488,241.5C 487.366,250.873 486.366,260.206 485,269.5C 483.507,274.326 480.341,277.493 475.5,279C 461.836,280.037 448.17,281.037 434.5,282C 425.597,284.547 416.597,286.38 407.5,287.5C 407.605,283.681 408.438,280.014 410,276.5C 423.575,254.591 441.408,237.091 463.5,224C 470.982,219.798 478.649,216.298 486.5,213.5 Z"/></g>
<g><path style="opacity:1" fill="#fcfcfc" d="M 590.5,224.5 C 590.987,225.473 591.487,226.473 592,227.5C 592.168,252.67 592.668,277.67 593.5,302.5C 593.953,303.458 594.619,304.292 595.5,305C 600.155,305.499 604.821,305.666 609.5,305.5C 612.833,305.5 616.167,305.5 619.5,305.5C 639.833,305.5 660.167,305.5 680.5,305.5C 685.128,307.316 688.795,310.316 691.5,314.5C 691.5,332.5 691.5,350.5 691.5,368.5C 691.302,374.249 688.636,378.249 683.5,380.5C 653.687,381.135 624.02,381.802 594.5,382.5C 593.335,441.999 593.168,501.665 594,561.5C 594.5,562 595,562.5 595.5,563C 599.152,563.499 602.818,563.665 606.5,563.5C 607.167,563.5 607.833,563.5 608.5,563.5C 612.5,563.5 616.5,563.5 620.5,563.5C 634.833,563.5 649.167,563.5 663.5,563.5C 668.844,563.334 674.177,563.501 679.5,564C 692.222,568.201 694.889,575.867 687.5,587C 685.273,587.941 683.273,589.108 681.5,590.5C 677.5,590.5 673.5,590.5 669.5,590.5C 593.833,590.5 518.167,590.5 442.5,590.5C 438.167,590.5 433.833,590.5 429.5,590.5C 427.365,588.929 425.032,587.596 422.5,586.5C 416.303,575.228 419.303,567.561 431.5,563.5C 451.167,563.5 470.833,563.5 490.5,563.5C 493.833,563.5 497.167,563.5 500.5,563.5C 501.833,563.5 503.167,563.5 504.5,563.5C 508.911,563.979 513.078,563.312 517,561.5C 517.667,502.5 517.667,443.5 517,384.5C 516.184,383.177 515.017,382.511 513.5,382.5C 485.338,381.502 457.005,381.169 428.5,381.5C 422.797,379.11 419.797,374.777 419.5,368.5C 419.192,349.787 419.526,331.12 420.5,312.5C 422.918,309.453 425.918,307.12 429.5,305.5C 451.167,305.5 472.833,305.5 494.5,305.5C 496.5,305.5 498.5,305.5 500.5,305.5C 505.844,305.666 511.177,305.499 516.5,305C 517.056,304.617 517.389,304.117 517.5,303.5C 518.184,277.628 518.851,251.628 519.5,225.5C 521.736,223.107 524.403,221.273 527.5,220C 546.167,219.333 564.833,219.333 583.5,220C 586.202,221.012 588.535,222.512 590.5,224.5 Z"/></g>
<g><path style="opacity:1" fill="#464544" d="M 565.5,533.5 C 565.179,539.026 565.512,544.36 566.5,549.5C 566.665,552.85 566.498,556.183 566,559.5C 565.535,560.931 564.701,562.097 563.5,563C 557.833,563.667 552.167,563.667 546.5,563C 545.944,562.617 545.611,562.117 545.5,561.5C 545.5,555.167 545.5,548.833 545.5,542.5C 548.565,544.53 551.898,546.197 555.5,547.5C 563.171,545.841 566.504,541.175 565.5,533.5 Z"/></g>
<g><path style="opacity:1" fill="#5b5958" d="M 544.5,365.5 C 551.833,372.167 559.167,372.167 566.5,365.5C 566.5,426.833 566.5,488.167 566.5,549.5C 565.512,544.36 565.179,539.026 565.5,533.5C 565.667,482.832 565.5,432.166 565,381.5C 562.689,385.506 559.523,388.506 555.5,390.5C 551.477,388.506 548.311,385.506 546,381.5C 545.5,435.166 545.333,488.832 545.5,542.5C 545.5,548.833 545.5,555.167 545.5,561.5C 544.501,496.335 544.168,431.002 544.5,365.5 Z"/></g>
<g><path style="opacity:1" fill="#52504e" d="M 565.5,533.5 C 566.504,541.175 563.171,545.841 555.5,547.5C 551.898,546.197 548.565,544.53 545.5,542.5C 545.333,488.832 545.5,435.166 546,381.5C 548.311,385.506 551.477,388.506 555.5,390.5C 559.523,388.506 562.689,385.506 565,381.5C 565.5,432.166 565.667,482.832 565.5,533.5 Z"/></g>
<g><path style="opacity:1" fill="#53514f" d="M 574.5,331.5 C 597.455,332.479 620.455,332.813 643.5,332.5C 626.005,333.332 608.338,333.832 590.5,334C 602.167,334.333 613.833,334.667 625.5,335C 633.448,335.237 639.614,338.071 644,343.5C 646.112,347.383 645.945,351.05 643.5,354.5C 623.164,354.667 602.831,354.5 582.5,354C 585.892,353.05 587.059,350.883 586,347.5C 582.59,341.421 578.09,336.254 572.5,332C 573.094,331.536 573.761,331.369 574.5,331.5 Z"/></g>
<g><path style="opacity:1" fill="#555351" d="M 536.5,331.5 C 537.239,331.369 537.906,331.536 538.5,332C 532.91,336.254 528.41,341.421 525,347.5C 524.162,350.481 524.995,352.814 527.5,354.5C 520.833,354.5 514.167,354.5 507.5,354.5C 496.341,353.669 485.007,353.169 473.5,353C 471.016,350.716 470.849,348.216 473,345.5C 475.258,343.57 477.758,342.07 480.5,341C 488.692,340.244 496.858,340.41 505,341.5C 507.799,341.18 510.299,340.18 512.5,338.5C 513.842,339.902 514.676,339.569 515,337.5C 515.333,337.833 515.667,338.167 516,338.5C 518.772,336.239 521.938,334.739 525.5,334C 524.263,333.768 523.263,333.268 522.5,332.5C 527.214,332.647 531.881,332.314 536.5,331.5 Z"/></g>
<g><path style="opacity:1" fill="#464444" d="M 643.5,332.5 C 649.842,332.334 656.175,332.5 662.5,333C 663.416,333.374 664.25,333.874 665,334.5C 665.667,340.833 665.667,347.167 665,353.5C 664.617,354.056 664.117,354.389 663.5,354.5C 656.833,354.5 650.167,354.5 643.5,354.5C 645.945,351.05 646.112,347.383 644,343.5C 639.614,338.071 633.448,335.237 625.5,335C 613.833,334.667 602.167,334.333 590.5,334C 608.338,333.832 626.005,333.332 643.5,332.5 Z"/></g>
<g><path style="opacity:1" fill="#4c4a49" d="M 522.5,332.5 C 523.263,333.268 524.263,333.768 525.5,334C 521.938,334.739 518.772,336.239 516,338.5C 515.667,338.167 515.333,337.833 515,337.5C 514.676,339.569 513.842,339.902 512.5,338.5C 510.299,340.18 507.799,341.18 505,341.5C 496.858,340.41 488.692,340.244 480.5,341C 477.758,342.07 475.258,343.57 473,345.5C 470.849,348.216 471.016,350.716 473.5,353C 485.007,353.169 496.341,353.669 507.5,354.5C 487.833,354.5 468.167,354.5 448.5,354.5C 447.542,354.047 446.708,353.381 446,352.5C 445.19,345.918 445.357,339.418 446.5,333C 471.831,332.5 497.164,332.333 522.5,332.5 Z"/></g>
<g><path style="opacity:1" fill="#72706d" d="M 575.5,355.5 C 571.115,357.616 568.115,360.949 566.5,365.5C 559.167,372.167 551.833,372.167 544.5,365.5C 542.931,360.109 539.264,356.942 533.5,356C 504.997,355.832 476.664,355.332 448.5,354.5C 468.167,354.5 487.833,354.5 507.5,354.5C 514.167,354.5 520.833,354.5 527.5,354.5C 529.5,354.5 531.5,354.5 533.5,354.5C 532.317,348.201 533.984,342.867 538.5,338.5C 551.652,324.374 563.652,325.374 574.5,341.5C 576.987,346.122 576.987,350.622 574.5,355C 574.728,355.399 575.062,355.565 575.5,355.5 Z"/></g>
<g><path style="opacity:1" fill="#7a7773" d="M 551.5,338.5 C 562.743,337.904 567.41,343.071 565.5,354C 559.071,362.458 552.405,362.625 545.5,354.5C 544.907,352.618 544.24,350.785 543.5,349C 544.883,344.459 547.55,340.959 551.5,338.5 Z"/></g>
<g><path style="opacity:1" fill="#696764" d="M 566.5,318.5 C 566.951,324.17 569.617,328.504 574.5,331.5C 573.761,331.369 573.094,331.536 572.5,332C 578.09,336.254 582.59,341.421 586,347.5C 587.059,350.883 585.892,353.05 582.5,354C 602.831,354.5 623.164,354.667 643.5,354.5C 650.167,354.5 656.833,354.5 663.5,354.5C 634.338,355.498 605.005,355.831 575.5,355.5C 575.062,355.565 574.728,355.399 574.5,355C 576.987,350.622 576.987,346.122 574.5,341.5C 563.652,325.374 551.652,324.374 538.5,338.5C 533.984,342.867 532.317,348.201 533.5,354.5C 531.5,354.5 529.5,354.5 527.5,354.5C 524.995,352.814 524.162,350.481 525,347.5C 528.41,341.421 532.91,336.254 538.5,332C 537.906,331.536 537.239,331.369 536.5,331.5C 538.355,329.967 540.188,328.3 542,326.5C 542.698,323.996 543.531,321.663 544.5,319.5C 544.119,321.942 544.786,322.609 546.5,321.5C 546.833,322.167 547.167,322.833 547.5,323.5C 550.044,321.981 552.711,320.648 555.5,319.5C 558.289,320.648 560.956,321.981 563.5,323.5C 563.833,322.833 564.167,322.167 564.5,321.5C 565.086,321.709 565.586,322.043 566,322.5C 566.49,321.207 566.657,319.873 566.5,318.5 Z"/></g>
<g><path style="opacity:1" fill="#585554" d="M 545.5,248.5 C 545.5,255.5 545.5,262.5 545.5,269.5C 545.333,283.504 545.5,297.504 546,311.5C 548.907,305.022 551.24,298.356 553,291.5C 554.312,289.342 555.978,289.009 558,290.5C 560.037,297.58 562.371,304.58 565,311.5C 565.169,299.659 565.669,287.993 566.5,276.5C 566.5,290.5 566.5,304.5 566.5,318.5C 566.657,319.873 566.49,321.207 566,322.5C 565.586,322.043 565.086,321.709 564.5,321.5C 564.167,322.167 563.833,322.833 563.5,323.5C 560.956,321.981 558.289,320.648 555.5,319.5C 552.711,320.648 550.044,321.981 547.5,323.5C 547.167,322.833 546.833,322.167 546.5,321.5C 544.786,322.609 544.119,321.942 544.5,319.5C 544.169,295.661 544.502,271.994 545.5,248.5 Z"/></g>
<g><path style="opacity:1" fill="#4f4d4c" d="M 565.5,249.5 C 566.493,258.318 566.827,267.318 566.5,276.5C 565.669,287.993 565.169,299.659 565,311.5C 562.371,304.58 560.037,297.58 558,290.5C 555.978,289.009 554.312,289.342 553,291.5C 551.24,298.356 548.907,305.022 546,311.5C 545.5,297.504 545.333,283.504 545.5,269.5C 546.186,268.152 547.186,266.985 548.5,266C 553.5,265.333 558.5,265.333 563.5,266C 564.126,266.75 564.626,267.584 565,268.5C 565.5,262.175 565.666,255.842 565.5,249.5 Z"/></g>
<g><path style="opacity:1" fill="#424141" d="M 565.5,249.5 C 565.666,255.842 565.5,262.175 565,268.5C 564.626,267.584 564.126,266.75 563.5,266C 558.5,265.333 553.5,265.333 548.5,266C 547.186,266.985 546.186,268.152 545.5,269.5C 545.5,262.5 545.5,255.5 545.5,248.5C 545.611,247.883 545.944,247.383 546.5,247C 551.833,246.333 557.167,246.333 562.5,247C 563.942,247.377 564.942,248.21 565.5,249.5 Z"/></g>
<g><path style="opacity:1" fill="#6e6b68" d="M 662.5,206.5 C 602.111,171.33 539.111,166.164 473.5,191C 463.615,197.444 453.281,203.11 442.5,208C 435.979,215.273 428.979,222.106 421.5,228.5C 413.855,235.313 406.688,242.646 400,250.5C 396.835,256.834 393.169,262.834 389,268.5C 386.59,274.318 383.923,279.985 381,285.5C 380.075,286.047 379.242,286.713 378.5,287.5C 374.278,296.863 370.278,306.197 366.5,315.5C 359.639,331.614 356.139,348.614 356,366.5C 355.333,450.833 355.333,535.167 356,619.5C 356.539,625.203 358.206,630.536 361,635.5C 364.051,637.05 366.218,639.383 367.5,642.5C 364.918,640.768 362.418,638.768 360,636.5C 357.543,630.539 355.209,624.539 353,618.5C 352.333,535.167 352.333,451.833 353,368.5C 358.009,295.595 390.842,239.428 451.5,200C 459.788,196.523 467.788,192.523 475.5,188C 490.126,184.43 504.459,180.096 518.5,175C 564.03,167.605 607.363,174.105 648.5,194.5C 653.214,198.512 657.88,202.512 662.5,206.5 Z"/></g>
<g><path style="opacity:1" fill="#74716e" d="M 210.5,734.5 C 210.5,739.833 210.5,745.167 210.5,750.5C 209.679,747.359 209.179,744.025 209,740.5C 207.961,741.244 207.461,742.244 207.5,743.5C 204.815,748.721 203.315,754.387 203,760.5C 202.333,785.833 202.333,811.167 203,836.5C 203.368,844.03 205.368,851.03 209,857.5C 211.5,860.667 214,863.833 216.5,867C 222.257,869.536 228.257,871.536 234.5,873C 242.822,873.69 251.155,874.19 259.5,874.5C 456.833,873.167 654.167,873.167 851.5,874.5C 861.229,874.303 870.896,873.47 880.5,872C 886.413,870.786 890.746,867.62 893.5,862.5C 893.179,860.952 892.179,860.285 890.5,860.5C 896.245,859.086 899.579,855.419 900.5,849.5C 900.343,850.873 900.51,852.207 901,853.5C 902.286,850.595 903.286,847.595 904,844.5C 905.99,813.832 905.99,783.166 904,752.5C 903.71,750.048 903.044,747.715 902,745.5C 901.722,746.416 901.222,747.082 900.5,747.5C 900.5,742.833 900.5,738.167 900.5,733.5C 904.589,739.391 907.755,746.391 910,754.5C 910.667,783.833 910.667,813.167 910,842.5C 908.949,848.038 907.283,853.372 905,858.5C 901.188,861.982 897.688,865.815 894.5,870C 886.758,874.353 878.425,876.686 869.5,877C 660.167,877.667 450.833,877.667 241.5,877C 218.562,875.399 205.062,863.232 201,840.5C 199.22,814.012 199.054,787.512 200.5,761C 200.653,754.192 202.153,747.692 205,741.5C 205.935,738.405 207.769,736.071 210.5,734.5 Z"/></g>
<g><path style="opacity:1" fill="#6b6966" d="M 207.5,743.5 C 205.888,749.394 204.721,755.394 204,761.5C 203.333,786.167 203.333,810.833 204,835.5C 204.333,837.833 204.667,840.167 205,842.5C 205.333,841.833 205.667,841.167 206,840.5C 206.299,844.761 207.466,848.761 209.5,852.5C 210.386,851.675 210.719,850.675 210.5,849.5C 211.466,854.441 214.132,858.108 218.5,860.5C 216.073,861.279 216.073,862.446 218.5,864C 224.433,867.401 230.766,869.734 237.5,871C 449.5,871.667 661.5,871.667 873.5,871C 880.87,869.667 887.537,866.834 893.5,862.5C 890.746,867.62 886.413,870.786 880.5,872C 870.896,873.47 861.229,874.303 851.5,874.5C 654.167,873.167 456.833,873.167 259.5,874.5C 251.155,874.19 242.822,873.69 234.5,873C 228.257,871.536 222.257,869.536 216.5,867C 214,863.833 211.5,860.667 209,857.5C 205.368,851.03 203.368,844.03 203,836.5C 202.333,811.167 202.333,785.833 203,760.5C 203.315,754.387 204.815,748.721 207.5,743.5 Z"/></g>
<g><path style="opacity:1" fill="#6c6a67" d="M 218.5,860.5 C 442.5,860.5 666.5,860.5 890.5,860.5C 892.179,860.285 893.179,860.952 893.5,862.5C 887.537,866.834 880.87,869.667 873.5,871C 661.5,871.667 449.5,871.667 237.5,871C 230.766,869.734 224.433,867.401 218.5,864C 216.073,862.446 216.073,861.279 218.5,860.5 Z"/></g>
<g><path style="opacity:1" fill="#5f5c5a" d="M 227.5,861.5 C 229.214,862.738 231.214,863.405 233.5,863.5C 234.152,864.725 235.319,865.392 237,865.5C 241.315,866.043 245.648,866.376 250,866.5C 453.333,865.167 656.667,865.167 860,866.5C 866.523,866.298 873.023,865.798 879.5,865C 881.066,864.392 882.4,863.558 883.5,862.5C 884.791,862.737 885.791,862.404 886.5,861.5C 887.873,861.343 889.207,861.51 890.5,862C 885.643,865.176 880.31,867.176 874.5,868C 661.833,868.667 449.167,868.667 236.5,868C 231.713,866.302 227.046,864.302 222.5,862C 224.134,861.506 225.801,861.34 227.5,861.5 Z"/></g>
<g><path style="opacity:1" fill="#5a5755" d="M 883.5,862.5 C 882.4,863.558 881.066,864.392 879.5,865C 873.023,865.798 866.523,866.298 860,866.5C 656.667,865.167 453.333,865.167 250,866.5C 245.648,866.376 241.315,866.043 237,865.5C 235.319,865.392 234.152,864.725 233.5,863.5C 442.98,863.184 652.48,863.517 862,864.5C 869.218,864.285 876.385,863.618 883.5,862.5 Z"/></g>
<g><path style="opacity:1" fill="#545350" d="M 227.5,861.5 C 447.167,861.5 666.833,861.5 886.5,861.5C 885.791,862.404 884.791,862.737 883.5,862.5C 876.385,863.618 869.218,864.285 862,864.5C 652.48,863.517 442.98,863.184 233.5,863.5C 231.214,863.405 229.214,862.738 227.5,861.5 Z"/></g>
<g><path style="opacity:1" fill="#6f6d6a" d="M 852.5,833.5 C 854.5,833.5 856.5,833.5 858.5,833.5C 860.735,833.205 862.735,833.539 864.5,834.5C 655.999,834.833 447.666,834.5 239.5,833.5C 245.026,833.821 250.36,833.488 255.5,832.5C 253.633,830.091 251.466,827.758 249,825.5C 247.295,823.423 246.128,821.09 245.5,818.5C 241.378,806.752 240.545,794.752 243,782.5C 247.93,771.901 256.096,765.401 267.5,763C 285.162,762.219 302.829,761.552 320.5,761C 477.167,760.333 633.833,760.333 790.5,761C 808.171,761.552 825.838,762.219 843.5,763C 855.378,765.213 863.212,772.046 867,783.5C 870.54,798.088 868.54,811.755 861,824.5C 856.652,828.758 851.486,831.592 845.5,833C 847.81,833.497 850.143,833.663 852.5,833.5 Z"/></g>
<g><path style="opacity:1" fill="#666360" d="M 900.5,849.5 C 900.5,815.5 900.5,781.5 900.5,747.5C 901.222,747.082 901.722,746.416 902,745.5C 903.044,747.715 903.71,750.048 904,752.5C 905.99,783.166 905.99,813.832 904,844.5C 903.286,847.595 902.286,850.595 901,853.5C 900.51,852.207 900.343,850.873 900.5,849.5 Z"/></g>
<g><path style="opacity:1" fill="#5c5a58" d="M 873.5,753.5 C 874.663,778.663 874.83,803.997 874,829.5C 872.436,833.869 869.27,835.535 864.5,834.5C 862.735,833.539 860.735,833.205 858.5,833.5C 861.104,831.4 863.604,829.067 866,826.5C 868.368,822.443 870.368,818.11 872,813.5C 872.667,801.5 872.667,789.5 872,777.5C 868.278,769.559 862.445,763.725 854.5,760C 837.318,759.541 820.318,758.208 803.5,756C 638.167,755.333 472.833,755.333 307.5,756C 291.614,758.057 275.614,759.391 259.5,760C 249.264,765.298 242.431,773.464 239,784.5C 238.097,795.226 238.431,805.893 240,816.5C 243.028,822.534 247.195,827.701 252.5,832C 253.448,832.483 254.448,832.649 255.5,832.5C 250.36,833.488 245.026,833.821 239.5,833.5C 238.21,832.942 237.377,831.942 237,830.5C 236.17,804.663 236.337,778.997 237.5,753.5C 237.334,762.173 237.5,770.84 238,779.5C 238.854,769.315 244.02,762.148 253.5,758C 258.412,756.575 263.412,755.575 268.5,755C 280.192,754.732 291.859,754.066 303.5,753C 471.5,752.333 639.5,752.333 807.5,753C 823.162,754.053 838.828,755.053 854.5,756C 860.553,757.774 865.72,760.941 870,765.5C 871.846,768.569 872.846,771.902 873,775.5C 873.5,768.174 873.666,760.841 873.5,753.5 Z"/></g>
<g><path style="opacity:1" fill="#656360" d="M 852.5,833.5 C 850.143,833.663 847.81,833.497 845.5,833C 851.486,831.592 856.652,828.758 861,824.5C 868.54,811.755 870.54,798.088 867,783.5C 863.212,772.046 855.378,765.213 843.5,763C 825.838,762.219 808.171,761.552 790.5,761C 633.833,760.333 477.167,760.333 320.5,761C 302.829,761.552 285.162,762.219 267.5,763C 256.096,765.401 247.93,771.901 243,782.5C 240.545,794.752 241.378,806.752 245.5,818.5C 242.02,814.238 240.187,809.238 240,803.5C 239.348,793.427 241.015,783.76 245,774.5C 248.465,772.037 251.631,769.204 254.5,766C 258.316,764.591 261.983,762.924 265.5,761C 276.818,760.08 288.151,759.413 299.5,759C 470.167,758.333 640.833,758.333 811.5,759C 824.505,759.572 837.505,760.238 850.5,761C 855.989,762.371 860.489,765.205 864,769.5C 872.482,785.553 873.648,802.219 867.5,819.5C 863.091,824.913 858.091,829.579 852.5,833.5 Z"/></g>
<g><path style="opacity:1" fill="#605e5b" d="M 858.5,833.5 C 856.5,833.5 854.5,833.5 852.5,833.5C 858.091,829.579 863.091,824.913 867.5,819.5C 873.648,802.219 872.482,785.553 864,769.5C 860.489,765.205 855.989,762.371 850.5,761C 837.505,760.238 824.505,759.572 811.5,759C 640.833,758.333 470.167,758.333 299.5,759C 288.151,759.413 276.818,760.08 265.5,761C 261.983,762.924 258.316,764.591 254.5,766C 251.631,769.204 248.465,772.037 245,774.5C 241.015,783.76 239.348,793.427 240,803.5C 240.187,809.238 242.02,814.238 245.5,818.5C 246.128,821.09 247.295,823.423 249,825.5C 251.466,827.758 253.633,830.091 255.5,832.5C 254.448,832.649 253.448,832.483 252.5,832C 247.195,827.701 243.028,822.534 240,816.5C 238.431,805.893 238.097,795.226 239,784.5C 242.431,773.464 249.264,765.298 259.5,760C 275.614,759.391 291.614,758.057 307.5,756C 472.833,755.333 638.167,755.333 803.5,756C 820.318,758.208 837.318,759.541 854.5,760C 862.445,763.725 868.278,769.559 872,777.5C 872.667,789.5 872.667,801.5 872,813.5C 870.368,818.11 868.368,822.443 866,826.5C 863.604,829.067 861.104,831.4 858.5,833.5 Z"/></g>
<g><path style="opacity:1" fill="#73716d" d="M 304.5,763.5 C 482.507,763.043 660.507,763.543 838.5,765C 853.43,765.932 861.93,773.766 864,788.5C 866.95,803.21 863.45,816.043 853.5,827C 848.867,829.742 843.867,831.409 838.5,832C 649.833,832.667 461.167,832.667 272.5,832C 256.588,831.972 247.421,824.139 245,808.5C 240.029,789.786 245.862,775.953 262.5,767C 265.789,766.118 269.123,765.452 272.5,765C 283.341,764.83 294.008,764.33 304.5,763.5 Z"/></g>
<g><path style="opacity:1" fill="#7b7874" d="M 282.5,766.5 C 464.5,766.333 646.5,766.5 828.5,767C 835.515,767.891 842.515,768.891 849.5,770C 855.736,772.964 859.736,777.798 861.5,784.5C 864.805,796.645 863.639,808.312 858,819.5C 853.487,824.341 847.987,827.508 841.5,829C 650.833,829.667 460.167,829.667 269.5,829C 259.996,827.486 253.496,822.319 250,813.5C 245.816,800.186 247.149,787.519 254,775.5C 256.892,772.943 260.059,770.776 263.5,769C 270.044,768.669 276.377,767.835 282.5,766.5 Z"/></g>
<g><path style="opacity:1" fill="#817e79" d="M 283.5,769.5 C 464.834,769.333 646.167,769.5 827.5,770C 848.151,768.282 858.817,777.615 859.5,798C 859.96,816.539 850.96,825.872 832.5,826C 647.833,826.667 463.167,826.667 278.5,826C 257.12,824.481 248.287,812.981 252,791.5C 252.99,781.69 258.156,775.19 267.5,772C 272.956,771.055 278.289,770.222 283.5,769.5 Z"/></g>
<g><path style="opacity:1" fill="#86837e" d="M 275.5,771.5 C 462.167,771.333 648.834,771.5 835.5,772C 851.439,773.278 858.772,781.945 857.5,798C 858.747,812.867 852.08,821.533 837.5,824C 649.5,824.667 461.5,824.667 273.5,824C 258.94,821.593 252.274,812.926 253.5,798C 252.399,785.851 257.399,777.517 268.5,773C 271.036,772.814 273.369,772.314 275.5,771.5 Z"/></g>
<g><path style="opacity:1" fill="#8b8782" d="M 284.5,773.5 C 465.167,773.333 645.834,773.5 826.5,774C 851.053,774.577 859.886,786.743 853,810.5C 847.94,818.868 840.44,822.701 830.5,822C 647.167,822.667 463.833,822.667 280.5,822C 264.332,822.166 255.999,814.166 255.5,798C 257.052,780.285 266.718,772.118 284.5,773.5 Z"/></g>
<g><path style="opacity:1" fill="#8f8c87" d="M 276.5,775.5 C 462.5,775.333 648.5,775.5 834.5,776C 850.403,779.023 856.57,788.856 853,805.5C 850.524,814.304 844.691,819.137 835.5,820C 648.833,820.667 462.167,820.667 275.5,820C 262.9,818.067 256.9,810.733 257.5,798C 256.846,788.611 260.68,781.778 269,777.5C 269.333,777.833 269.667,778.167 270,778.5C 272.166,777.269 274.333,776.269 276.5,775.5 Z"/></g>
<g><path style="opacity:1" fill="#95938c" d="M 280.5,778.5 C 463.834,778.333 647.167,778.5 830.5,779C 833.833,779.667 837.167,780.333 840.5,781C 843.005,782.753 845.671,784.253 848.5,785.5C 856.796,804.234 850.796,814.734 830.5,817C 647.167,817.667 463.833,817.667 280.5,817C 260.204,814.734 254.204,804.234 262.5,785.5C 265.329,784.253 267.995,782.753 270.5,781C 274.038,780.465 277.372,779.632 280.5,778.5 Z"/></g>
<g><path style="opacity:1" fill="#9a9891" d="M 280.5,783.5 C 463.834,783.333 647.167,783.5 830.5,784C 842.74,786.299 846.906,793.466 843,805.5C 839.995,809.087 836.162,811.254 831.5,812C 647.5,812.667 463.5,812.667 279.5,812C 266.363,808.262 263.196,800.429 270,788.5C 270.833,787.667 271.667,786.833 272.5,786C 275.379,785.454 278.046,784.621 280.5,783.5 Z"/></g>
<g><path style="opacity:1" fill="#9e9c96" d="M 283.5,787.5 C 464.834,787.333 646.167,787.5 827.5,788C 834.336,788.235 838.669,791.568 840.5,798C 838.591,804.457 834.258,807.791 827.5,808C 646.167,808.667 464.833,808.667 283.5,808C 276.742,807.791 272.409,804.457 270.5,798C 271.314,795.373 272.647,793.04 274.5,791C 277.571,789.704 280.571,788.538 283.5,787.5 Z"/></g>
<g><path style="opacity:1" fill="#666360" d="M 210.5,750.5 C 210.5,783.5 210.5,816.5 210.5,849.5C 210.719,850.675 210.386,851.675 209.5,852.5C 207.466,848.761 206.299,844.761 206,840.5C 205.667,841.167 205.333,841.833 205,842.5C 204.667,840.167 204.333,837.833 204,835.5C 203.333,810.833 203.333,786.167 204,761.5C 204.721,755.394 205.888,749.394 207.5,743.5C 207.461,742.244 207.961,741.244 209,740.5C 209.179,744.025 209.679,747.359 210.5,750.5 Z"/></g>
<g><path style="opacity:1" fill="#53514f" d="M 873.5,753.5 C 873.666,760.841 873.5,768.174 873,775.5C 872.846,771.902 871.846,768.569 870,765.5C 865.72,760.941 860.553,757.774 854.5,756C 838.828,755.053 823.162,754.053 807.5,753C 639.5,752.333 471.5,752.333 303.5,753C 291.859,754.066 280.192,754.732 268.5,755C 263.412,755.575 258.412,756.575 253.5,758C 244.02,762.148 238.854,769.315 238,779.5C 237.5,770.84 237.334,762.173 237.5,753.5C 237.414,752.504 237.748,751.671 238.5,751C 449.5,750.333 660.5,750.333 871.5,751C 872.381,751.708 873.047,752.542 873.5,753.5 Z"/></g>
</svg>
