<?xml version="1.0" encoding="UTF-8"?>
<!DOCTYPE svg PUBLIC "-//W3C//DTD SVG 1.1//EN" "http://www.w3.org/Graphics/SVG/1.1/DTD/svg11.dtd">
<svg xmlns="http://www.w3.org/2000/svg" version="1.1" width="90px" height="86px" style="shape-rendering:geometricPrecision; text-rendering:geometricPrecision; image-rendering:optimizeQuality; fill-rule:evenodd; clip-rule:evenodd" xmlns:xlink="http://www.w3.org/1999/xlink">
<g><path style="opacity:0.954" fill="#e62118" d="M 11.5,-0.5 C 13.5,-0.5 15.5,-0.5 17.5,-0.5C 14.9993,8.00327 13.3327,16.6699 12.5,25.5C 12.5,26.1667 12.5,26.8333 12.5,27.5C 11.1667,28.1667 9.83333,28.8333 8.5,29.5C 7.06967,28.4625 5.40301,27.7959 3.5,27.5C 2.41131,23.9221 2.24465,20.2554 3,16.5C 5.83106,10.8379 8.66439,5.17122 11.5,-0.5 Z"/></g>
<g><path style="opacity:0.999" fill="#fabd00" d="M 17.5,-0.5 C 19.5,-0.5 21.5,-0.5 23.5,-0.5C 23.5,1.5 23.5,3.5 23.5,5.5C 22.111,10.2688 21.4443,15.2688 21.5,20.5C 18.9455,19.612 16.2788,19.2786 13.5,19.5C 13.7947,21.7354 13.4614,23.7354 12.5,25.5C 13.3327,16.6699 14.9993,8.00327 17.5,-0.5 Z"/></g>
<g><path style="opacity:1" fill="#de0717" d="M 23.5,-0.5 C 25.8333,-0.5 28.1667,-0.5 30.5,-0.5C 30.5,6.16667 30.5,12.8333 30.5,19.5C 27.8333,19.5 25.1667,19.5 22.5,19.5C 22.9981,14.8478 23.3314,10.1811 23.5,5.5C 23.5,3.5 23.5,1.5 23.5,-0.5 Z"/></g>
<g><path style="opacity:1" fill="#fab901" d="M 30.5,-0.5 C 33.5,-0.5 36.5,-0.5 39.5,-0.5C 39.5,6.16667 39.5,12.8333 39.5,19.5C 36.8333,19.5 34.1667,19.5 31.5,19.5C 31.7947,21.7354 31.4614,23.7354 30.5,25.5C 30.5,23.5 30.5,21.5 30.5,19.5C 30.5,12.8333 30.5,6.16667 30.5,-0.5 Z"/></g>
<g><path style="opacity:1" fill="#fab901" d="M 49.5,-0.5 C 52.5,-0.5 55.5,-0.5 58.5,-0.5C 58.5,6.16667 58.5,12.8333 58.5,19.5C 58.5,21.5 58.5,23.5 58.5,25.5C 57.5386,23.7354 57.2053,21.7354 57.5,19.5C 54.8333,19.5 52.1667,19.5 49.5,19.5C 49.5,12.8333 49.5,6.16667 49.5,-0.5 Z"/></g>
<g><path style="opacity:1" fill="#de0c17" d="M 58.5,-0.5 C 60.8333,-0.5 63.1667,-0.5 65.5,-0.5C 65.9272,3.82444 66.2605,8.15777 66.5,12.5C 66.5,14.8333 66.5,17.1667 66.5,19.5C 63.8333,19.5 61.1667,19.5 58.5,19.5C 58.5,12.8333 58.5,6.16667 58.5,-0.5 Z"/></g>
<g><path style="opacity:1" fill="#fabd00" d="M 65.5,-0.5 C 67.5,-0.5 69.5,-0.5 71.5,-0.5C 74.0007,8.00327 75.6673,16.6699 76.5,25.5C 75.5386,23.7354 75.2053,21.7354 75.5,19.5C 72.7212,19.2786 70.0545,19.612 67.5,20.5C 67.8064,17.6146 67.4731,14.9479 66.5,12.5C 66.2605,8.15777 65.9272,3.82444 65.5,-0.5 Z"/></g>
<g><path style="opacity:0.954" fill="#e62118" d="M 71.5,-0.5 C 73.5,-0.5 75.5,-0.5 77.5,-0.5C 80.3356,5.17122 83.1689,10.8379 86,16.5C 86.7554,20.2554 86.5887,23.9221 85.5,27.5C 83.597,27.7959 81.9303,28.4625 80.5,29.5C 79.1667,28.8333 77.8333,28.1667 76.5,27.5C 76.5,26.8333 76.5,26.1667 76.5,25.5C 75.6673,16.6699 74.0007,8.00327 71.5,-0.5 Z"/></g>
<g><path style="opacity:0.998" fill="#feda0b" d="M 21.5,20.5 C 21.5,22.8333 21.5,25.1667 21.5,27.5C 18.5,30.1667 15.5,30.1667 12.5,27.5C 12.5,26.8333 12.5,26.1667 12.5,25.5C 13.4614,23.7354 13.7947,21.7354 13.5,19.5C 16.2788,19.2786 18.9455,19.612 21.5,20.5 Z"/></g>
<g><path style="opacity:0.906" fill="#fb431a" d="M 23.5,5.5 C 23.3314,10.1811 22.9981,14.8478 22.5,19.5C 25.1667,19.5 27.8333,19.5 30.5,19.5C 30.5,21.5 30.5,23.5 30.5,25.5C 30.5,26.1667 30.5,26.8333 30.5,27.5C 27.6207,30.0529 24.6207,30.0529 21.5,27.5C 21.5,25.1667 21.5,22.8333 21.5,20.5C 21.4443,15.2688 22.111,10.2688 23.5,5.5 Z"/></g>
<g><path style="opacity:0.976" fill="#fedb0b" d="M 39.5,19.5 C 39.5,21.8333 39.5,24.1667 39.5,26.5C 38.9862,28.4387 37.6528,29.4387 35.5,29.5C 33.6998,29.0976 32.0332,28.4309 30.5,27.5C 30.5,26.8333 30.5,26.1667 30.5,25.5C 31.4614,23.7354 31.7947,21.7354 31.5,19.5C 34.1667,19.5 36.8333,19.5 39.5,19.5 Z"/></g>
<g><path style="opacity:0.896" fill="#f74b18" d="M 39.5,-0.5 C 39.8333,-0.5 40.1667,-0.5 40.5,-0.5C 40.5,6.16667 40.5,12.8333 40.5,19.5C 43.1667,19.5 45.8333,19.5 48.5,19.5C 48.5,12.8333 48.5,6.16667 48.5,-0.5C 48.8333,-0.5 49.1667,-0.5 49.5,-0.5C 49.5,6.16667 49.5,12.8333 49.5,19.5C 49.5,21.8333 49.5,24.1667 49.5,26.5C 46.1667,30.5 42.8333,30.5 39.5,26.5C 39.5,24.1667 39.5,21.8333 39.5,19.5C 39.5,12.8333 39.5,6.16667 39.5,-0.5 Z"/></g>
<g><path style="opacity:1" fill="#dd0318" d="M 40.5,-0.5 C 43.1667,-0.5 45.8333,-0.5 48.5,-0.5C 48.5,6.16667 48.5,12.8333 48.5,19.5C 45.8333,19.5 43.1667,19.5 40.5,19.5C 40.5,12.8333 40.5,6.16667 40.5,-0.5 Z"/></g>
<g><path style="opacity:0.976" fill="#fedb0b" d="M 49.5,19.5 C 52.1667,19.5 54.8333,19.5 57.5,19.5C 57.2053,21.7354 57.5386,23.7354 58.5,25.5C 58.5,26.1667 58.5,26.8333 58.5,27.5C 56.9668,28.4309 55.3002,29.0976 53.5,29.5C 51.3472,29.4387 50.0138,28.4387 49.5,26.5C 49.5,24.1667 49.5,21.8333 49.5,19.5 Z"/></g>
<g><path style="opacity:0.901" fill="#fc431b" d="M 66.5,12.5 C 67.4731,14.9479 67.8064,17.6146 67.5,20.5C 67.5,22.8333 67.5,25.1667 67.5,27.5C 64.3793,30.0529 61.3793,30.0529 58.5,27.5C 58.5,26.8333 58.5,26.1667 58.5,25.5C 58.5,23.5 58.5,21.5 58.5,19.5C 61.1667,19.5 63.8333,19.5 66.5,19.5C 66.5,17.1667 66.5,14.8333 66.5,12.5 Z"/></g>
<g><path style="opacity:0.998" fill="#feda0b" d="M 76.5,25.5 C 76.5,26.1667 76.5,26.8333 76.5,27.5C 73.5,30.1667 70.5,30.1667 67.5,27.5C 67.5,25.1667 67.5,22.8333 67.5,20.5C 70.0545,19.612 72.7212,19.2786 75.5,19.5C 75.2053,21.7354 75.5386,23.7354 76.5,25.5 Z"/></g>
<g><path style="opacity:1" fill="#744001" d="M 3.5,27.5 C 5.40301,27.7959 7.06967,28.4625 8.5,29.5C 8.5,38.1667 8.5,46.8333 8.5,55.5C 6.95041,56.7199 5.28374,56.7199 3.5,55.5C 3.5,46.1667 3.5,36.8333 3.5,27.5 Z"/></g>
<g><path style="opacity:1" fill="#744001" d="M 85.5,27.5 C 85.5,36.8333 85.5,46.1667 85.5,55.5C 83.7163,56.7199 82.0496,56.7199 80.5,55.5C 80.5,46.8333 80.5,38.1667 80.5,29.5C 81.9303,28.4625 83.597,27.7959 85.5,27.5 Z"/></g>
<g><path style="opacity:0.447" fill="#258303" d="M 66.5,35.5 C 65.8333,35.5 65.5,35.8333 65.5,36.5C 63.901,36.7678 62.5676,36.4345 61.5,35.5C 61.2222,33.6536 61.8888,32.3202 63.5,31.5C 65.5499,32.0766 66.5499,33.4099 66.5,35.5 Z"/></g>
<g><path style="opacity:0.537" fill="#238203" d="M 59.5,36.5 C 57.901,36.7678 56.5676,36.4345 55.5,35.5C 55.5,34.1667 55.5,32.8333 55.5,31.5C 59.6375,31.2808 60.9708,32.9475 59.5,36.5 Z"/></g>
<g><path style="opacity:0.553" fill="#308202" d="M 71.5,36.5 C 69.901,36.7678 68.5676,36.4345 67.5,35.5C 67.9757,30.9274 69.6423,30.4274 72.5,34C 72.2568,34.9021 71.9234,35.7354 71.5,36.5 Z"/></g>
<g><path style="opacity:0.99" fill="#fe8702" d="M 55.5,35.5 C 56.5676,36.4345 57.901,36.7678 59.5,36.5C 58.6758,39.7644 58.3424,43.0977 58.5,46.5C 55.9407,46.8016 53.6074,46.4682 51.5,45.5C 51.3359,42.8127 51.5026,40.146 52,37.5C 52.8159,36.1772 53.9826,35.5106 55.5,35.5 Z"/></g>
<g><path style="opacity:0.999" fill="#fe6631" d="M 61.5,35.5 C 62.5676,36.4345 63.901,36.7678 65.5,36.5C 64.5975,39.3915 64.2641,42.3915 64.5,45.5C 67.5,45.5 70.5,45.5 73.5,45.5C 68.6946,46.4872 63.6946,46.8205 58.5,46.5C 58.3424,43.0977 58.6758,39.7644 59.5,36.5C 60.1667,36.1667 60.8333,35.8333 61.5,35.5 Z"/></g>
<g><path style="opacity:0.956" fill="#fe411d" d="M 66.5,35.5 C 66.8333,35.5 67.1667,35.5 67.5,35.5C 68.5676,36.4345 69.901,36.7678 71.5,36.5C 72.4972,36.4701 73.1639,36.9701 73.5,38C 74.3223,40.4339 74.6556,42.9339 74.5,45.5C 74.1667,45.5 73.8333,45.5 73.5,45.5C 70.5,45.5 67.5,45.5 64.5,45.5C 64.2641,42.3915 64.5975,39.3915 65.5,36.5C 66.1667,36.5 66.5,36.1667 66.5,35.5 Z"/></g>
<g><path style="opacity:0.922" fill="#34bb00" d="M 23.5,39.5 C 23.2786,42.2788 23.612,44.9455 24.5,47.5C 22.7839,47.6287 21.1172,47.962 19.5,48.5C 17.5,47.8333 15.5,47.1667 13.5,46.5C 12.8517,38.3889 16.185,36.0556 23.5,39.5 Z"/></g>
<g><path style="opacity:0.99" fill="#79d60c" d="M 35.5,47.5 C 33.0971,47.448 30.7638,47.7814 28.5,48.5C 27.2921,47.7659 25.9587,47.4326 24.5,47.5C 23.612,44.9455 23.2786,42.2788 23.5,39.5C 26.6064,37.5509 29.9397,37.7176 33.5,40C 35.1134,42.2276 35.78,44.7276 35.5,47.5 Z"/></g>
<g><path style="opacity:0.978" fill="#fda900" d="M 51.5,45.5 C 53.6074,46.4682 55.9407,46.8016 58.5,46.5C 63.6946,46.8205 68.6946,46.4872 73.5,45.5C 73.8333,45.5 74.1667,45.5 74.5,45.5C 75.5,45.5 76.5,45.5 77.5,45.5C 77.5,48.8333 77.5,52.1667 77.5,55.5C 67.8333,56.8333 58.1667,56.8333 48.5,55.5C 48.5,52.1667 48.5,48.8333 48.5,45.5C 49.5,45.5 50.5,45.5 51.5,45.5 Z"/></g>
<g><path style="opacity:0.927" fill="#0d5c02" d="M 13.5,46.5 C 15.5,47.1667 17.5,47.8333 19.5,48.5C 20.1667,51.1667 20.8333,53.8333 21.5,56.5C 17.7307,56.756 14.0641,56.4227 10.5,55.5C 10.3367,53.1432 10.5034,50.8098 11,48.5C 11.7083,47.6195 12.5416,46.9528 13.5,46.5 Z"/></g>
<g><path style="opacity:0.953" fill="#39bd00" d="M 35.5,47.5 C 39.9591,48.2931 42.2924,50.9598 42.5,55.5C 38.6002,56.4299 34.6002,56.7633 30.5,56.5C 29.9573,53.7816 29.2906,51.115 28.5,48.5C 30.7638,47.7814 33.0971,47.448 35.5,47.5 Z"/></g>
<g><path style="opacity:1" fill="#0f8400" d="M 24.5,47.5 C 25.9587,47.4326 27.2921,47.7659 28.5,48.5C 29.2906,51.115 29.9573,53.7816 30.5,56.5C 27.5,56.5 24.5,56.5 21.5,56.5C 20.8333,53.8333 20.1667,51.1667 19.5,48.5C 21.1172,47.962 22.7839,47.6287 24.5,47.5 Z"/></g>
<g><path style="opacity:1" fill="#e67b00" d="M 53.5,50.5 C 59.5,50.5 65.5,50.5 71.5,50.5C 71.5,51.5 71.5,52.5 71.5,53.5C 65.5,53.5 59.5,53.5 53.5,53.5C 53.5,52.5 53.5,51.5 53.5,50.5 Z"/></g>
<g><path style="opacity:1" fill="#fdda0c" d="M 3.5,55.5 C 5.28374,56.7199 6.95041,56.7199 8.5,55.5C 9.16667,55.5 9.83333,55.5 10.5,55.5C 14.0641,56.4227 17.7307,56.756 21.5,56.5C 24.5,56.5 27.5,56.5 30.5,56.5C 34.6002,56.7633 38.6002,56.4299 42.5,55.5C 44.5,55.5 46.5,55.5 48.5,55.5C 58.1667,56.8333 67.8333,56.8333 77.5,55.5C 78.5,55.5 79.5,55.5 80.5,55.5C 82.0496,56.7199 83.7163,56.7199 85.5,55.5C 87.4743,65.1107 88.141,75.1107 87.5,85.5C 58.8333,85.5 30.1667,85.5 1.5,85.5C 0.858987,75.1107 1.52565,65.1107 3.5,55.5 Z"/></g>
<g><path style="opacity:1" fill="#48bd01" d="M 59.5,66.5 C 58.5,66.1667 57.8333,65.5 57.5,64.5C 58.4654,61.9152 59.7988,61.4152 61.5,63C 61.0217,64.3026 60.355,65.4693 59.5,66.5 Z"/></g>
<g><path style="opacity:1" fill="#fd6934" d="M 57.5,64.5 C 57.8333,65.5 58.5,66.1667 59.5,66.5C 59.5,67.5 59.5,68.5 59.5,69.5C 59.607,71.9032 58.607,73.7365 56.5,75C 52.996,76.2545 49.6626,77.7545 46.5,79.5C 47.8333,76.5 47.8333,73.5 46.5,70.5C 47.8157,64.1835 51.4824,62.1835 57.5,64.5 Z"/></g>
<g><path style="opacity:1" fill="#7dd50d" d="M 46.5,70.5 C 47.8333,73.5 47.8333,76.5 46.5,79.5C 36.0637,80.5679 31.7304,76.0679 33.5,66C 38.9807,64.6581 43.314,66.1581 46.5,70.5 Z"/></g>
<g><path style="opacity:1" fill="#45bc02" d="M 59.5,66.5 C 60.5,66.5 61.5,66.5 62.5,66.5C 62.5,67.5 62.5,68.5 62.5,69.5C 61.5,69.5 60.5,69.5 59.5,69.5C 59.5,68.5 59.5,67.5 59.5,66.5 Z"/></g>
</svg>
