<?xml version="1.0" encoding="UTF-8"?>
<!DOCTYPE svg PUBLIC "-//W3C//DTD SVG 1.1//EN" "http://www.w3.org/Graphics/SVG/1.1/DTD/svg11.dtd">
<svg xmlns="http://www.w3.org/2000/svg" version="1.1" width="98px" height="94px" style="shape-rendering:geometricPrecision; text-rendering:geometricPrecision; image-rendering:optimizeQuality; fill-rule:evenodd; clip-rule:evenodd" xmlns:xlink="http://www.w3.org/1999/xlink">
<g><path style="opacity:0.938" fill="#464d57" d="M 38.5,-0.5 C 40.8333,-0.5 43.1667,-0.5 45.5,-0.5C 45.6107,0.117425 45.944,0.617425 46.5,1C 52.1667,1.33333 57.8333,1.66667 63.5,2C 70.1667,6 70.1667,10 63.5,14C 58.1667,14.3333 52.8333,14.6667 47.5,15C 46.0267,15.7096 45.3601,16.8762 45.5,18.5C 47.8568,18.3367 50.1902,18.5034 52.5,19C 53.9202,22.9267 55.5868,26.7601 57.5,30.5C 63.5704,31.3657 68.5704,34.0324 72.5,38.5C 71.8501,38.8039 71.1835,39.1373 70.5,39.5C 68.3733,36.5461 65.54,34.5461 62,33.5C 59.9701,33.9537 58.1368,34.6204 56.5,35.5C 52.0917,35.938 50.4251,33.938 51.5,29.5C 45.1667,29.5 38.8333,29.5 32.5,29.5C 32.5,31.5 32.5,33.5 32.5,35.5C 27.1667,35.5 21.8333,35.5 16.5,35.5C 16.5,39.1667 16.5,42.8333 16.5,46.5C 21.8437,46.334 27.1771,46.5006 32.5,47C 35.3525,51.2586 39.3525,53.0919 44.5,52.5C 45.3764,52.3691 46.0431,52.7025 46.5,53.5C 45.624,54.2508 44.624,54.7508 43.5,55C 46.0351,55.6174 48.3684,55.1174 50.5,53.5C 51.1067,53.6236 51.44,53.9569 51.5,54.5C 44.1884,58.8183 37.1884,58.3183 30.5,53C 26.1667,52.3333 21.8333,52.3333 17.5,53C 16.7785,55.7414 15.1118,56.7414 12.5,56C 11.3503,47.245 11.1837,38.4117 12,29.5C 13.6354,28.1514 15.1354,28.3181 16.5,30C 20.1516,30.4986 23.8183,30.6653 27.5,30.5C 27.0193,26.6509 28.686,24.6509 32.5,24.5C 37.3477,25.8137 42.3477,25.8137 47.5,24.5C 42.544,23.5059 37.544,23.1725 32.5,23.5C 30.7868,22.3646 30.1201,20.698 30.5,18.5C 33.1667,18.5 35.8333,18.5 38.5,18.5C 38.6399,16.8762 37.9733,15.7096 36.5,15C 31.1667,14.6667 25.8333,14.3333 20.5,14C 14.7995,11.1685 14.1328,7.50181 18.5,3C 24.0106,1.35737 29.5106,1.1907 35,2.5C 36.1451,1.36362 37.3117,0.363622 38.5,-0.5 Z"/></g>
<g><path style="opacity:1" fill="#acd7cd" d="M 40.5,4.5 C 45.4928,4.99704 46.4928,7.16371 43.5,11C 38.3947,10.7511 37.3947,8.58445 40.5,4.5 Z"/></g>
<g><path style="opacity:1" fill="#c8b985" d="M 20.5,7.5 C 25.2137,7.17338 29.8804,7.50671 34.5,8.5C 32.1667,8.83333 29.8333,9.16667 27.5,9.5C 24.7305,9.47144 22.3972,8.80478 20.5,7.5 Z"/></g>
<g><path style="opacity:1" fill="#bcb182" d="M 49.5,6.5 C 53.8333,6.5 58.1667,6.5 62.5,6.5C 62.5,7.5 62.5,8.5 62.5,9.5C 58.1667,9.5 53.8333,9.5 49.5,9.5C 49.5,8.5 49.5,7.5 49.5,6.5 Z"/></g>
<g><path style="opacity:1" fill="#809b98" d="M 32.5,23.5 C 37.544,23.1725 42.544,23.5059 47.5,24.5C 42.3477,25.8137 37.3477,25.8137 32.5,24.5C 32.5,24.1667 32.5,23.8333 32.5,23.5 Z"/></g>
<g><path style="opacity:1" fill="#add9cf" d="M 56.5,35.5 C 67.1233,38.1182 73.1233,44.7848 74.5,55.5C 71.4816,55.6646 68.4816,55.498 65.5,55C 62.6754,48.921 58.0087,46.5877 51.5,48C 49.24,49.7883 46.9066,51.2883 44.5,52.5C 39.3525,53.0919 35.3525,51.2586 32.5,47C 27.1771,46.5006 21.8437,46.334 16.5,46.5C 16.5,42.8333 16.5,39.1667 16.5,35.5C 21.8333,35.5 27.1667,35.5 32.5,35.5C 32.5,33.5 32.5,31.5 32.5,29.5C 38.8333,29.5 45.1667,29.5 51.5,29.5C 50.4251,33.938 52.0917,35.938 56.5,35.5 Z"/></g>
<g><path style="opacity:0.978" fill="#464e59" d="M 72.5,38.5 C 74.7957,40.4006 76.629,42.7339 78,45.5C 80.0497,50.4225 80.883,55.4225 80.5,60.5C 78.8849,61.154 77.2182,61.654 75.5,62C 80.1429,67.2869 83.4762,73.2869 85.5,80C 84.603,86.3854 81.2697,90.8854 75.5,93.5C 72.1667,93.5 68.8333,93.5 65.5,93.5C 56.2682,88.3872 54.1015,81.0538 59,71.5C 60.6768,68.1466 62.8434,65.1466 65.5,62.5C 62.8549,61.8081 60.3549,60.8081 58,59.5C 57.7351,57.8374 58.2351,56.3374 59.5,55C 56.9869,51.868 54.3202,51.7013 51.5,54.5C 51.44,53.9569 51.1067,53.6236 50.5,53.5C 48.3684,55.1174 46.0351,55.6174 43.5,55C 44.624,54.7508 45.624,54.2508 46.5,53.5C 46.0431,52.7025 45.3764,52.3691 44.5,52.5C 46.9066,51.2883 49.24,49.7883 51.5,48C 58.0087,46.5877 62.6754,48.921 65.5,55C 68.4816,55.498 71.4816,55.6646 74.5,55.5C 73.1233,44.7848 67.1233,38.1182 56.5,35.5C 58.1368,34.6204 59.9701,33.9537 62,33.5C 65.54,34.5461 68.3733,36.5461 70.5,39.5C 71.1835,39.1373 71.8501,38.8039 72.5,38.5 Z"/></g>
<g><path style="opacity:1" fill="#97b8d2" d="M 69.5,64.5 C 72.4218,66.594 74.9218,69.2607 77,72.5C 82.3206,84.7067 78.4873,89.54 65.5,87C 61.3873,83.4906 60.554,79.3239 63,74.5C 65.4367,71.2804 67.6033,67.947 69.5,64.5 Z"/></g>
<g><path style="opacity:1" fill="#f7fafc" d="M 65.5,80.5 C 68.8333,81.8333 72.1667,81.8333 75.5,80.5C 75.7204,84.3193 73.8871,85.986 70,85.5C 66.2415,85.907 64.7415,84.2403 65.5,80.5 Z"/></g>
</svg>
