<?xml version="1.0" encoding="UTF-8"?>
<!DOCTYPE svg PUBLIC "-//W3C//DTD SVG 1.1//EN" "http://www.w3.org/Graphics/SVG/1.1/DTD/svg11.dtd">
<svg xmlns="http://www.w3.org/2000/svg" version="1.1" width="79px" height="76px" style="shape-rendering:geometricPrecision; text-rendering:geometricPrecision; image-rendering:optimizeQuality; fill-rule:evenodd; clip-rule:evenodd" xmlns:xlink="http://www.w3.org/1999/xlink">
<g><path style="opacity:0.77" fill="#090d11" d="M 78.5,51.5 C 78.5,52.1667 78.5,52.8333 78.5,53.5C 78.1667,53.5 77.8333,53.5 77.5,53.5C 76.2921,54.2341 74.9587,54.5674 73.5,54.5C 73.13,58.1859 74.4633,59.1859 77.5,57.5C 77.8333,57.5 78.1667,57.5 78.5,57.5C 78.5,58.1667 78.5,58.8333 78.5,59.5C 78.1667,59.5 77.8333,59.5 77.5,59.5C 75.9668,60.4309 74.3002,61.0976 72.5,61.5C 69.8333,60.1667 67.1667,58.8333 64.5,57.5C 61.5,58.8333 58.5,60.1667 55.5,61.5C 52.5599,60.3932 49.7266,59.0599 47,57.5C 44.2071,59.2912 41.2071,60.6245 38,61.5C 35.301,59.9897 32.4676,58.6563 29.5,57.5C 27.0121,59.4683 24.1787,60.8016 21,61.5C 18.1136,60.3071 15.2803,58.9738 12.5,57.5C 8.88774,59.9716 4.88774,61.3049 0.5,61.5C 0.5,60.8333 0.166667,60.5 -0.5,60.5C -0.5,59.8333 -0.5,59.1667 -0.5,58.5C -0.166667,58.5 0.166667,58.5 0.5,58.5C 4.78348,58.5326 8.78348,57.5326 12.5,55.5C 15.242,56.6144 18.0754,57.6144 21,58.5C 23.9246,57.6144 26.758,56.6144 29.5,55.5C 32.634,56.2407 35.634,57.2407 38.5,58.5C 40.6878,58.6927 42.3545,57.8594 43.5,56C 45.4727,55.5045 47.4727,55.3379 49.5,55.5C 49.853,53.3652 49.0197,52.0319 47,51.5C 44.2071,53.2912 41.2071,54.6245 38,55.5C 35.1136,54.3071 32.2803,52.9738 29.5,51.5C 27.0121,53.4683 24.1787,54.8016 21,55.5C 18.1136,54.3071 15.2803,52.9738 12.5,51.5C 8.88774,53.9716 4.88774,55.3049 0.5,55.5C 0.166667,55.5 -0.166667,55.5 -0.5,55.5C -0.5,54.5 -0.5,53.5 -0.5,52.5C 0.801633,51.1931 2.13497,51.1931 3.5,52.5C 6.43343,50.8634 9.43343,49.5301 12.5,48.5C 15.478,49.4042 18.3113,50.7376 21,52.5C 26.7964,47.2117 32.6297,47.2117 38.5,52.5C 42.0315,49.735 46.0315,48.0683 50.5,47.5C 50.8333,46.8333 51.1667,46.1667 51.5,45.5C 47.2044,44.6725 42.8711,44.1725 38.5,44C 35.71,43.4391 33.3766,42.1058 31.5,40C 23.5,39.6667 15.5,39.3333 7.5,39C 4.13094,36.6351 1.96428,33.4685 1,29.5C -0.0979204,22.6154 0.568746,15.9487 3,9.5C 4.16667,8.33333 5.33333,7.16667 6.5,6C 14.7309,4.72713 23.0642,4.06047 31.5,4C 32.5505,2.61524 33.8839,1.61524 35.5,1C 60.6569,-4.1754 70.9902,5.8246 66.5,31C 68.837,35.1605 70.0036,39.6605 70,44.5C 71.5621,46.9573 72.5621,49.624 73,52.5C 74.6998,50.7011 76.5331,50.3677 78.5,51.5 Z"/></g>
<g><path style="opacity:1" fill="#00244e" d="M 38.5,3.5 C 40.6934,2.20308 43.0268,2.20308 45.5,3.5C 45.3764,4.10667 45.0431,4.44001 44.5,4.5C 42.7354,3.53862 40.7354,3.20528 38.5,3.5 Z"/></g>
<g><path style="opacity:1" fill="#0055b6" d="M 38.5,3.5 C 40.7354,3.20528 42.7354,3.53862 44.5,4.5C 36.6256,13.8873 35.4589,24.2206 41,35.5C 41.9487,37.0931 43.1154,38.4264 44.5,39.5C 42.3926,40.4682 40.0593,40.8016 37.5,40.5C 35.2843,39.7974 33.451,38.4641 32,36.5C 26.0614,26.805 26.0614,17.1383 32,7.5C 33.6379,5.26633 35.8045,3.933 38.5,3.5 Z"/></g>
<g><path style="opacity:1" fill="#004a9a" d="M 26.5,31.5 C 14.058,37.2846 7.39131,33.1179 6.5,19C 6.77393,15.4082 7.4406,11.9082 8.5,8.5C 15.0779,7.5399 21.7446,7.20656 28.5,7.5C 25.3406,15.2341 24.6739,23.2341 26.5,31.5 Z"/></g>
<g><path style="opacity:1" fill="#003e7b" d="M 8.5,8.5 C 7.4406,11.9082 6.77393,15.4082 6.5,19C 7.39131,33.1179 14.058,37.2846 26.5,31.5C 27.9313,32.7804 28.5979,34.4471 28.5,36.5C 8.67568,41.8357 0.509011,34.5023 4,14.5C 4.79181,11.8936 6.29181,9.89361 8.5,8.5 Z"/></g>
<g><path style="opacity:1" fill="#8aa3c2" d="M 48.5,3.5 C 57.1078,2.26995 62.2745,5.93662 64,14.5C 64.8283,19.202 64.6616,23.8687 63.5,28.5C 62.7763,23.1423 61.9429,17.809 61,12.5C 57.0656,4.77839 52.0656,3.77839 46,9.5C 40.046,21.0138 41.8793,31.0138 51.5,39.5C 49.8125,40.568 48.1459,40.4014 46.5,39C 40.4098,30.6862 38.9098,21.5195 42,11.5C 43.4785,8.17249 45.6452,5.50583 48.5,3.5 Z"/></g>
<g><path style="opacity:1" fill="#004a98" d="M 51.5,25.5 C 50.8333,22.8333 50.1667,20.1667 49.5,17.5C 48.9919,14.8239 48.8253,12.1572 49,9.5C 50.4659,7.6751 52.2992,7.1751 54.5,8C 56.6166,9.73092 58.1166,11.8976 59,14.5C 59.4988,18.4862 59.6655,22.4862 59.5,26.5C 56.8728,25.9084 54.2062,25.5751 51.5,25.5 Z"/></g>
<g><path style="opacity:1" fill="#003c76" d="M 45.5,15.5 C 46.7943,17.0478 47.4609,19.0478 47.5,21.5C 47.1667,23.5 46.8333,25.5 46.5,27.5C 45.5091,23.5546 45.1758,19.5546 45.5,15.5 Z"/></g>
<g><path style="opacity:1" fill="#002246" d="M 49.5,17.5 C 50.1667,20.1667 50.8333,22.8333 51.5,25.5C 51.44,26.0431 51.1067,26.3764 50.5,26.5C 49.5159,23.5719 49.1826,20.5719 49.5,17.5 Z"/></g>
<g><path style="opacity:1" fill="#bccae2" d="M 52.5,28.5 C 56.3159,29.5099 59.1493,31.8432 61,35.5C 62.2043,42.2686 63.7043,48.9353 65.5,55.5C 61.9637,55.9412 58.6303,56.9412 55.5,58.5C 54.2284,58.4302 53.0617,58.0968 52,57.5C 53.5157,51.3759 54.1824,45.0426 54,38.5C 50.6807,36.5927 48.1807,33.926 46.5,30.5C 48.1727,28.9137 50.1727,28.2471 52.5,28.5 Z"/></g>
<g><path style="opacity:1" fill="#ced7e6" d="M 52.5,28.5 C 58.9572,27.9749 63.4572,30.6416 66,36.5C 66.7852,43.349 68.2852,50.0157 70.5,56.5C 68.8084,57.2008 67.1417,56.8675 65.5,55.5C 63.7043,48.9353 62.2043,42.2686 61,35.5C 59.1493,31.8432 56.3159,29.5099 52.5,28.5 Z"/></g>
<g><path style="opacity:1" fill="#002d60" d="M 44.5,39.5 C 45.0431,39.56 45.3764,39.8933 45.5,40.5C 42.6908,41.8003 40.0241,41.8003 37.5,40.5C 40.0593,40.8016 42.3926,40.4682 44.5,39.5 Z"/></g>
<g><path style="opacity:1" fill="#328ac2" d="M 0.5,58.5 C 0.5,57.5 0.5,56.5 0.5,55.5C 4.88774,55.3049 8.88774,53.9716 12.5,51.5C 15.2803,52.9738 18.1136,54.3071 21,55.5C 24.1787,54.8016 27.0121,53.4683 29.5,51.5C 32.2803,52.9738 35.1136,54.3071 38,55.5C 41.2071,54.6245 44.2071,53.2912 47,51.5C 49.0197,52.0319 49.853,53.3652 49.5,55.5C 47.4727,55.3379 45.4727,55.5045 43.5,56C 42.3545,57.8594 40.6878,58.6927 38.5,58.5C 35.634,57.2407 32.634,56.2407 29.5,55.5C 26.758,56.6144 23.9246,57.6144 21,58.5C 18.0754,57.6144 15.242,56.6144 12.5,55.5C 8.78348,57.5326 4.78348,58.5326 0.5,58.5 Z"/></g>
<g><path style="opacity:1" fill="#2f80b5" d="M 77.5,53.5 C 77.5,54.8333 77.5,56.1667 77.5,57.5C 74.4633,59.1859 73.13,58.1859 73.5,54.5C 74.9587,54.5674 76.2921,54.2341 77.5,53.5 Z"/></g>
<g><path style="opacity:1" fill="#40aedc" d="M 77.5,59.5 C 77.5,61.1667 77.5,62.8333 77.5,64.5C 76.0328,64.8938 74.5328,65.2272 73,65.5C 70,64.5 67,63.5 64,62.5C 61.0754,63.3856 58.242,64.3856 55.5,65.5C 52.634,64.2407 49.634,63.2407 46.5,62.5C 43.8333,63.5 41.1667,64.5 38.5,65.5C 35.634,64.2407 32.634,63.2407 29.5,62.5C 26.8333,63.5 24.1667,64.5 21.5,65.5C 18.2904,64.6457 15.1238,63.6457 12,62.5C 9.96759,62.8584 8.13426,63.6917 6.5,65C 4.5273,65.4955 2.5273,65.6621 0.5,65.5C 0.5,64.1667 0.5,62.8333 0.5,61.5C 4.88774,61.3049 8.88774,59.9716 12.5,57.5C 15.2803,58.9738 18.1136,60.3071 21,61.5C 24.1787,60.8016 27.0121,59.4683 29.5,57.5C 32.4676,58.6563 35.301,59.9897 38,61.5C 41.2071,60.6245 44.2071,59.2912 47,57.5C 49.7266,59.0599 52.5599,60.3932 55.5,61.5C 58.5,60.1667 61.5,58.8333 64.5,57.5C 67.1667,58.8333 69.8333,60.1667 72.5,61.5C 74.3002,61.0976 75.9668,60.4309 77.5,59.5 Z"/></g>
<g><path style="opacity:1" fill="#10191e" d="M 77.5,64.5 C 77.8333,64.5 78.1667,64.5 78.5,64.5C 78.5,65.1667 78.5,65.8333 78.5,66.5C 78.1667,66.5 77.8333,66.5 77.5,66.5C 75.9668,67.4309 74.3002,68.0976 72.5,68.5C 69.5881,67.5711 66.9214,66.2378 64.5,64.5C 61.6484,66.0909 58.6484,67.4242 55.5,68.5C 52.5599,67.3932 49.7266,66.0599 47,64.5C 44.2071,66.2912 41.2071,67.6245 38,68.5C 35.2221,67.4444 32.5554,66.1111 30,64.5C 27.2071,66.2912 24.2071,67.6245 21,68.5C 18.0754,67.6144 15.242,66.6144 12.5,65.5C 8.64236,67.0971 4.64236,68.0971 0.5,68.5C 0.166667,68.5 -0.166667,68.5 -0.5,68.5C -0.5,67.8333 -0.5,67.1667 -0.5,66.5C 0.166667,66.5 0.5,66.1667 0.5,65.5C 2.5273,65.6621 4.5273,65.4955 6.5,65C 8.13426,63.6917 9.96759,62.8584 12,62.5C 15.1238,63.6457 18.2904,64.6457 21.5,65.5C 24.1667,64.5 26.8333,63.5 29.5,62.5C 32.634,63.2407 35.634,64.2407 38.5,65.5C 41.1667,64.5 43.8333,63.5 46.5,62.5C 49.634,63.2407 52.634,64.2407 55.5,65.5C 58.242,64.3856 61.0754,63.3856 64,62.5C 67,63.5 70,64.5 73,65.5C 74.5328,65.2272 76.0328,64.8938 77.5,64.5 Z"/></g>
<g><path style="opacity:1" fill="#61bade" d="M 77.5,66.5 C 77.5,67.8333 77.5,69.1667 77.5,70.5C 76.0328,70.8938 74.5328,71.2272 73,71.5C 70,70.5 67,69.5 64,68.5C 61.0754,69.3856 58.242,70.3856 55.5,71.5C 52.634,70.2407 49.634,69.2407 46.5,68.5C 43.8333,69.5 41.1667,70.5 38.5,71.5C 35.634,70.2407 32.634,69.2407 29.5,68.5C 26.758,69.6144 23.9246,70.6144 21,71.5C 18.0754,70.6144 15.242,69.6144 12.5,68.5C 8.78348,70.5326 4.78348,71.5326 0.5,71.5C 0.5,70.5 0.5,69.5 0.5,68.5C 4.64236,68.0971 8.64236,67.0971 12.5,65.5C 15.242,66.6144 18.0754,67.6144 21,68.5C 24.2071,67.6245 27.2071,66.2912 30,64.5C 32.5554,66.1111 35.2221,67.4444 38,68.5C 41.2071,67.6245 44.2071,66.2912 47,64.5C 49.7266,66.0599 52.5599,67.3932 55.5,68.5C 58.6484,67.4242 61.6484,66.0909 64.5,64.5C 66.9214,66.2378 69.5881,67.5711 72.5,68.5C 74.3002,68.0976 75.9668,67.4309 77.5,66.5 Z"/></g>
<g><path style="opacity:1" fill="#10171a" d="M 77.5,70.5 C 77.8333,70.5 78.1667,70.5 78.5,70.5C 78.5,71.1667 78.5,71.8333 78.5,72.5C 78.1667,72.5 77.8333,72.5 77.5,72.5C 76.2905,72.9321 75.2905,73.5987 74.5,74.5C 73.1667,74.5 71.8333,74.5 70.5,74.5C 68.7887,72.7984 66.7887,71.4651 64.5,70.5C 61.9785,71.5914 59.6451,72.9247 57.5,74.5C 56.1667,74.5 54.8333,74.5 53.5,74.5C 49.1667,69.1667 44.8333,69.1667 40.5,74.5C 39.1667,74.5 37.8333,74.5 36.5,74.5C 34.3549,72.9247 32.0215,71.5914 29.5,70.5C 27.1308,71.8915 24.7975,73.2248 22.5,74.5C 21.1667,74.5 19.8333,74.5 18.5,74.5C 14.2521,69.2994 9.91878,69.2994 5.5,74.5C 3.5,74.5 1.5,74.5 -0.5,74.5C -0.5,73.8333 -0.5,73.1667 -0.5,72.5C 0.166667,72.5 0.5,72.1667 0.5,71.5C 4.78348,71.5326 8.78348,70.5326 12.5,68.5C 15.242,69.6144 18.0754,70.6144 21,71.5C 23.9246,70.6144 26.758,69.6144 29.5,68.5C 32.634,69.2407 35.634,70.2407 38.5,71.5C 41.1667,70.5 43.8333,69.5 46.5,68.5C 49.634,69.2407 52.634,70.2407 55.5,71.5C 58.242,70.3856 61.0754,69.3856 64,68.5C 67,69.5 70,70.5 73,71.5C 74.5328,71.2272 76.0328,70.8938 77.5,70.5 Z"/></g>
<g><path style="opacity:1" fill="#7ecbe2" d="M 18.5,74.5 C 14.1667,74.5 9.83333,74.5 5.5,74.5C 9.91878,69.2994 14.2521,69.2994 18.5,74.5 Z"/></g>
<g><path style="opacity:1" fill="#7fcce4" d="M 36.5,74.5 C 31.8333,74.5 27.1667,74.5 22.5,74.5C 24.7975,73.2248 27.1308,71.8915 29.5,70.5C 32.0215,71.5914 34.3549,72.9247 36.5,74.5 Z"/></g>
<g><path style="opacity:1" fill="#81d0e7" d="M 53.5,74.5 C 49.1667,74.5 44.8333,74.5 40.5,74.5C 44.8333,69.1667 49.1667,69.1667 53.5,74.5 Z"/></g>
<g><path style="opacity:1" fill="#80cfe7" d="M 70.5,74.5 C 66.1667,74.5 61.8333,74.5 57.5,74.5C 59.6451,72.9247 61.9785,71.5914 64.5,70.5C 66.7887,71.4651 68.7887,72.7984 70.5,74.5 Z"/></g>
<g><path style="opacity:0.62" fill="#77c0d7" d="M 77.5,72.5 C 77.1788,74.0481 76.1788,74.7148 74.5,74.5C 75.2905,73.5987 76.2905,72.9321 77.5,72.5 Z"/></g>
</svg>
