<?xml version="1.0" encoding="UTF-8"?>
<!DOCTYPE svg PUBLIC "-//W3C//DTD SVG 1.1//EN" "http://www.w3.org/Graphics/SVG/1.1/DTD/svg11.dtd">
<svg xmlns="http://www.w3.org/2000/svg" version="1.1" width="1106px" height="1110px" style="shape-rendering:geometricPrecision; text-rendering:geometricPrecision; image-rendering:optimizeQuality; fill-rule:evenodd; clip-rule:evenodd" xmlns:xlink="http://www.w3.org/1999/xlink">
<g><path style="opacity:0.999" fill="#c27257" d="M 521.5,-0.5 C 542.167,-0.5 562.833,-0.5 583.5,-0.5C 742.673,11.8352 874.173,78.1686 978,198.5C 1054.61,292.769 1097.11,400.769 1105.5,522.5C 1105.5,543.833 1105.5,565.167 1105.5,586.5C 1091.97,757.997 1017.63,896.164 882.5,1001C 793.627,1066.35 693.96,1102.52 583.5,1109.5C 562.833,1109.5 542.167,1109.5 521.5,1109.5C 362.146,1097.48 230.646,1031.15 127,910.5C 50.3933,816.232 7.89326,708.232 -0.5,586.5C -0.5,565.167 -0.5,543.833 -0.5,522.5C 11.567,362.863 77.9004,231.03 198.5,127C 292.344,50.3133 400.01,7.81328 521.5,-0.5 Z"/></g>
<g><path style="opacity:1" fill="#c07157" d="M 680.5,86.5 C 717.003,82.5165 745.836,95.1832 767,124.5C 777.319,140.459 786.319,157.125 794,174.5C 803.295,204.225 796.795,229.725 774.5,251C 757.974,262.209 740.974,272.542 723.5,282C 719.358,284.309 716.024,287.476 713.5,291.5C 714.648,293.149 715.981,294.649 717.5,296C 752.021,312.855 777.521,338.688 794,373.5C 798.076,383.281 801.743,393.281 805,403.5C 810.302,412.146 815.635,420.813 821,429.5C 827.345,442.534 830.512,456.368 830.5,471C 817.887,612.526 805.054,754.026 792,895.5C 784.546,955.832 750.38,987.332 689.5,990C 592.833,990.667 496.167,990.667 399.5,990C 342.559,988.133 308.726,959.299 298,903.5C 285.715,777.897 274.049,652.23 263,526.5C 262.23,521.071 260.397,516.071 257.5,511.5C 235.8,490.104 219.633,465.104 209,436.5C 197.064,392.883 208.564,356.883 243.5,328.5C 250.772,323.596 258.106,318.763 265.5,314C 287.415,301.751 309.081,289.084 330.5,276C 333.762,273.408 336.262,270.241 338,266.5C 338.818,238.695 350.318,216.528 372.5,200C 407.072,178.388 442.405,158.388 478.5,140C 502.712,131.989 526.379,133.322 549.5,144C 552.167,144.667 554.833,144.667 557.5,144C 577.225,134.637 596.225,123.97 614.5,112C 629.108,103.362 644.441,96.362 660.5,91C 667.285,89.4457 673.952,87.9457 680.5,86.5 Z"/></g>
<g><path style="opacity:1" fill="#bd6f55" d="M 359.5,971.5 C 358.448,971.351 357.448,971.517 356.5,972C 357.696,972.654 357.696,973.154 356.5,973.5C 327.251,959.375 310.917,936.708 307.5,905.5C 304.51,901.91 303.844,897.91 305.5,893.5C 302.498,887.986 301.831,882.152 303.5,876C 300.641,868.719 299.974,861.219 301.5,853.5C 299.272,851.054 298.939,848.387 300.5,845.5C 297.61,838.375 296.943,831.041 298.5,823.5C 295.621,816.546 294.955,809.379 296.5,802C 293.652,794.018 292.818,785.851 294,777.5C 293.667,777.833 293.333,778.167 293,778.5C 291.573,770.831 291.24,763.164 292,755.5C 291.667,755.833 291.333,756.167 291,756.5C 289.529,749.507 289.363,742.507 290.5,735.5C 287.58,728.212 286.913,720.712 288.5,713C 288.333,712.167 288.167,711.333 288,710.5C 287.667,710.833 287.333,711.167 287,711.5C 285.529,704.507 285.363,697.507 286.5,690.5C 283.195,680.726 282.195,670.726 283.5,660.5C 280.545,652.877 279.879,645.044 281.5,637C 278.61,630.605 277.944,623.272 279.5,615C 279.333,614.167 279.167,613.333 279,612.5C 278.667,612.833 278.333,613.167 278,613.5C 276.599,606.339 276.432,599.172 277.5,592C 274.599,584.355 273.932,576.522 275.5,568.5C 272.58,561.212 271.913,553.712 273.5,546C 273.333,545.167 273.167,544.333 273,543.5C 272.667,543.833 272.333,544.167 272,544.5C 270.661,537.482 270.328,530.482 271,523.5C 270.667,523.833 270.333,524.167 270,524.5C 268.172,520.23 267.505,515.897 268,511.5C 267.683,513.301 267.016,513.634 266,512.5C 261.542,504.62 255.875,497.62 249,491.5C 243.584,484.332 238.417,476.999 233.5,469.5C 233.846,468.304 234.346,468.304 235,469.5C 235.667,468.833 235.667,468.167 235,467.5C 233.865,467.273 232.698,466.94 231.5,466.5C 232.025,465.808 232.692,465.308 233.5,465C 232.448,463.881 231.281,463.381 230,463.5C 222.431,451.359 216.764,438.359 213,424.5C 212.393,421.798 212.56,419.132 213.5,416.5C 213.263,413.937 212.763,413.937 212,416.5C 211.333,409.5 211.333,402.5 212,395.5C 212.889,396.888 213.389,396.722 213.5,395C 212.945,387.959 214.111,381.126 217,374.5C 217.92,374.07 218.753,373.736 219.5,373.5C 218.572,372.232 218.405,370.899 219,369.5C 223.155,363.2 227.321,356.867 231.5,350.5C 237.145,345.767 242.479,340.601 247.5,335C 264.498,323.188 282.164,312.355 300.5,302.5C 301.696,302.846 301.696,303.346 300.5,304C 302.944,304.399 303.61,303.566 302.5,301.5C 309.157,298.173 315.49,294.34 321.5,290C 322.744,289.544 323.577,290.044 324,291.5C 326.734,290.638 326.901,289.805 324.5,289C 325.833,288 327.167,287 328.5,286C 329.5,286.333 330.5,286.667 331.5,287C 332.833,286.333 332.833,285.667 331.5,285C 341.094,279.331 346.261,270.831 347,259.5C 347.333,261.5 347.667,263.5 348,265.5C 349.092,261.203 349.425,256.869 349,252.5C 348.667,254.167 348.333,255.833 348,257.5C 347.556,251.604 348.556,245.937 351,240.5C 351.984,242.795 352.817,242.461 353.5,239.5C 352.559,239.511 351.892,239.011 351.5,238C 356.166,226.331 363.499,216.664 373.5,209C 379.108,205.724 384.442,202.057 389.5,198C 390.5,198.333 391.5,198.667 392.5,199C 393.641,198.259 393.641,197.425 392.5,196.5C 401.3,191.598 409.966,186.432 418.5,181C 419.5,181.333 420.5,181.667 421.5,182C 421.833,181 422.167,180 422.5,179C 429.801,174.68 437.134,170.347 444.5,166C 445.5,166.333 446.5,166.667 447.5,167C 448.641,166.259 448.641,165.425 447.5,164.5C 455.766,159.449 464.266,154.783 473,150.5C 474.011,150.892 474.511,151.559 474.5,152.5C 476.276,151.685 476.943,150.518 476.5,149C 479.814,146.791 483.314,146.291 487,147.5C 488.762,147.056 488.595,146.556 486.5,146C 489.219,144.216 492.052,144.05 495,145.5C 495.833,145.333 496.667,145.167 497.5,145C 493.148,144.581 492.815,143.914 496.5,143C 505.927,140.786 515.26,141.119 524.5,144C 523.167,144.333 521.833,144.667 520.5,145C 521.333,145.167 522.167,145.333 523,145.5C 525.154,144.748 527.32,144.581 529.5,145C 536.091,147.531 542.758,149.864 549.5,152C 548.304,152.654 548.304,153.154 549.5,153.5C 552.318,152.217 555.152,152.217 558,153.5C 559.762,153.056 559.595,152.556 557.5,152C 563.402,150.05 569.068,147.55 574.5,144.5C 576.838,146.011 577.504,145.677 576.5,143.5C 578.5,142.167 580.5,140.833 582.5,139.5C 583.696,139.846 583.696,140.346 582.5,141C 583.167,141.667 583.833,141.667 584.5,141C 584.446,139.649 584.946,138.482 586,137.5C 593.533,133.314 601.033,128.98 608.5,124.5C 609.696,124.846 609.696,125.346 608.5,126C 610.944,126.399 611.61,125.566 610.5,123.5C 628.607,112.097 646.941,103.263 665.5,97C 669.653,96.0866 673.82,95.2533 678,94.5C 679.813,94.8266 681.48,95.4933 683,96.5C 689.333,95.1667 695.667,95.1667 702,96.5C 705.696,94.1168 709.53,93.9501 713.5,96C 712.167,96.3333 710.833,96.6667 709.5,97C 724.68,96.8462 739.847,105.013 755,121.5C 763.005,132.843 770.505,144.509 777.5,156.5C 776.833,156.833 776.167,157.167 775.5,157.5C 776.315,159.276 777.482,159.943 779,159.5C 797.89,196.719 793.057,226.553 764.5,249C 751.833,257.525 738.833,265.358 725.5,272.5C 724.304,272.154 724.304,271.654 725.5,271C 723.056,270.601 722.39,271.434 723.5,273.5C 714.771,278.36 706.438,283.86 698.5,290C 697.446,291.388 697.28,292.888 698,294.5C 712.239,301.7 726.072,309.534 739.5,318C 763.571,336.929 781.238,360.762 792.5,389.5C 792.154,390.696 791.654,390.696 791,389.5C 790.48,391.289 790.813,392.956 792,394.5C 792.333,393.5 792.667,392.5 793,391.5C 796.152,397.262 797.818,403.262 798,409.5C 798.317,407.699 798.984,407.366 800,408.5C 802.838,414.177 805.672,419.844 808.5,425.5C 818.553,438.358 823.053,453.024 822,469.5C 821.667,466.167 821.333,462.833 821,459.5C 820.333,469.5 820.333,479.5 821,489.5C 821.333,485.167 821.667,480.833 822,476.5C 822.702,487.574 822.035,498.574 820,509.5C 819.667,506.833 819.333,504.167 819,501.5C 818.473,507.344 818.639,513.178 819.5,519C 819.123,523.514 818.623,528.014 818,532.5C 817.667,530.167 817.333,527.833 817,525.5C 816.5,531.01 816.667,536.51 817.5,542C 817.187,546.189 816.687,550.356 816,554.5C 815.667,552.167 815.333,549.833 815,547.5C 814.5,553.01 814.667,558.51 815.5,564C 815.123,568.514 814.623,573.014 814,577.5C 813.667,575.167 813.333,572.833 813,570.5C 812.833,572.167 812.667,573.833 812.5,575.5C 813.876,583.196 813.71,590.863 812,598.5C 811.667,596.5 811.333,594.5 811,592.5C 810.608,595.188 810.108,597.855 809.5,600.5C 810.57,602.879 811.237,605.379 811.5,608C 811.187,612.189 810.687,616.356 810,620.5C 809.667,618.167 809.333,615.833 809,613.5C 808.704,616.706 808.204,619.872 807.5,623C 808.604,625.009 809.271,627.176 809.5,629.5C 809.082,633.843 808.582,638.176 808,642.5C 807.333,631.833 806.667,631.833 806,642.5C 805.333,646.167 805.333,649.833 806,653.5C 806.333,650.833 806.667,648.167 807,645.5C 806.391,661.534 805.058,677.534 803,693.5C 802.667,691.167 802.333,688.833 802,686.5C 801.533,691.675 801.7,696.842 802.5,702C 802.123,706.514 801.623,711.014 801,715.5C 800.667,712.833 800.333,710.167 800,707.5C 799.473,713.344 799.639,719.178 800.5,725C 800.187,729.189 799.687,733.356 799,737.5C 798.667,734.833 798.333,732.167 798,729.5C 797.945,737.169 797.945,744.836 798,752.5C 797.333,763.167 796.667,763.167 796,752.5C 795.639,755.525 795.139,758.525 794.5,761.5C 795.592,764.044 796.259,766.711 796.5,769.5C 796.234,773.86 795.734,778.193 795,782.5C 794.667,780.167 794.333,777.833 794,775.5C 793.704,778.706 793.204,781.872 792.5,785C 793.625,787.175 794.292,789.509 794.5,792C 794.123,796.514 793.623,801.014 793,805.5C 792.333,794.833 791.667,794.833 791,805.5C 790.333,809.167 790.333,812.833 791,816.5C 791.333,814.167 791.667,811.833 792,809.5C 792.608,815.874 792.275,822.207 791,828.5C 790.333,817.833 789.667,817.833 789,828.5C 788.333,832.5 788.333,836.5 789,840.5C 789.333,837.833 789.667,835.167 790,832.5C 790.374,841.559 789.707,850.559 788,859.5C 787.667,856.833 787.333,854.167 787,851.5C 786.945,859.169 786.945,866.836 787,874.5C 786.333,883.833 785.667,883.833 785,874.5C 784.434,879.183 784.601,883.85 785.5,888.5C 785.194,891.532 784.694,894.532 784,897.5C 783.667,895.833 783.333,894.167 783,892.5C 784.183,900.745 783.183,908.745 780,916.5C 779.667,915.5 779.333,914.5 779,913.5C 778.691,914.766 778.191,915.933 777.5,917C 778.516,917.519 779.182,918.353 779.5,919.5C 768.619,951.551 746.786,971.551 714,979.5C 711.522,978.668 709.022,978.501 706.5,979C 707.833,979.333 709.167,979.667 710.5,980C 703.967,982.109 697.3,982.776 690.5,982C 692.833,981.667 695.167,981.333 697.5,981C 595.167,981.664 492.834,981.664 390.5,981C 393.167,981.333 395.833,981.667 398.5,982C 392.012,982.834 385.679,982.168 379.5,980C 380.833,979.667 382.167,979.333 383.5,979C 380.641,978.447 377.808,978.614 375,979.5C 373.373,979.375 371.873,978.875 370.5,978C 372.595,977.444 372.762,976.944 371,976.5C 368.651,977.976 366.484,977.81 364.5,976C 365.167,975.667 365.833,975.333 366.5,975C 364.189,975.155 361.856,975.155 359.5,975C 359.799,973.927 359.799,972.76 359.5,971.5 Z"/></g>
<g><path style="opacity:1" fill="#b86c53" d="M 359.5,971.5 C 339.797,961.629 325.297,946.629 316,926.5C 311.513,914.949 308.513,902.949 307,890.5C 299.03,803.258 290.864,716.091 282.5,629C 282.559,627.564 282.892,626.231 283.5,625C 279.769,588.535 275.935,552.035 272,515.5C 267.583,505.744 261.25,497.411 253,490.5C 236.824,470.818 224.824,448.818 217,424.5C 211.295,396.945 217.628,372.612 236,351.5C 248.536,338.57 262.37,328.07 277.5,320C 297.538,308.586 317.538,297.086 337.5,285.5C 342.786,281.584 346.62,276.584 349,270.5C 349.172,249.683 356.338,231.85 370.5,217C 383.871,205.785 398.038,196.619 413,189.5C 430.805,179.046 448.638,168.546 466.5,158C 483.504,148.12 501.837,144.454 521.5,147C 530.827,149.243 539.827,152.243 548.5,156C 551.5,156.667 554.5,156.667 557.5,156C 565.079,153.75 572.246,150.584 579,146.5C 598.089,135.143 617.256,123.976 636.5,113C 657.243,101.431 679.577,96.4308 703.5,98C 729.198,102.038 748.698,115.204 762,137.5C 766.601,146.425 771.601,155.092 777,163.5C 795.124,201.049 786.624,230.882 751.5,253C 731.577,264.3 711.911,275.967 692.5,288C 688.377,291.241 688.043,294.574 691.5,298C 712.451,305.376 731.451,316.209 748.5,330.5C 760.353,342.186 770.52,355.186 779,369.5C 786.09,384.443 792.59,399.61 798.5,415C 803.395,422.693 808.228,430.86 813,439.5C 815.469,446.256 817.136,453.256 818,460.5C 818.609,475.85 818.275,491.183 817,506.5C 805.302,630.409 793.968,754.409 783,878.5C 782,901.836 775.834,923.169 764.5,942.5C 745.536,966.571 720.536,978.737 689.5,979C 592.5,979.667 495.5,979.667 398.5,979C 385.137,977.904 372.137,975.404 359.5,971.5 Z"/></g>
<g><path style="opacity:1" fill="#b26851" d="M 680.5,102.5 C 710.779,98.9691 734.945,109.302 753,133.5C 763.672,148.728 772.339,164.728 779,181.5C 784.97,203.457 779.804,222.291 763.5,238C 758.5,241.667 753.5,245.333 748.5,249C 726.37,261.817 704.37,274.817 682.5,288C 680.667,289.833 678.833,291.667 677,293.5C 676.333,295.167 676.333,296.833 677,298.5C 681.701,301.429 686.701,303.762 692,305.5C 710.356,310.096 726.856,318.596 741.5,331C 766.17,354.168 783.337,382.001 793,414.5C 797.162,422.828 801.829,430.828 807,438.5C 812.265,449.729 814.765,461.563 814.5,474C 802.243,616.748 789.077,759.581 775,902.5C 766.588,942.246 742.421,965.746 702.5,973C 600.519,974.644 498.519,974.977 396.5,974C 349.353,969.828 321.353,944.828 312.5,899C 300.703,773.732 289.203,648.232 278,522.5C 277.371,515.69 275.371,509.357 272,503.5C 263.018,493.459 254.018,482.793 245,471.5C 234.041,455.174 225.875,437.84 220.5,419.5C 216.821,389.255 227.154,363.922 251.5,343.5C 257.307,339.526 262.974,335.36 268.5,331C 295.213,316.451 321.713,300.618 348,283.5C 350.413,280.938 352.08,277.938 353,274.5C 354.594,265.15 356.261,255.817 358,246.5C 362.186,233.626 369.686,223.126 380.5,215C 387.833,210 395.167,205 402.5,200C 428.75,185.153 454.584,170.653 480,156.5C 480.333,156.833 480.667,157.167 481,157.5C 499.695,148.167 518.028,148.167 536,157.5C 536.333,157.167 536.667,156.833 537,156.5C 544.14,161.174 551.973,162.674 560.5,161C 584.875,148.966 608.542,135.633 631.5,121C 642.619,115.439 653.952,110.439 665.5,106C 670.664,104.957 675.664,103.79 680.5,102.5 Z"/></g>
<g><path style="opacity:1" fill="#ab644e" d="M 680.5,106.5 C 701.874,103.923 720.874,109.256 737.5,122.5C 750.111,135.039 760.278,149.372 768,165.5C 785.707,201.183 777.207,228.683 742.5,248C 720.928,259.902 699.595,272.235 678.5,285C 674.667,288.167 670.833,291.333 667,294.5C 664.307,299.508 665.807,302.675 671.5,304C 715.855,311.4 749.022,334.567 771,373.5C 777.498,386.159 783.164,399.159 788,412.5C 792.932,422.421 798.265,432.087 804,441.5C 807.398,449.488 809.398,457.821 810,466.5C 809.975,484.871 808.975,503.205 807,521.5C 795.58,641.459 784.58,761.459 774,881.5C 772.942,901.665 767.276,920.332 757,937.5C 743.18,955.333 725.013,965.833 702.5,969C 600.187,970.646 497.854,970.98 395.5,970C 353.841,966.813 328.008,944.98 318,904.5C 316.248,895.566 314.915,886.566 314,877.5C 303,757.83 292,638.163 281,518.5C 280.035,511.623 277.702,505.29 274,499.5C 253.91,480.072 238.576,457.405 228,431.5C 219.263,405.12 223.596,381.12 241,359.5C 247.049,352.948 253.549,346.948 260.5,341.5C 288.169,324.33 316.169,307.663 344.5,291.5C 351.467,286.893 355.967,280.56 358,272.5C 357.642,252.066 364.809,234.899 379.5,221C 386.021,215.28 393.021,210.28 400.5,206C 421.167,194 441.833,182 462.5,170C 474.732,163.033 487.732,158.033 501.5,155C 506.5,154.333 511.5,154.333 516.5,155C 526.801,157.545 536.801,160.878 546.5,165C 551.167,165.667 555.833,165.667 560.5,165C 580.413,155.377 599.746,144.71 618.5,133C 629.167,127.333 639.833,121.667 650.5,116C 660.267,111.687 670.267,108.52 680.5,106.5 Z"/></g>
<g><path style="opacity:1" fill="#a5614c" d="M 688.5,108.5 C 711.858,107.939 730.858,116.606 745.5,134.5C 756.76,150.351 765.926,167.351 773,185.5C 777.432,207.46 770.598,224.96 752.5,238C 724.924,254.763 697.257,271.263 669.5,287.5C 665.213,290.285 661.38,293.618 658,297.5C 656.813,299.044 656.48,300.711 657,302.5C 659.425,304.631 662.258,306.131 665.5,307C 697.609,309.809 724.775,322.642 747,345.5C 764.545,364.907 777.211,387.24 785,412.5C 789.586,422.681 794.92,432.347 801,441.5C 803.807,447.921 805.807,454.588 807,461.5C 807.667,472.167 807.667,482.833 807,493.5C 794.422,628.296 781.755,763.296 769,898.5C 761.753,938.748 737.92,961.582 697.5,967C 601.179,968.625 504.845,968.958 408.5,968C 354.932,967.987 324.765,941.487 318,888.5C 306.463,765.851 295.13,643.185 284,520.5C 283.198,513.432 281.198,506.765 278,500.5C 268.654,490.151 259.654,479.485 251,468.5C 239.462,452.424 231.462,434.758 227,415.5C 224.712,395.706 229.712,378.039 242,362.5C 248.198,355.968 254.698,349.801 261.5,344C 290.335,326.415 319.335,309.082 348.5,292C 353.146,288.358 356.646,283.858 359,278.5C 361.243,268.239 363.243,257.905 365,247.5C 368.969,237.731 374.802,229.231 382.5,222C 392.156,214.837 402.156,208.17 412.5,202C 435.57,188.467 458.903,175.467 482.5,163C 493.765,157.954 505.432,156.287 517.5,158C 527.474,160.489 537.141,163.823 546.5,168C 553.355,169.035 560.022,168.368 566.5,166C 595.103,150.028 623.77,134.028 652.5,118C 664.151,112.922 676.151,109.756 688.5,108.5 Z"/></g>
<g><path style="opacity:1" fill="#9f5d49" d="M 680.5,111.5 C 705.837,108.032 726.67,116.032 743,135.5C 753.449,149.388 762.115,164.388 769,180.5C 775.707,201.847 770.541,219.68 753.5,234C 727.293,251.273 700.293,267.273 672.5,282C 665.833,286.667 659.167,291.333 652.5,296C 643.545,303.468 644.878,307.801 656.5,309C 692.847,309.895 723.347,323.729 748,350.5C 763.468,368.758 774.801,389.425 782,412.5C 786.239,421.984 791.239,430.984 797,439.5C 801.69,448.913 804.357,458.913 805,469.5C 799.514,550.509 792.348,631.342 783.5,712C 779.182,767.226 774.182,822.559 768.5,878C 768.746,899.716 762.579,919.549 750,937.5C 734.466,954.848 714.966,964.015 691.5,965C 593.5,965.667 495.5,965.667 397.5,965C 359.922,962.47 335.422,943.303 324,907.5C 320.881,893.664 318.881,879.664 318,865.5C 307.393,749.157 296.726,632.824 286,516.5C 284.854,509.727 282.52,503.394 279,497.5C 270.667,487.833 262.333,478.167 254,468.5C 245.714,456.265 238.714,443.265 233,429.5C 224.732,403.837 229.399,380.837 247,360.5C 252.833,355.333 258.667,350.167 264.5,345C 293.898,327.307 323.232,309.64 352.5,292C 355.933,288.958 358.766,285.458 361,281.5C 363.316,272.291 364.982,262.958 366,253.5C 369.199,240.635 376.032,230.135 386.5,222C 414.741,203.432 443.741,186.099 473.5,170C 487.761,161.266 503.094,158.266 519.5,161C 528.599,164.049 537.599,167.382 546.5,171C 553.004,171.93 559.338,171.264 565.5,169C 594.801,152.681 624.135,136.348 653.5,120C 662.445,116.686 671.445,113.853 680.5,111.5 Z"/></g>
<g><path style="opacity:1" fill="#975946" d="M 682.5,113.5 C 705.715,110.743 724.882,118.076 740,135.5C 751.675,150.676 761.175,167.176 768.5,185C 772.853,206.529 765.52,223.695 746.5,236.5C 716.833,254 687.167,271.5 657.5,289C 649.253,293.911 642.253,300.245 636.5,308C 637.5,309 638.5,310 639.5,311C 687.434,307.515 725.934,324.682 755,362.5C 766.035,378.905 774.702,396.572 781,415.5C 786.97,426.77 792.97,438.104 799,449.5C 800.616,453.347 801.616,457.347 802,461.5C 802.966,487.188 801.466,512.688 797.5,538C 797.957,538.414 798.291,538.914 798.5,539.5C 787.667,648.059 777.667,757.059 768.5,866.5C 767.181,883.082 764.347,899.416 760,915.5C 748.526,942.77 728.359,958.27 699.5,962C 599.851,963.641 500.184,963.974 400.5,963C 360.451,961.244 335.284,941.077 325,902.5C 323.48,893.193 322.147,883.86 321,874.5C 310.066,754.822 299.066,635.156 288,515.5C 286.747,507.397 283.747,500.063 279,493.5C 256.351,472.511 240.685,447.178 232,417.5C 228.88,397.976 233.546,380.642 246,365.5C 257.388,352.78 270.555,342.28 285.5,334C 307.078,322.089 328.411,309.756 349.5,297C 357.205,292.092 362.372,285.259 365,276.5C 364.559,255.459 372.059,237.959 387.5,224C 420.377,202.053 454.711,182.387 490.5,165C 501.16,161.475 511.827,161.142 522.5,164C 530.045,167.271 537.712,170.271 545.5,173C 554.664,174.483 563.331,173.15 571.5,169C 597.607,153.775 623.94,138.775 650.5,124C 660.855,119.159 671.521,115.659 682.5,113.5 Z"/></g>
<g><path style="opacity:1" fill="#925644" d="M 578.5,332.5 C 587.651,327.759 596.984,323.259 606.5,319C 645.829,290.324 687.162,264.657 730.5,242C 741.842,235.659 751.675,227.492 760,217.5C 766.977,204.399 767.311,191.066 761,177.5C 754.172,163.836 746.339,150.836 737.5,138.5C 732.606,133.436 727.273,128.936 721.5,125C 720.181,124.805 718.847,124.972 717.5,125.5C 706.32,120.795 694.653,119.295 682.5,121C 677.178,122.608 671.845,124.108 666.5,125.5C 658.171,127.56 650.171,130.727 642.5,135C 616.668,150.483 590.335,165.149 563.5,179C 552.42,181.57 541.92,180.07 532,174.5C 531.235,174.57 530.735,174.903 530.5,175.5C 519.938,166.834 508.271,165.167 495.5,170.5C 495.53,169.503 495.03,168.836 494,168.5C 486.766,170.367 479.933,173.2 473.5,177C 456.672,186.916 439.672,196.582 422.5,206C 411.997,212.417 401.663,219.084 391.5,226C 384.512,231.652 379.012,238.486 375,246.5C 372.032,256.637 370.032,266.971 369,277.5C 365.857,288.313 359.357,296.479 349.5,302C 320.998,317.838 292.998,334.505 265.5,352C 250.508,362.994 240.674,377.494 236,395.5C 235.333,402.5 235.333,409.5 236,416.5C 238.068,424.37 240.734,432.037 244,439.5C 248.601,447.036 252.934,454.703 257,462.5C 265.627,473.129 274.627,483.462 284,493.5C 287.839,499.682 290.506,506.349 292,513.5C 303.089,632.54 314.089,751.873 325,871.5C 325.283,893.653 331.283,913.986 343,932.5C 358.339,949.833 377.672,958.833 401,959.5C 496.667,959.5 592.333,959.5 688,959.5C 701.044,958.447 713.544,955.281 725.5,950C 732.798,945.533 739.465,940.366 745.5,934.5C 737.383,945.917 726.383,953.417 712.5,957C 703.4,959.568 694.4,960.901 685.5,961C 591.167,961.667 496.833,961.667 402.5,961C 364.195,960.337 339.361,941.837 328,905.5C 324.649,887.641 322.316,869.641 321,851.5C 310.768,739.153 300.435,626.82 290,514.5C 288.854,507.727 286.52,501.394 283,495.5C 275.705,486.536 268.038,477.87 260,469.5C 251.433,457.249 244.099,444.249 238,430.5C 228.864,405.182 233.197,382.516 251,362.5C 256.167,358 261.333,353.5 266.5,349C 295.991,330.753 325.658,312.753 355.5,295C 359.422,291.749 362.588,287.916 365,283.5C 367.537,273.279 369.537,262.946 371,252.5C 374.738,241.098 381.238,231.598 390.5,224C 420.729,204.793 451.729,186.793 483.5,170C 494.052,165.277 505.052,163.611 516.5,165C 525.72,167.74 534.72,171.073 543.5,175C 551.713,177.161 559.713,176.495 567.5,173C 593.19,159.159 618.523,144.826 643.5,130C 658.559,121.361 674.726,116.528 692,115.5C 710.983,115.825 726.649,123.159 739,137.5C 749.968,151.093 758.634,166.093 765,182.5C 770.893,201.276 766.393,216.943 751.5,229.5C 745.167,234 738.833,238.5 732.5,243C 697.087,262.695 662.42,283.361 628.5,305C 617.383,316.564 604.05,324.564 588.5,329C 585.828,331.951 582.495,333.117 578.5,332.5 Z"/></g>
<g><path style="opacity:1" fill="#834e3f" d="M 645.5,322.5 C 617.24,329.926 595.74,346.26 581,371.5C 578.795,374.04 576.295,376.207 573.5,378C 571.167,378.667 568.833,378.667 566.5,378C 553.916,373.384 540.916,371.551 527.5,372.5C 521.001,368.871 519.834,363.871 524,357.5C 529.239,351.59 535.072,346.423 541.5,342C 606.687,304.576 671.687,266.909 736.5,229C 741.538,225.962 745.538,221.962 748.5,217C 748.472,215.93 748.139,215.097 747.5,214.5C 752.525,211.304 756.358,206.97 759,201.5C 759.667,197.167 759.667,192.833 759,188.5C 750.006,172.022 740.839,155.688 731.5,139.5C 731.369,138.624 731.702,137.957 732.5,137.5C 742.397,148.284 750.563,160.284 757,173.5C 768.249,194.918 764.749,213.418 746.5,229C 713.413,249.205 680.08,268.872 646.5,288C 618.254,307.75 588.587,325.084 557.5,340C 550.07,344.433 543.57,349.933 538,356.5C 536.663,360.526 537.83,363.526 541.5,365.5C 556.441,371.68 570.108,369.514 582.5,359C 592.968,347.147 604.301,337.147 616.5,329C 623.183,325.884 630.183,323.55 637.5,322C 640.367,321.199 643.034,321.366 645.5,322.5 Z"/></g>
<g><path style="opacity:1" fill="#8a5241" d="M 578.5,332.5 C 565.222,336.807 553.889,344.14 544.5,354.5C 543.52,357.086 543.187,359.753 543.5,362.5C 554.365,368.137 565.032,367.637 575.5,361C 585.356,351.643 595.023,342.143 604.5,332.5C 621.195,321.163 640.028,316.163 661,317.5C 687.312,316.936 710.479,325.103 730.5,342C 752.806,362.581 768.306,387.415 777,416.5C 782.998,427.828 788.998,439.161 795,450.5C 797.362,458.671 798.862,467.004 799.5,475.5C 789.207,590.117 778.54,704.451 767.5,818.5C 767.5,822.833 767.5,827.167 767.5,831.5C 765.357,855.233 762.524,878.9 759,902.5C 758.156,906.211 757.156,909.877 756,913.5C 752.98,920.874 749.48,927.874 745.5,934.5C 739.465,940.366 732.798,945.533 725.5,950C 713.544,955.281 701.044,958.447 688,959.5C 592.333,959.5 496.667,959.5 401,959.5C 377.672,958.833 358.339,949.833 343,932.5C 331.283,913.986 325.283,893.653 325,871.5C 314.089,751.873 303.089,632.54 292,513.5C 290.506,506.349 287.839,499.682 284,493.5C 274.627,483.462 265.627,473.129 257,462.5C 252.934,454.703 248.601,447.036 244,439.5C 240.734,432.037 238.068,424.37 236,416.5C 235.333,409.5 235.333,402.5 236,395.5C 240.674,377.494 250.508,362.994 265.5,352C 292.998,334.505 320.998,317.838 349.5,302C 359.357,296.479 365.857,288.313 369,277.5C 370.032,266.971 372.032,256.637 375,246.5C 379.012,238.486 384.512,231.652 391.5,226C 401.663,219.084 411.997,212.417 422.5,206C 439.672,196.582 456.672,186.916 473.5,177C 479.933,173.2 486.766,170.367 494,168.5C 495.03,168.836 495.53,169.503 495.5,170.5C 460.732,190.388 426.066,210.554 391.5,231C 386.195,235.299 382.028,240.466 379,246.5C 377.944,254.397 378.777,262.064 381.5,269.5C 380.883,269.611 380.383,269.944 380,270.5C 379.748,277.933 377.914,284.933 374.5,291.5C 374.624,292.107 374.957,292.44 375.5,292.5C 341.727,312.559 307.727,332.392 273.5,352C 260.049,360.788 250.216,372.621 244,387.5C 242.206,394.78 242.04,402.114 243.5,409.5C 242.086,404.347 241.086,399.68 240.5,395.5C 239.345,402.321 239.179,409.321 240,416.5C 248.901,444.382 263.901,468.382 285,488.5C 289.403,494.64 292.737,501.307 295,508.5C 307.076,633.79 318.743,758.79 330,883.5C 331.075,904.138 338.575,921.971 352.5,937C 363.665,946.746 376.665,952.413 391.5,954C 489.483,955.641 587.483,955.974 685.5,955C 720.138,955.127 742.972,938.961 754,906.5C 757.294,892.639 759.127,878.806 759.5,865C 771.661,735.069 783.661,605.069 795.5,475C 795.33,466.393 793.663,458.226 790.5,450.5C 789.842,443.469 786.176,439.136 779.5,437.5C 780.978,437.762 782.311,437.429 783.5,436.5C 781.667,433.5 779.833,430.5 778,427.5C 772.031,412.898 765.531,398.565 758.5,384.5C 757.614,385.325 757.281,386.325 757.5,387.5C 744.49,360.988 724.823,340.822 698.5,327C 691.349,324.42 684.015,322.586 676.5,321.5C 668.677,320.344 660.677,320.177 652.5,321C 651.263,321.232 650.263,321.732 649.5,322.5C 648.167,322.5 646.833,322.5 645.5,322.5C 643.034,321.366 640.367,321.199 637.5,322C 630.183,323.55 623.183,325.884 616.5,329C 604.301,337.147 592.968,347.147 582.5,359C 570.108,369.514 556.441,371.68 541.5,365.5C 537.83,363.526 536.663,360.526 538,356.5C 543.57,349.933 550.07,344.433 557.5,340C 588.587,325.084 618.254,307.75 646.5,288C 680.08,268.872 713.413,249.205 746.5,229C 764.749,213.418 768.249,194.918 757,173.5C 750.563,160.284 742.397,148.284 732.5,137.5C 731.702,137.957 731.369,138.624 731.5,139.5C 727.833,133.833 723.167,129.167 717.5,125.5C 718.847,124.972 720.181,124.805 721.5,125C 727.273,128.936 732.606,133.436 737.5,138.5C 746.339,150.836 754.172,163.836 761,177.5C 767.311,191.066 766.977,204.399 760,217.5C 751.675,227.492 741.842,235.659 730.5,242C 687.162,264.657 645.829,290.324 606.5,319C 596.984,323.259 587.651,327.759 578.5,332.5 Z"/></g>
<g><path style="opacity:1" fill="#804b3d" d="M 240.5,395.5 C 239.608,406.513 241.108,417.18 245,427.5C 254.09,449.243 267.09,468.243 284,484.5C 287,488.833 290,493.167 293,497.5C 295.237,502.644 296.904,507.977 298,513.5C 309.284,634.804 320.284,756.138 331,877.5C 332.187,893.799 336.521,909.133 344,923.5C 355.404,939.781 370.904,949.281 390.5,952C 489.483,953.641 588.483,953.974 687.5,953C 719.643,952.696 741.143,937.53 752,907.5C 754.132,897.578 755.798,887.578 757,877.5C 769.225,743.299 781.391,609.299 793.5,475.5C 793.329,470.136 792.829,464.802 792,459.5C 791.768,458.263 791.268,457.263 790.5,456.5C 790.5,454.5 790.5,452.5 790.5,450.5C 793.663,458.226 795.33,466.393 795.5,475C 783.661,605.069 771.661,735.069 759.5,865C 759.127,878.806 757.294,892.639 754,906.5C 742.972,938.961 720.138,955.127 685.5,955C 587.483,955.974 489.483,955.641 391.5,954C 376.665,952.413 363.665,946.746 352.5,937C 338.575,921.971 331.075,904.138 330,883.5C 318.743,758.79 307.076,633.79 295,508.5C 292.737,501.307 289.403,494.64 285,488.5C 263.901,468.382 248.901,444.382 240,416.5C 239.179,409.321 239.345,402.321 240.5,395.5 Z"/></g>
<g><path style="opacity:1" fill="#6f4338" d="M 257.5,437.5 C 263.47,446.996 269.303,456.662 275,466.5C 280.754,473.731 288.254,476.564 297.5,475C 298.333,475.833 299.167,476.667 300,477.5C 301.905,491.084 303.072,504.75 303.5,518.5C 303.666,522.514 303.499,526.514 303,530.5C 302.118,516.783 298.452,503.783 292,491.5C 279.482,478.99 268.482,465.323 259,450.5C 255.628,443.588 252.128,436.755 248.5,430C 249.635,429.251 250.635,429.417 251.5,430.5C 252.46,433.788 254.46,436.122 257.5,437.5 Z"/></g>
<g><path style="opacity:1" fill="#7a4b3e" d="M 243.5,409.5 C 247.655,419.143 252.322,428.477 257.5,437.5C 254.46,436.122 252.46,433.788 251.5,430.5C 250.635,429.417 249.635,429.251 248.5,430C 252.128,436.755 255.628,443.588 259,450.5C 268.482,465.323 279.482,478.99 292,491.5C 298.452,503.783 302.118,516.783 303,530.5C 303.499,526.514 303.666,522.514 303.5,518.5C 311.037,596.313 318.037,674.313 324.5,752.5C 324.527,758.051 325.194,763.384 326.5,768.5C 328.141,779.967 329.141,791.633 329.5,803.5C 329.527,809.051 330.194,814.384 331.5,819.5C 333.922,844.471 336.089,869.471 338,894.5C 340.515,908.201 346.681,919.867 356.5,929.5C 355.022,929.238 353.689,929.571 352.5,930.5C 366.924,944.261 384.257,951.095 404.5,951C 497.833,951.667 591.167,951.667 684.5,951C 701.871,951.079 717.538,946.079 731.5,936C 733.684,933.984 735.684,931.817 737.5,929.5C 737.167,929.167 736.833,928.833 736.5,928.5C 734.929,930.415 732.929,931.415 730.5,931.5C 740.201,923.456 746.368,913.122 749,900.5C 762.568,752.412 776.402,604.412 790.5,456.5C 791.268,457.263 791.768,458.263 792,459.5C 792.829,464.802 793.329,470.136 793.5,475.5C 781.391,609.299 769.225,743.299 757,877.5C 755.798,887.578 754.132,897.578 752,907.5C 741.143,937.53 719.643,952.696 687.5,953C 588.483,953.974 489.483,953.641 390.5,952C 370.904,949.281 355.404,939.781 344,923.5C 336.521,909.133 332.187,893.799 331,877.5C 320.284,756.138 309.284,634.804 298,513.5C 296.904,507.977 295.237,502.644 293,497.5C 290,493.167 287,488.833 284,484.5C 267.09,468.243 254.09,449.243 245,427.5C 241.108,417.18 239.608,406.513 240.5,395.5C 241.086,399.68 242.086,404.347 243.5,409.5 Z"/></g>
<g><path style="opacity:1" fill="#714337" d="M 356.5,929.5 C 365.048,936.193 374.715,940.693 385.5,943C 398.829,943.5 412.163,943.667 425.5,943.5C 414.341,944.331 403.007,944.831 391.5,945C 394.5,945.333 397.5,945.667 400.5,946C 496.833,946.667 593.167,946.667 689.5,946C 694.511,945.415 699.511,944.749 704.5,944C 702.866,943.506 701.199,943.34 699.5,943.5C 710.681,941.881 721.014,937.881 730.5,931.5C 732.929,931.415 734.929,930.415 736.5,928.5C 736.833,928.833 737.167,929.167 737.5,929.5C 735.684,931.817 733.684,933.984 731.5,936C 717.538,946.079 701.871,951.079 684.5,951C 591.167,951.667 497.833,951.667 404.5,951C 384.257,951.095 366.924,944.261 352.5,930.5C 353.689,929.571 355.022,929.238 356.5,929.5 Z"/></g>
<g><path style="opacity:1" fill="#663b30" d="M 425.5,943.5 C 516.833,943.5 608.167,943.5 699.5,943.5C 701.199,943.34 702.866,943.506 704.5,944C 699.511,944.749 694.511,945.415 689.5,946C 593.167,946.667 496.833,946.667 400.5,946C 397.5,945.667 394.5,945.333 391.5,945C 403.007,944.831 414.341,944.331 425.5,943.5 Z"/></g>
<g><path style="opacity:1" fill="#b1978f" d="M 329.5,803.5 C 330.957,808.598 331.624,813.931 331.5,819.5C 330.194,814.384 329.527,809.051 329.5,803.5 Z"/></g>
<g><path style="opacity:1" fill="#9c7b72" d="M 324.5,752.5 C 325.957,757.598 326.624,762.931 326.5,768.5C 325.194,763.384 324.527,758.051 324.5,752.5 Z"/></g>
<g><path style="opacity:1" fill="#7c4b3d" d="M 779.5,437.5 C 775.727,438.178 772.894,436.844 771,433.5C 768.519,417.548 764.019,402.214 757.5,387.5C 757.281,386.325 757.614,385.325 758.5,384.5C 765.531,398.565 772.031,412.898 778,427.5C 779.833,430.5 781.667,433.5 783.5,436.5C 782.311,437.429 780.978,437.762 779.5,437.5 Z"/></g>
<g><path style="opacity:1" fill="#ceb7af" d="M 676.5,321.5 C 667.467,321.284 658.467,321.617 649.5,322.5C 650.263,321.732 651.263,321.232 652.5,321C 660.677,320.177 668.677,320.344 676.5,321.5 Z"/></g>
<g><path style="opacity:1" fill="#6a4035" d="M 381.5,269.5 C 391.24,280.367 389.24,288.033 375.5,292.5C 374.957,292.44 374.624,292.107 374.5,291.5C 377.914,284.933 379.748,277.933 380,270.5C 380.383,269.944 380.883,269.611 381.5,269.5 Z"/></g>
<g><path style="opacity:1" fill="#6e4236" d="M 747.5,214.5 C 748.139,215.097 748.472,215.93 748.5,217C 745.538,221.962 741.538,225.962 736.5,229C 671.687,266.909 606.687,304.576 541.5,342C 535.072,346.423 529.239,351.59 524,357.5C 519.834,363.871 521.001,368.871 527.5,372.5C 522.075,373.071 516.742,374.071 511.5,375.5C 507.105,372.405 506.439,368.571 509.5,364C 514.319,357.348 519.986,351.514 526.5,346.5C 523.701,346.097 521.034,346.097 518.5,346.5C 594.335,301.745 670.669,257.745 747.5,214.5 Z"/></g>
<g><path style="opacity:1" fill="#824f40" d="M 666.5,125.5 C 626.43,148.371 586.43,171.538 546.5,195C 544.633,195.711 543.133,195.211 542,193.5C 538.905,186.963 535.071,180.963 530.5,175.5C 530.735,174.903 531.235,174.57 532,174.5C 541.92,180.07 552.42,181.57 563.5,179C 590.335,165.149 616.668,150.483 642.5,135C 650.171,130.727 658.171,127.56 666.5,125.5 Z"/></g>
<g><path style="opacity:1" fill="#fdfcfc" d="M 717.5,125.5 C 723.167,129.167 727.833,133.833 731.5,139.5C 740.839,155.688 750.006,172.022 759,188.5C 759.667,192.833 759.667,197.167 759,201.5C 756.358,206.97 752.525,211.304 747.5,214.5C 670.669,257.745 594.335,301.745 518.5,346.5C 473.903,371.775 429.57,397.442 385.5,423.5C 378.392,427.223 371.392,431.223 364.5,435.5C 372.472,436.498 380.472,436.831 388.5,436.5C 394.833,436.5 401.167,436.5 407.5,436.5C 416.608,436.943 425.608,436.443 434.5,435C 441.575,425.012 449.242,415.512 457.5,406.5C 472.762,391.531 490.762,381.198 511.5,375.5C 516.742,374.071 522.075,373.071 527.5,372.5C 540.916,371.551 553.916,373.384 566.5,378C 568.833,378.667 571.167,378.667 573.5,378C 576.295,376.207 578.795,374.04 581,371.5C 595.74,346.26 617.24,329.926 645.5,322.5C 646.833,322.5 648.167,322.5 649.5,322.5C 658.467,321.617 667.467,321.284 676.5,321.5C 684.015,322.586 691.349,324.42 698.5,327C 724.823,340.822 744.49,360.988 757.5,387.5C 764.019,402.214 768.519,417.548 771,433.5C 772.894,436.844 775.727,438.178 779.5,437.5C 786.176,439.136 789.842,443.469 790.5,450.5C 790.5,452.5 790.5,454.5 790.5,456.5C 776.402,604.412 762.568,752.412 749,900.5C 746.368,913.122 740.201,923.456 730.5,931.5C 721.014,937.881 710.681,941.881 699.5,943.5C 608.167,943.5 516.833,943.5 425.5,943.5C 412.163,943.667 398.829,943.5 385.5,943C 374.715,940.693 365.048,936.193 356.5,929.5C 346.681,919.867 340.515,908.201 338,894.5C 336.089,869.471 333.922,844.471 331.5,819.5C 331.624,813.931 330.957,808.598 329.5,803.5C 329.141,791.633 328.141,779.967 326.5,768.5C 326.624,762.931 325.957,757.598 324.5,752.5C 318.037,674.313 311.037,596.313 303.5,518.5C 303.072,504.75 301.905,491.084 300,477.5C 299.167,476.667 298.333,475.833 297.5,475C 288.254,476.564 280.754,473.731 275,466.5C 269.303,456.662 263.47,446.996 257.5,437.5C 252.322,428.477 247.655,419.143 243.5,409.5C 242.04,402.114 242.206,394.78 244,387.5C 250.216,372.621 260.049,360.788 273.5,352C 307.727,332.392 341.727,312.559 375.5,292.5C 389.24,288.033 391.24,280.367 381.5,269.5C 378.777,262.064 377.944,254.397 379,246.5C 382.028,240.466 386.195,235.299 391.5,231C 426.066,210.554 460.732,190.388 495.5,170.5C 508.271,165.167 519.938,166.834 530.5,175.5C 535.071,180.963 538.905,186.963 542,193.5C 543.133,195.211 544.633,195.711 546.5,195C 586.43,171.538 626.43,148.371 666.5,125.5C 671.845,124.108 677.178,122.608 682.5,121C 694.653,119.295 706.32,120.795 717.5,125.5 Z"/></g>
<g><path style="opacity:1" fill="#bca59e" d="M 355.5,773.5 C 356.957,778.598 357.624,783.931 357.5,789.5C 356.043,784.402 355.376,779.069 355.5,773.5 Z"/></g>
<g><path style="opacity:1" fill="#824e40" d="M 684.5,913.5 C 705.305,908.154 716.138,894.488 717,872.5C 727.997,756.199 738.663,639.866 749,523.5C 749.667,515.5 749.667,507.5 749,499.5C 747.346,491.022 742.513,485.189 734.5,482C 729.072,480.463 723.572,479.296 718,478.5C 603.778,478.638 489.444,478.638 375,478.5C 345.968,478.534 333.968,492.868 339,521.5C 349.934,627.712 359.601,734.046 368,840.5C 369.301,854.543 370.968,868.543 373,882.5C 376.41,899.53 386.576,909.696 403.5,913C 496.499,913.5 589.499,913.667 682.5,913.5C 686.97,914.486 691.637,914.819 696.5,914.5C 594.5,915.833 492.5,915.833 390.5,914.5C 394.514,914.666 398.514,914.499 402.5,914C 383.05,910.211 372.216,898.377 370,878.5C 359.007,756.322 347.84,633.989 336.5,511.5C 334.54,491.867 343.207,480.701 362.5,478C 369.818,477.279 377.152,476.779 384.5,476.5C 496.813,477.227 609.146,477.394 721.5,477C 730.242,478.023 738.075,481.189 745,486.5C 747.527,490.221 749.527,494.221 751,498.5C 751.46,511.18 751.126,523.847 750,536.5C 739.899,651.088 729.233,765.421 718,879.5C 715.986,894.517 708.153,905.351 694.5,912C 691.274,913.199 687.941,913.699 684.5,913.5 Z"/></g>
<g><path style="opacity:1" fill="#78483b" d="M 756.5,505.5 C 744.94,634.492 733.107,763.492 721,892.5C 718.034,905.633 709.868,912.966 696.5,914.5C 691.637,914.819 686.97,914.486 682.5,913.5C 683.167,913.5 683.833,913.5 684.5,913.5C 687.941,913.699 691.274,913.199 694.5,912C 708.153,905.351 715.986,894.517 718,879.5C 729.233,765.421 739.899,651.088 750,536.5C 751.126,523.847 751.46,511.18 751,498.5C 749.527,494.221 747.527,490.221 745,486.5C 738.075,481.189 730.242,478.023 721.5,477C 609.146,477.394 496.813,477.227 384.5,476.5C 377.152,476.779 369.818,477.279 362.5,478C 343.207,480.701 334.54,491.867 336.5,511.5C 347.84,633.989 359.007,756.322 370,878.5C 372.216,898.377 383.05,910.211 402.5,914C 398.514,914.499 394.514,914.666 390.5,914.5C 379.714,913.218 372.214,907.551 368,897.5C 363.841,861.561 360.341,825.561 357.5,789.5C 357.624,783.931 356.957,778.598 355.5,773.5C 347.578,683.825 339.578,594.158 331.5,504.5C 333.569,484.938 344.569,474.771 364.5,474C 377.981,473.03 391.481,472.53 405,472.5C 497.499,472.595 589.999,472.595 682.5,472.5C 695.833,472.667 709.167,472.833 722.5,473C 743.325,474.331 754.659,485.165 756.5,505.5 Z"/></g>
<g><path style="opacity:1" fill="#864f3f" d="M 684.5,913.5 C 683.833,913.5 683.167,913.5 682.5,913.5C 589.499,913.667 496.499,913.5 403.5,913C 386.576,909.696 376.41,899.53 373,882.5C 370.968,868.543 369.301,854.543 368,840.5C 359.601,734.046 349.934,627.712 339,521.5C 333.968,492.868 345.968,478.534 375,478.5C 489.444,478.638 603.778,478.638 718,478.5C 723.572,479.296 729.072,480.463 734.5,482C 742.513,485.189 747.346,491.022 749,499.5C 749.667,507.5 749.667,515.5 749,523.5C 738.663,639.866 727.997,756.199 717,872.5C 716.138,894.488 705.305,908.154 684.5,913.5 Z"/></g>
<g><path style="opacity:1" fill="#8c5242" d="M 381.5,480.5 C 492.834,480.505 604.167,480.672 715.5,481C 725.083,480.586 733.75,483.086 741.5,488.5C 744.373,491.604 746.207,495.27 747,499.5C 747.667,508.167 747.667,516.833 747,525.5C 737.019,635.193 727.019,745.193 717,855.5C 716.581,869.806 713.581,883.472 708,896.5C 699.638,907.428 688.471,912.594 674.5,912C 587.5,912.667 500.5,912.667 413.5,912C 394.998,912.685 382.498,904.518 376,887.5C 374.176,878.911 372.843,870.244 372,861.5C 362.732,744.722 352.232,628.056 340.5,511.5C 338.993,494.864 346.326,485.031 362.5,482C 369.013,481.828 375.347,481.328 381.5,480.5 Z"/></g>
<g><path style="opacity:1" fill="#965846" d="M 372.5,482.5 C 487.5,482.412 602.5,482.579 717.5,483C 725.922,482.879 733.422,485.379 740,490.5C 742.478,493.789 744.144,497.456 745,501.5C 745.667,508.833 745.667,516.167 745,523.5C 734.19,642.079 723.19,760.412 712,878.5C 708.009,900.27 694.843,910.77 672.5,910C 586.833,910.667 501.167,910.667 415.5,910C 403.9,910.399 393.733,906.899 385,899.5C 381.612,895.391 379.279,890.725 378,885.5C 376.013,876.939 374.68,868.272 374,859.5C 366.073,743.66 355.573,627.827 342.5,512C 340.755,499.15 345.755,490.15 357.5,485C 362.643,484.162 367.643,483.328 372.5,482.5 Z"/></g>
<g><path style="opacity:1" fill="#9f5d49" d="M 372.5,486.5 C 487.167,486.333 601.834,486.5 716.5,487C 724.787,487.094 731.954,489.927 738,495.5C 739.372,498.618 740.538,501.784 741.5,505C 741.26,522.765 739.593,540.765 736.5,559C 728.025,655.757 719.358,752.924 710.5,850.5C 710.709,851.086 711.043,851.586 711.5,852C 710.017,862.409 708.517,872.575 707,882.5C 703.362,896.163 694.695,903.496 681,904.5C 678.26,905.282 675.426,905.782 672.5,906C 587.167,906.667 501.833,906.667 416.5,906C 395.812,906.999 383.646,897.165 380,876.5C 375.782,848.234 374.616,820.067 376.5,792C 377.211,790.745 378.044,789.579 379,788.5C 383.657,795.139 388.324,801.806 393,808.5C 400.469,816.643 409.469,822.31 420,825.5C 432.342,826.807 444.675,826.807 457,825.5C 465.955,822.439 474.122,817.939 481.5,812C 486.998,807.961 492.665,807.628 498.5,811C 519.914,827.067 543.581,831.067 569.5,823C 576.761,819.035 584.428,816.201 592.5,814.5C 601.683,817.089 610.683,820.256 619.5,824C 634.167,827.333 648.833,827.333 663.5,824C 675.398,820.102 684.231,812.602 690,801.5C 693.09,794.14 695.09,786.473 696,778.5C 703.043,710.694 709.209,642.528 714.5,574C 715.696,546.66 703.029,530.327 676.5,525C 642.437,519.203 619.603,532.37 608,564.5C 606.71,566.792 605.043,568.792 603,570.5C 599.295,565.756 596.628,560.423 595,554.5C 587.714,537.561 574.881,527.727 556.5,525C 511.066,520.101 489.733,540.434 492.5,586C 491.31,603.521 489.81,621.021 488,638.5C 487.08,641.101 486.413,643.768 486,646.5C 485.586,646.957 485.086,647.291 484.5,647.5C 482.077,644.285 480.577,640.618 480,636.5C 476.413,611.468 472.746,586.468 469,561.5C 463.913,541.078 451.08,528.911 430.5,525C 411.128,521.296 393.461,524.963 377.5,536C 370.178,544.143 364.512,553.31 360.5,563.5C 359.167,564.833 357.833,564.833 356.5,563.5C 348.919,542.772 346.086,521.438 348,499.5C 349.598,496.399 351.765,493.732 354.5,491.5C 360.291,488.562 366.291,486.896 372.5,486.5 Z"/></g>
<g><path style="opacity:1" fill="#885040" d="M 626.5,544.5 C 626.806,547.385 626.473,550.052 625.5,552.5C 625.649,551.448 625.483,550.448 625,549.5C 622.405,554.951 620.405,560.618 619,566.5C 614.885,597.869 610.552,629.202 606,660.5C 604.227,666.802 602.56,673.135 601,679.5C 599.901,682.039 598.234,682.705 596,681.5C 592.686,667.805 591.186,653.972 591.5,640C 589.975,616.205 588.808,592.371 588,568.5C 586.908,560.736 584.742,553.403 581.5,546.5C 581.5,545.167 581.5,543.833 581.5,542.5C 585.978,546.719 589.145,552.386 591,559.5C 593.684,575.051 595.35,590.718 596,606.5C 596.912,610.795 597.579,615.128 598,619.5C 599.192,624.098 600.859,624.431 603,620.5C 604.666,614.512 606.333,608.512 608,602.5C 609.51,587.948 612.177,573.615 616,559.5C 618.812,553.21 622.145,547.21 626,541.5C 626.483,542.448 626.649,543.448 626.5,544.5 Z"/></g>
<g><path style="opacity:1" fill="#885040" d="M 507.5,541.5 C 507.037,544.482 506.704,547.482 506.5,550.5C 504.247,555.157 502.747,560.157 502,565.5C 500.875,601.868 499.708,638.201 498.5,674.5C 499.152,692.663 498.485,710.83 496.5,729C 496.544,730.764 496.878,732.431 497.5,734C 495.789,743.18 493.956,752.347 492,761.5C 491.632,762.91 490.799,763.91 489.5,764.5C 487.227,761.154 485.393,757.488 484,753.5C 479.367,730.905 476.2,708.238 474.5,685.5C 469.705,647.26 465.538,608.926 462,570.5C 460.6,563.966 458.6,557.633 456,551.5C 455.51,552.793 455.343,554.127 455.5,555.5C 455.5,557.167 455.5,558.833 455.5,560.5C 454.511,554.678 453.844,548.678 453.5,542.5C 457.194,544.866 459.694,548.199 461,552.5C 464.398,560.894 466.231,569.394 466.5,578C 470.647,617.942 475.814,657.776 482,697.5C 483.202,700.774 484.202,704.107 485,707.5C 487.526,710.063 489.193,709.397 490,705.5C 491.907,693.236 493.24,680.903 494,668.5C 495.394,634.494 496.727,600.494 498,566.5C 498.925,557.213 502.092,548.879 507.5,541.5 Z"/></g>
<g><path style="opacity:1" fill="#8a5141" d="M 378.5,543.5 C 378.5,546.167 378.5,548.833 378.5,551.5C 378.5,551.833 378.5,552.167 378.5,552.5C 377.883,552.389 377.383,552.056 377,551.5C 375.414,555.344 374.414,559.344 374,563.5C 373.349,575.191 373.682,586.857 375,598.5C 380.399,654.826 385.733,711.159 391,767.5C 393.516,808.679 415.016,825.179 455.5,817C 464.793,814.437 472.293,809.27 478,801.5C 481.585,795.998 484.919,790.331 488,784.5C 490.54,783.124 492.54,783.79 494,786.5C 508.891,815.352 532.057,825.186 563.5,816C 572.61,812.614 580.943,807.948 588.5,802C 591.06,802.438 593.56,802.271 596,801.5C 603.238,806.398 610.738,810.898 618.5,815C 636.706,821.315 654.373,819.982 671.5,811C 679.303,804.231 684.136,795.731 686,785.5C 692.624,719.302 699.124,653.135 705.5,587C 705.604,578.704 705.437,570.204 705,561.5C 704.096,557.628 702.93,553.961 701.5,550.5C 701.337,548.143 701.503,545.81 702,543.5C 705.439,549.049 707.772,555.049 709,561.5C 709.868,574.578 709.368,587.578 707.5,600.5C 703.071,654.823 698.071,709.489 692.5,764.5C 691.404,811.925 667.404,830.425 620.5,820C 613.279,817.108 606.279,813.774 599.5,810C 595.928,808.595 592.261,808.262 588.5,809C 568.065,822.087 546.065,825.754 522.5,820C 512.988,816.077 504.655,810.41 497.5,803C 493.848,799.248 489.848,798.748 485.5,801.5C 466.843,821.336 444.176,827.503 417.5,820C 400.241,813.401 390.407,800.901 388,782.5C 381.232,718.369 374.899,654.369 369,590.5C 365.904,572.898 368.904,556.564 378,541.5C 378.464,542.094 378.631,542.761 378.5,543.5 Z"/></g>
<g><path style="opacity:1" fill="#7b493c" d="M 581.5,546.5 C 584.742,553.403 586.908,560.736 588,568.5C 588.808,592.371 589.975,616.205 591.5,640C 591.186,653.972 592.686,667.805 596,681.5C 598.234,682.705 599.901,682.039 601,679.5C 602.56,673.135 604.227,666.802 606,660.5C 610.552,629.202 614.885,597.869 619,566.5C 620.405,560.618 622.405,554.951 625,549.5C 625.483,550.448 625.649,551.448 625.5,552.5C 624.962,559.822 624.629,567.155 624.5,574.5C 623.111,579.269 622.444,584.269 622.5,589.5C 620.89,605.983 619.223,622.316 617.5,638.5C 617.453,635.432 616.953,632.432 616,629.5C 612.733,661.179 608.066,692.845 602,724.5C 601.04,728.298 599.706,731.965 598,735.5C 596.333,738.167 594.667,738.167 593,735.5C 589.324,719.396 587.324,703.062 587,686.5C 585.759,645.152 584.426,603.819 583,562.5C 582.833,638.334 582.333,714.001 581.5,789.5C 581.5,708.5 581.5,627.5 581.5,546.5 Z"/></g>
<g><path style="opacity:1" fill="#7f4b3d" d="M 506.5,550.5 C 506.5,553.833 506.5,557.167 506.5,560.5C 504.808,616.659 503.642,672.992 503,729.5C 502.299,743.674 501.466,757.841 500.5,772C 500.463,779.816 501.963,787.316 505,794.5C 505.168,769.33 505.668,744.33 506.5,719.5C 506.333,744.836 506.5,770.169 507,795.5C 507.986,798.806 509.486,801.806 511.5,804.5C 511.062,804.435 510.728,804.601 510.5,805C 513.064,808.617 516.397,811.284 520.5,813C 544.791,821.67 566.457,817.503 585.5,800.5C 589.25,797.446 593.25,796.946 597.5,799C 615.796,815.738 636.463,821.072 659.5,815C 664.901,813.643 669.234,810.81 672.5,806.5C 672.376,805.893 672.043,805.56 671.5,805.5C 674.2,803.766 676.2,801.432 677.5,798.5C 677.393,800.379 677.893,800.712 679,799.5C 684.127,788.777 686.794,777.444 687,765.5C 692.157,705.476 697.49,645.476 703,585.5C 703.667,577.833 703.667,570.167 703,562.5C 702.721,559.543 701.887,556.877 700.5,554.5C 700.5,553.5 700.5,552.5 700.5,551.5C 701.167,551.5 701.5,551.167 701.5,550.5C 702.93,553.961 704.096,557.628 705,561.5C 705.437,570.204 705.604,578.704 705.5,587C 699.124,653.135 692.624,719.302 686,785.5C 684.136,795.731 679.303,804.231 671.5,811C 654.373,819.982 636.706,821.315 618.5,815C 610.738,810.898 603.238,806.398 596,801.5C 593.56,802.271 591.06,802.438 588.5,802C 580.943,807.948 572.61,812.614 563.5,816C 532.057,825.186 508.891,815.352 494,786.5C 492.54,783.79 490.54,783.124 488,784.5C 484.919,790.331 481.585,795.998 478,801.5C 472.293,809.27 464.793,814.437 455.5,817C 415.016,825.179 393.516,808.679 391,767.5C 385.733,711.159 380.399,654.826 375,598.5C 373.682,586.857 373.349,575.191 374,563.5C 374.414,559.344 375.414,555.344 377,551.5C 377.383,552.056 377.883,552.389 378.5,552.5C 378.5,553.833 378.5,555.167 378.5,556.5C 377.59,558.019 376.757,559.685 376,561.5C 375.333,570.167 375.333,578.833 376,587.5C 381.967,647.244 387.634,707.244 393,767.5C 393.651,778.463 396.318,788.797 401,798.5C 401.483,797.552 401.649,796.552 401.5,795.5C 403.098,801.43 406.765,805.43 412.5,807.5C 412.062,807.435 411.728,807.601 411.5,808C 428.954,817.553 446.621,817.887 464.5,809C 465.252,808.329 465.586,807.496 465.5,806.5C 470.991,804.681 474.324,801.014 475.5,795.5C 475.34,797.199 475.506,798.866 476,800.5C 482.29,791.108 484.623,780.775 483,769.5C 473.594,705.449 466.261,641.116 461,576.5C 459.921,569.18 458.088,562.18 455.5,555.5C 455.343,554.127 455.51,552.793 456,551.5C 458.6,557.633 460.6,563.966 462,570.5C 465.538,608.926 469.705,647.26 474.5,685.5C 476.2,708.238 479.367,730.905 484,753.5C 485.393,757.488 487.227,761.154 489.5,764.5C 490.799,763.91 491.632,762.91 492,761.5C 493.956,752.347 495.789,743.18 497.5,734C 496.878,732.431 496.544,730.764 496.5,729C 498.485,710.83 499.152,692.663 498.5,674.5C 499.708,638.201 500.875,601.868 502,565.5C 502.747,560.157 504.247,555.157 506.5,550.5 Z"/></g>
<g><path style="opacity:1" fill="#724437" d="M 617.5,638.5 C 613.72,684.861 609.553,731.195 605,777.5C 604.333,783.833 604.333,790.167 605,796.5C 606.474,801.974 609.974,805.474 615.5,807C 632.5,807.667 649.5,807.667 666.5,807C 668.154,806.392 669.821,805.892 671.5,805.5C 672.043,805.56 672.376,805.893 672.5,806.5C 669.234,810.81 664.901,813.643 659.5,815C 636.463,821.072 615.796,815.738 597.5,799C 593.25,796.946 589.25,797.446 585.5,800.5C 566.457,817.503 544.791,821.67 520.5,813C 516.397,811.284 513.064,808.617 510.5,805C 510.728,804.601 511.062,804.435 511.5,804.5C 513.593,805.045 515.593,805.878 517.5,807C 535.544,807.931 553.544,807.598 571.5,806C 578.238,802.678 581.571,797.178 581.5,789.5C 582.333,714.001 582.833,638.334 583,562.5C 584.426,603.819 585.759,645.152 587,686.5C 587.324,703.062 589.324,719.396 593,735.5C 594.667,738.167 596.333,738.167 598,735.5C 599.706,731.965 601.04,728.298 602,724.5C 608.066,692.845 612.733,661.179 616,629.5C 616.953,632.432 617.453,635.432 617.5,638.5 Z"/></g>
<g><path style="opacity:1" fill="#724336" d="M 506.5,560.5 C 506.5,613.5 506.5,666.5 506.5,719.5C 505.668,744.33 505.168,769.33 505,794.5C 501.963,787.316 500.463,779.816 500.5,772C 501.466,757.841 502.299,743.674 503,729.5C 503.642,672.992 504.808,616.659 506.5,560.5 Z"/></g>
<g><path style="opacity:1" fill="#aa8e86" d="M 380.5,572.5 C 381.957,577.598 382.624,582.931 382.5,588.5C 381.194,583.384 380.527,578.051 380.5,572.5 Z"/></g>
<g><path style="opacity:1" fill="#78493c" d="M 455.5,555.5 C 458.088,562.18 459.921,569.18 461,576.5C 466.261,641.116 473.594,705.449 483,769.5C 484.623,780.775 482.29,791.108 476,800.5C 475.506,798.866 475.34,797.199 475.5,795.5C 475.148,785.163 474.648,774.829 474,764.5C 467.107,696.568 460.94,628.568 455.5,560.5C 455.5,558.833 455.5,557.167 455.5,555.5 Z"/></g>
<g><path style="opacity:1" fill="#7a4a3e" d="M 378.5,556.5 C 378.976,560.993 379.642,565.327 380.5,569.5C 380.5,570.5 380.5,571.5 380.5,572.5C 380.527,578.051 381.194,583.384 382.5,588.5C 389.054,657.482 395.388,726.482 401.5,795.5C 401.649,796.552 401.483,797.552 401,798.5C 396.318,788.797 393.651,778.463 393,767.5C 387.634,707.244 381.967,647.244 376,587.5C 375.333,578.833 375.333,570.167 376,561.5C 376.757,559.685 377.59,558.019 378.5,556.5 Z"/></g>
<g><path style="opacity:1" fill="#a7867c" d="M 378.5,551.5 C 380.057,557.261 380.724,563.261 380.5,569.5C 379.642,565.327 378.976,560.993 378.5,556.5C 378.5,555.167 378.5,553.833 378.5,552.5C 378.5,552.167 378.5,551.833 378.5,551.5 Z"/></g>
<g><path style="opacity:1" fill="#7a4b3e" d="M 700.5,554.5 C 701.887,556.877 702.721,559.543 703,562.5C 703.667,570.167 703.667,577.833 703,585.5C 697.49,645.476 692.157,705.476 687,765.5C 686.794,777.444 684.127,788.777 679,799.5C 677.893,800.712 677.393,800.379 677.5,798.5C 685.526,717.214 693.193,635.88 700.5,554.5 Z"/></g>
<g><path style="opacity:1" fill="#fdfcfc" d="M 700.5,551.5 C 700.5,552.5 700.5,553.5 700.5,554.5C 693.193,635.88 685.526,717.214 677.5,798.5C 676.2,801.432 674.2,803.766 671.5,805.5C 669.821,805.892 668.154,806.392 666.5,807C 649.5,807.667 632.5,807.667 615.5,807C 609.974,805.474 606.474,801.974 605,796.5C 604.333,790.167 604.333,783.833 605,777.5C 609.553,731.195 613.72,684.861 617.5,638.5C 619.223,622.316 620.89,605.983 622.5,589.5C 623.889,584.731 624.556,579.731 624.5,574.5C 624.629,567.155 624.962,559.822 625.5,552.5C 626.473,550.052 626.806,547.385 626.5,544.5C 627.779,539.043 631.112,535.21 636.5,533C 654.167,532.333 671.833,532.333 689.5,533C 699.144,535.437 702.811,541.604 700.5,551.5 Z"/></g>
<g><path style="opacity:1" fill="#7f6760" d="M 636.5,755.5 C 635.946,762.153 635.612,768.82 635.5,775.5C 634.196,768.776 634.529,762.109 636.5,755.5 Z"/></g>
<g><path style="opacity:1" fill="#beafab" d="M 658.5,702.5 C 658.771,707.434 658.104,712.1 656.5,716.5C 656.532,711.609 657.199,706.943 658.5,702.5 Z"/></g>
<g><path style="opacity:1" fill="#58362d" d="M 658.5,702.5 C 657.199,706.943 656.532,711.609 656.5,716.5C 654.998,735.857 653.164,755.19 651,774.5C 649.494,777.937 646.827,779.27 643,778.5C 639.737,779.012 637.237,778.012 635.5,775.5C 635.612,768.82 635.946,762.153 636.5,755.5C 641.434,691.428 647.267,627.428 654,563.5C 654.833,562.667 655.667,561.833 656.5,561C 660.5,560.333 664.5,560.333 668.5,561C 670.028,562.648 670.695,564.648 670.5,567C 666.433,612.166 662.433,657.333 658.5,702.5 Z"/></g>
<g><path style="opacity:1" fill="#fcfcfb" d="M 569.5,533.5 C 575.235,534.241 579.235,537.241 581.5,542.5C 581.5,543.833 581.5,545.167 581.5,546.5C 581.5,627.5 581.5,708.5 581.5,789.5C 581.571,797.178 578.238,802.678 571.5,806C 553.544,807.598 535.544,807.931 517.5,807C 515.593,805.878 513.593,805.045 511.5,804.5C 509.486,801.806 507.986,798.806 507,795.5C 506.5,770.169 506.333,744.836 506.5,719.5C 506.5,666.5 506.5,613.5 506.5,560.5C 506.5,557.167 506.5,553.833 506.5,550.5C 506.704,547.482 507.037,544.482 507.5,541.5C 508.827,538.173 511.16,535.84 514.5,534.5C 532.806,533.553 551.139,533.22 569.5,533.5 Z"/></g>
<g><path style="opacity:1" fill="#58352c" d="M 538.5,560.5 C 541.85,560.335 545.183,560.502 548.5,561C 549.931,561.465 551.097,562.299 552,563.5C 552.667,633.167 552.667,702.833 552,772.5C 550.7,776.987 547.7,778.987 543,778.5C 540.019,778.919 537.686,777.919 536,775.5C 535.333,704.833 535.333,634.167 536,563.5C 537.045,562.627 537.878,561.627 538.5,560.5 Z"/></g>
<g><path style="opacity:1" fill="#fcfcfc" d="M 453.5,542.5 C 453.844,548.678 454.511,554.678 455.5,560.5C 460.94,628.568 467.107,696.568 474,764.5C 474.648,774.829 475.148,785.163 475.5,795.5C 474.324,801.014 470.991,804.681 465.5,806.5C 447.88,807.473 430.214,807.806 412.5,807.5C 406.765,805.43 403.098,801.43 401.5,795.5C 395.388,726.482 389.054,657.482 382.5,588.5C 382.624,582.931 381.957,577.598 380.5,572.5C 380.5,571.5 380.5,570.5 380.5,569.5C 380.724,563.261 380.057,557.261 378.5,551.5C 378.5,548.833 378.5,546.167 378.5,543.5C 380.224,538.606 383.557,535.106 388.5,533C 406.5,532.333 424.5,532.333 442.5,533C 447.618,534.627 451.285,537.793 453.5,542.5 Z"/></g>
<g><path style="opacity:1" fill="#b19f9a" d="M 438.5,698.5 C 439.889,703.269 440.556,708.269 440.5,713.5C 439.111,708.731 438.444,703.731 438.5,698.5 Z"/></g>
<g><path style="opacity:1" fill="#c0b2ad" d="M 418.5,671.5 C 419.81,677.288 420.477,683.288 420.5,689.5C 418.943,683.739 418.276,677.739 418.5,671.5 Z"/></g>
<g><path style="opacity:1" fill="#9b857f" d="M 431.5,626.5 C 432.889,631.269 433.556,636.269 433.5,641.5C 432.111,636.731 431.444,631.731 431.5,626.5 Z"/></g>
<g><path style="opacity:1" fill="#59362d" d="M 427.5,581.5 C 429.445,596.3 430.779,611.3 431.5,626.5C 431.444,631.731 432.111,636.731 433.5,641.5C 435.261,660.492 436.927,679.492 438.5,698.5C 438.444,703.731 439.111,708.731 440.5,713.5C 441.956,731.985 443.289,750.485 444.5,769C 444.167,771.833 443.833,774.667 443.5,777.5C 438.823,779.048 434.323,778.715 430,776.5C 429.333,775.167 428.667,773.833 428,772.5C 425.64,744.816 423.14,717.149 420.5,689.5C 420.477,683.288 419.81,677.288 418.5,671.5C 416.331,644.815 413.998,618.148 411.5,591.5C 412.222,591.918 412.722,592.584 413,593.5C 413.249,592.376 413.749,591.376 414.5,590.5C 418.78,588.247 422.947,588.58 427,591.5C 427.498,588.183 427.665,584.85 427.5,581.5 Z"/></g>
<g><path style="opacity:1" fill="#4b2f27" d="M 427.5,581.5 C 427.665,584.85 427.498,588.183 427,591.5C 422.947,588.58 418.78,588.247 414.5,590.5C 413.749,591.376 413.249,592.376 413,593.5C 412.722,592.584 412.222,591.918 411.5,591.5C 411.11,583.149 410.443,574.815 409.5,566.5C 409.326,564.307 409.993,562.473 411.5,561C 415.167,560.333 418.833,560.333 422.5,561C 423.667,562.167 424.833,563.333 426,564.5C 427.404,570.044 427.904,575.71 427.5,581.5 Z"/></g>
<g><path style="opacity:1" fill="#a5614c" d="M 374.5,488.5 C 488.167,488.333 601.834,488.5 715.5,489C 731.534,489.034 739.534,497.034 739.5,513C 727.085,628.83 716.585,744.663 708,860.5C 709.073,892.095 693.907,906.595 662.5,904C 583.5,904.667 504.5,904.667 425.5,904C 417.791,903.762 410.124,903.096 402.5,902C 392.262,898.761 385.762,891.928 383,881.5C 378.985,858.658 377.652,835.658 379,812.5C 379.519,809.445 381.019,807.111 383.5,805.5C 390.667,811.159 398,816.659 405.5,822C 415.757,826.985 426.59,829.151 438,828.5C 448.163,829.048 457.996,827.548 467.5,824C 473.5,820.667 479.5,817.333 485.5,814C 490.32,811.913 494.987,812.246 499.5,815C 518.909,828.382 540.242,832.382 563.5,827C 573.304,823.621 583.137,820.454 593,817.5C 604.292,821.597 615.792,825.097 627.5,828C 671.243,834.553 695.41,816.053 700,772.5C 706.317,706.872 712.151,641.205 717.5,575.5C 718.587,558.244 712.92,543.744 700.5,532C 693.611,527.057 685.944,524.057 677.5,523C 646.133,516.983 622.967,527.816 608,555.5C 603.957,559.513 600.624,558.847 598,553.5C 589.732,535.84 576.232,525.673 557.5,523C 539.641,519.981 522.975,522.981 507.5,532C 497.085,541.882 491.252,554.049 490,568.5C 488.963,580.162 487.963,591.829 487,603.5C 486.891,608.056 485.891,612.389 484,616.5C 481.913,614.255 480.579,611.588 480,608.5C 477.687,596.984 475.52,585.484 473.5,574C 472.33,562.163 468.497,550.996 462,540.5C 451.864,528.849 439.031,522.683 423.5,522C 397.386,519.368 376.719,528.701 361.5,550C 359.888,550.72 358.388,550.554 357,549.5C 349.923,534.225 347.59,518.225 350,501.5C 351.561,498.217 353.727,495.383 356.5,493C 362.395,490.529 368.395,489.029 374.5,488.5 Z"/></g>
<g><path style="opacity:1" fill="#6e4135" d="M 465.5,806.5 C 465.586,807.496 465.252,808.329 464.5,809C 446.621,817.887 428.954,817.553 411.5,808C 411.728,807.601 412.062,807.435 412.5,807.5C 430.214,807.806 447.88,807.473 465.5,806.5 Z"/></g>
<g><path style="opacity:1" fill="#ab644e" d="M 706.5,772.5 C 709.35,803.721 708.85,835.055 705,866.5C 704.538,870.45 703.704,874.284 702.5,878C 700.328,892.485 691.661,900.151 676.5,901C 588.167,901.667 499.833,901.667 411.5,901C 401.325,900.498 393.491,895.998 388,887.5C 382.156,865.882 380.156,843.882 382,821.5C 382.455,818.243 384.121,815.909 387,814.5C 418.702,835.776 451.202,836.943 484.5,818C 489.631,815.956 494.631,816.289 499.5,819C 526.358,834.126 554.024,835.459 582.5,823C 585.785,822.176 589.118,821.676 592.5,821.5C 594.873,821.975 597.039,821.975 599,821.5C 622.867,832.919 647.367,834.419 672.5,826C 684.767,818.727 693.934,808.561 700,795.5C 703.225,788.177 705.392,780.51 706.5,772.5 Z"/></g>
<g><path style="opacity:1" fill="#b16851" d="M 698.5,808.5 C 701.48,808.241 703.313,809.574 704,812.5C 705.328,833.241 704.328,853.907 701,874.5C 699.57,885.57 693.737,893.07 683.5,897C 677.539,897.997 671.539,898.663 665.5,899C 584.5,899.667 503.5,899.667 422.5,899C 413.766,899.157 405.432,897.49 397.5,894C 392.719,890.283 389.552,885.449 388,879.5C 385.056,862.618 384.056,845.618 385,828.5C 385.295,825.04 387.129,823.04 390.5,822.5C 398.152,825.324 405.819,828.157 413.5,831C 437.233,837.086 459.9,834.419 481.5,823C 484.604,821.932 487.771,821.099 491,820.5C 500.21,823.854 509.376,827.354 518.5,831C 535.49,835.602 552.49,835.602 569.5,831C 576.859,827.744 584.525,825.577 592.5,824.5C 601.904,826.689 611.237,829.189 620.5,832C 638.099,835.643 655.433,834.643 672.5,829C 682.505,823.824 691.172,816.991 698.5,808.5 Z"/></g>
<g><path style="opacity:1" fill="#bb6e55" d="M 692.5,822.5 C 696.73,821.563 699.23,823.229 700,827.5C 701.022,843.291 700.022,858.958 697,874.5C 695.247,885.252 689.08,891.752 678.5,894C 633.679,895.112 588.845,895.612 544,895.5C 499.155,895.612 454.321,895.112 409.5,894C 397.303,891.119 390.803,883.286 390,870.5C 388.747,859.188 388.414,847.855 389,836.5C 390.407,830.939 393.907,829.105 399.5,831C 419.353,838.391 439.686,840.057 460.5,836C 470.572,832.802 480.572,829.302 490.5,825.5C 500.884,828.684 511.217,832.184 521.5,836C 536.17,839.283 550.837,839.283 565.5,836C 573.904,832.731 582.904,830.565 592.5,829.5C 596.7,829.179 600.534,830.179 604,832.5C 604.333,832.167 604.667,831.833 605,831.5C 624.014,838.574 643.514,840.074 663.5,836C 673.547,832.907 683.213,828.407 692.5,822.5 Z"/></g>
<g><path style="opacity:1" fill="#c17257" d="M 498.5,837.5 C 500.435,836.291 502.435,836.458 504.5,838C 501.456,838.359 501.122,839.026 503.5,840C 511.062,843.354 518.895,844.521 527,843.5C 528.5,843.667 530,843.833 531.5,844C 529.167,844.333 526.833,844.667 524.5,845C 537.167,847 549.833,847 562.5,845C 560.5,844.667 558.5,844.333 556.5,844C 557.833,843.833 559.167,843.667 560.5,843.5C 564.912,844.905 569.245,844.739 573.5,843C 572.5,842.667 571.5,842.333 570.5,842C 572.68,841.581 574.846,841.748 577,842.5C 586.755,840.688 596.588,839.855 606.5,840C 602.148,840.419 601.815,841.086 605.5,842C 608.833,842 612.167,842 615.5,842C 611.148,842.419 610.815,843.086 614.5,844C 617.839,844.39 621.173,844.224 624.5,843.5C 625.833,843.667 627.167,843.833 628.5,844C 626.5,844.333 624.5,844.667 622.5,845C 634.838,846.973 647.171,846.973 659.5,845C 657.5,844.667 655.5,844.333 653.5,844C 657.351,843.46 661.185,843.626 665,844.5C 670.804,843.962 671.304,843.128 666.5,842C 668.866,841.438 671.199,841.604 673.5,842.5C 678.615,840.47 683.782,840.136 689,841.5C 690.952,850.696 691.619,850.696 691,841.5C 688.43,839.053 685.263,837.887 681.5,838C 685.792,835.782 689.292,836.615 692,840.5C 692.667,848.5 692.667,856.5 692,864.5C 691.667,861.5 691.333,858.5 691,855.5C 689.877,861.858 689.544,868.191 690,874.5C 689.667,873.833 689.333,873.167 689,872.5C 687.958,878.76 684.458,882.927 678.5,885C 680.901,885.805 680.734,886.638 678,887.5C 677.161,886.376 675.994,885.709 674.5,885.5C 587.5,886.833 500.5,886.833 413.5,885.5C 411.404,887.191 409.404,887.358 407.5,886C 408.167,885.667 408.833,885.333 409.5,885C 406.827,883.999 404.493,882.499 402.5,880.5C 401.391,877.153 399.724,874.153 397.5,871.5C 397.843,864.552 398.009,857.552 398,850.5C 398.542,845.47 401.375,843.136 406.5,843.5C 411.664,844.787 416.83,844.787 422,843.5C 423.5,843.667 425,843.833 426.5,844C 417.167,844.667 417.167,845.333 426.5,846C 436.873,846.804 447.207,846.471 457.5,845C 455.5,844.667 453.5,844.333 451.5,844C 454.855,843.454 458.188,843.621 461.5,844.5C 463.577,844.308 465.577,843.808 467.5,843C 466.5,842.667 465.5,842.333 464.5,842C 466.527,841.502 468.527,841.669 470.5,842.5C 475.85,840.996 481.183,839.496 486.5,838C 491.9,838.099 495.9,837.933 498.5,837.5 Z"/></g>
<g><path style="opacity:1" fill="#c3aea7" d="M 624.5,574.5 C 624.556,579.731 623.889,584.731 622.5,589.5C 622.444,584.269 623.111,579.269 624.5,574.5 Z"/></g>
<g><path style="opacity:1" fill="#ab644e" d="M 368.5,491.5 C 485.5,491.333 602.5,491.5 719.5,492C 728.787,492.625 734.287,497.459 736,506.5C 736.532,521.654 735.198,536.654 732,551.5C 728.903,564.085 726.236,576.752 724,589.5C 723.681,573.923 720.681,558.923 715,544.5C 702.906,526.621 685.906,518.288 664,519.5C 649.15,518.929 635.65,522.763 623.5,531C 617.495,536.672 611.829,542.672 606.5,549C 603.258,549.986 600.592,549.152 598.5,546.5C 585.661,527.414 567.661,518.414 544.5,519.5C 525.299,518.502 509.466,525.169 497,539.5C 491.092,550.554 486.759,562.22 484,574.5C 482.951,576.107 481.451,576.773 479.5,576.5C 476.119,562.074 470.286,548.741 462,536.5C 449.41,523.964 434.077,518.297 416,519.5C 395.789,518.899 378.622,525.733 364.5,540C 359.404,541.58 356.237,539.746 355,534.5C 351.047,523.201 350.714,511.868 354,500.5C 357.693,495.574 362.527,492.574 368.5,491.5 Z"/></g>
<g><path style="opacity:1" fill="#b16851" d="M 448.5,493.5 C 532.34,494.15 616.173,494.15 700,493.5C 706.514,493.819 713.014,494.319 719.5,495C 725.175,495.744 729.342,498.578 732,503.5C 734.522,518.987 732.855,533.987 727,548.5C 725.333,549.833 723.667,549.833 722,548.5C 709.326,526.155 689.992,515.489 664,516.5C 642.856,515.498 625.356,522.831 611.5,538.5C 607.7,542.794 603.367,543.461 598.5,540.5C 584.827,523.541 566.994,515.541 545,516.5C 524.593,515.175 507.927,522.175 495,537.5C 491.081,543.67 487.414,550.003 484,556.5C 482,557.833 480,557.833 478,556.5C 473.25,545.5 466.417,536 457.5,528C 445.163,519.694 431.497,515.861 416.5,516.5C 406.584,516.448 396.918,517.948 387.5,521C 380.167,525 372.833,529 365.5,533C 363.08,533.687 360.913,533.187 359,531.5C 353.851,521.357 353.351,511.023 357.5,500.5C 359.493,498.501 361.827,497.001 364.5,496C 392.621,494.867 420.621,494.034 448.5,493.5 Z"/></g>
<g><path style="opacity:1" fill="#b96d54" d="M 379.5,497.5 C 490.497,498.63 601.497,498.796 712.5,498C 723.856,498.022 729.522,503.689 729.5,515C 729.333,521.501 727.833,527.667 725,533.5C 722.455,534.797 719.955,534.631 717.5,533C 698.09,514.796 675.09,508.129 648.5,513C 632.759,516.037 619.092,523.037 607.5,534C 605.167,534.667 602.833,534.667 600.5,534C 580.123,515.142 556.123,508.142 528.5,513C 514.031,515.294 502.031,521.794 492.5,532.5C 490.025,536.142 487.358,539.642 484.5,543C 481.662,545.12 478.996,544.953 476.5,542.5C 461.947,521.472 441.78,511.139 416,511.5C 407.36,511.77 398.86,512.936 390.5,515C 382.587,518.792 374.587,522.292 366.5,525.5C 360.561,523.22 357.895,518.886 358.5,512.5C 358.572,506.643 361.239,502.476 366.5,500C 370.965,499.126 375.298,498.293 379.5,497.5 Z"/></g>
<g><path style="opacity:1" fill="#ddcdc7" d="M 569.5,533.5 C 551.139,533.22 532.806,533.553 514.5,534.5C 515.263,533.732 516.263,533.232 517.5,533C 535.005,532.171 552.338,532.338 569.5,533.5 Z"/></g>
<g><path style="opacity:1" fill="#6b3f34" d="M 757.5,493.5 C 757.495,497.534 757.162,501.534 756.5,505.5C 754.659,485.165 743.325,474.331 722.5,473C 709.167,472.833 695.833,472.667 682.5,472.5C 589.999,472.595 497.499,472.595 405,472.5C 391.481,472.53 377.981,473.03 364.5,474C 344.569,474.771 333.569,484.938 331.5,504.5C 330.705,500.215 330.372,495.881 330.5,491.5C 334.351,480.855 342.017,474.355 353.5,472C 362.091,470.344 370.757,469.344 379.5,469C 405.685,468.384 431.851,468.884 458,470.5C 510.334,467.842 562.667,467.842 615,470.5C 651.814,468.636 688.647,468.136 725.5,469C 737.273,470.635 747.107,475.802 755,484.5C 756.15,487.418 756.983,490.418 757.5,493.5 Z"/></g>
<g><path style="opacity:1" fill="#6b463c" d="M 757.5,493.5 C 756.983,490.418 756.15,487.418 755,484.5C 747.107,475.802 737.273,470.635 725.5,469C 688.647,468.136 651.814,468.636 615,470.5C 562.667,467.842 510.334,467.842 458,470.5C 431.851,468.884 405.685,468.384 379.5,469C 370.757,469.344 362.091,470.344 353.5,472C 342.017,474.355 334.351,480.855 330.5,491.5C 328.903,483.571 328.403,475.571 329,467.5C 329.75,466.874 330.584,466.374 331.5,466C 473.5,465.333 615.5,465.333 757.5,466C 759.028,467.648 759.695,469.648 759.5,472C 759.005,479.335 758.338,486.502 757.5,493.5 Z"/></g>
<g><path style="opacity:1" fill="#a48c85" d="M 600.5,434.5 C 601.043,434.56 601.376,434.893 601.5,435.5C 558.002,436.831 514.669,436.831 471.5,435.5C 482.5,435.5 493.5,435.5 504.5,435.5C 525.5,435.5 546.5,435.5 567.5,435.5C 578.679,435.828 589.679,435.495 600.5,434.5 Z"/></g>
<g><path style="opacity:1" fill="#a18b85" d="M 739.5,424.5 C 741.531,427.708 741.865,431.041 740.5,434.5C 740.384,431.14 740.051,427.807 739.5,424.5 Z"/></g>
<g><path style="opacity:1" fill="#4a2e27" d="M 385.5,423.5 C 387.281,427.417 388.281,431.751 388.5,436.5C 380.472,436.831 372.472,436.498 364.5,435.5C 371.392,431.223 378.392,427.223 385.5,423.5 Z"/></g>
<g><path style="opacity:1" fill="#5c372e" d="M 546.5,402.5 C 568.886,406.017 586.886,416.683 600.5,434.5C 589.679,435.495 578.679,435.828 567.5,435.5C 569.042,434.837 570.709,434.17 572.5,433.5C 574.231,426.609 572.231,420.942 566.5,416.5C 561.724,413.469 557.057,410.969 552.5,409C 539.785,406.002 527.118,406.336 514.5,410C 512.573,412.858 509.906,414.525 506.5,415C 499.923,419.559 497.757,425.726 500,433.5C 501.622,434.099 503.122,434.766 504.5,435.5C 493.5,435.5 482.5,435.5 471.5,435.5C 480.962,422.879 492.962,413.379 507.5,407C 512.007,405.107 516.673,403.941 521.5,403.5C 529.8,402.629 538.133,402.295 546.5,402.5 Z"/></g>
<g><path style="opacity:1" fill="#6d4034" d="M 567.5,435.5 C 546.5,435.5 525.5,435.5 504.5,435.5C 503.122,434.766 501.622,434.099 500,433.5C 497.757,425.726 499.923,419.559 506.5,415C 509.906,414.525 512.573,412.858 514.5,410C 527.118,406.336 539.785,406.002 552.5,409C 557.057,410.969 561.724,413.469 566.5,416.5C 572.231,420.942 574.231,426.609 572.5,433.5C 570.709,434.17 569.042,434.837 567.5,435.5 Z"/></g>
<g><path style="opacity:1" fill="#7b483b" d="M 529.5,415.5 C 537.466,414.867 545.133,416.034 552.5,419C 559.645,425.121 558.979,430.121 550.5,434C 541.167,434.667 531.833,434.667 522.5,434C 513.79,431.149 512.457,426.482 518.5,420C 522.157,418.178 525.824,416.678 529.5,415.5 Z"/></g>
<g><path style="opacity:1" fill="#6e4135" d="M 457.5,406.5 C 449.242,415.512 441.575,425.012 434.5,435C 425.608,436.443 416.608,436.943 407.5,436.5C 401.043,430.834 400.876,424.834 407,418.5C 419.962,404.848 435.795,398.681 454.5,400C 456.022,401.916 457.022,404.083 457.5,406.5 Z"/></g>
<g><path style="opacity:1" fill="#9f867f" d="M 546.5,402.5 C 538.133,402.295 529.8,402.629 521.5,403.5C 522.263,402.732 523.263,402.232 524.5,402C 532.012,401.178 539.345,401.345 546.5,402.5 Z"/></g>
<g><path style="opacity:1" fill="#78473a" d="M 721.5,436.5 C 717.167,436.5 712.833,436.5 708.5,436.5C 724.439,431.955 729.606,421.622 724,405.5C 714.353,384.839 698.853,371.006 677.5,364C 661.779,361.064 647.112,363.731 633.5,372C 616.313,384.643 614.146,399.476 627,416.5C 635.597,426.283 646.097,432.95 658.5,436.5C 651.716,436.92 645.05,436.42 638.5,435C 632.093,425.681 625.093,416.848 617.5,408.5C 611.056,393.631 614.389,381.131 627.5,371C 662.413,349.961 692.913,355.461 719,387.5C 723.189,393.877 726.855,400.544 730,407.5C 733.492,419.228 730.658,428.895 721.5,436.5 Z"/></g>
<g><path style="opacity:1" fill="#8b5241" d="M 708.5,436.5 C 691.833,436.5 675.167,436.5 658.5,436.5C 646.097,432.95 635.597,426.283 627,416.5C 614.146,399.476 616.313,384.643 633.5,372C 647.112,363.731 661.779,361.064 677.5,364C 698.853,371.006 714.353,384.839 724,405.5C 729.606,421.622 724.439,431.955 708.5,436.5 Z"/></g>
<g><path style="opacity:1" fill="#a05e4a" d="M 659.5,370.5 C 685.101,370.885 703.601,382.551 715,405.5C 719.56,416.511 716.394,424.011 705.5,428C 689.843,429.962 674.176,429.962 658.5,428C 645.523,424.698 635.69,417.198 629,405.5C 625.44,398.407 626.107,391.741 631,385.5C 638.84,377.117 648.34,372.117 659.5,370.5 Z"/></g>
<g><path style="opacity:1" fill="#af6750" d="M 659.5,377.5 C 684.274,377.119 700.607,388.619 708.5,412C 707.932,413.872 707.265,415.705 706.5,417.5C 703.661,419.42 700.661,421.087 697.5,422.5C 696.914,422.291 696.414,421.957 696,421.5C 681.375,423.972 666.875,423.138 652.5,419C 641.106,413.649 635.606,404.815 636,392.5C 641.499,383.834 649.332,378.834 659.5,377.5 Z"/></g>
<g><path style="opacity:1" fill="#bc6e55" d="M 661.5,383.5 C 677.673,383.924 690.007,391.091 698.5,405C 699.474,410.33 697.141,413.664 691.5,415C 676.601,418.437 662.601,416.437 649.5,409C 641.671,402.076 641.671,395.243 649.5,388.5C 653.599,386.775 657.599,385.108 661.5,383.5 Z"/></g>
<g><path style="opacity:1" fill="#693f34" d="M 739.5,424.5 C 740.051,427.807 740.384,431.14 740.5,434.5C 740.389,435.117 740.056,435.617 739.5,436C 733.509,436.499 727.509,436.666 721.5,436.5C 730.658,428.895 733.492,419.228 730,407.5C 726.855,400.544 723.189,393.877 719,387.5C 692.913,355.461 662.413,349.961 627.5,371C 614.389,381.131 611.056,393.631 617.5,408.5C 612.416,404.526 607.582,400.192 603,395.5C 602.159,391.88 602.826,388.546 605,385.5C 628.393,350.611 659.226,341.777 697.5,359C 720.197,375.22 734.197,397.054 739.5,424.5 Z"/></g>
<g><path style="opacity:1" fill="#613a30" d="M 511.5,375.5 C 490.762,381.198 472.762,391.531 457.5,406.5C 457.022,404.083 456.022,401.916 454.5,400C 435.795,398.681 419.962,404.848 407,418.5C 400.876,424.834 401.043,430.834 407.5,436.5C 401.167,436.5 394.833,436.5 388.5,436.5C 388.281,431.751 387.281,427.417 385.5,423.5C 429.57,397.442 473.903,371.775 518.5,346.5C 521.034,346.097 523.701,346.097 526.5,346.5C 519.986,351.514 514.319,357.348 509.5,364C 506.439,368.571 507.105,372.405 511.5,375.5 Z"/></g>
<g><path style="opacity:1" fill="#7e4a3c" d="M 711.5,199.5 C 711.5,200.167 711.833,200.5 712.5,200.5C 707.498,204.003 702.165,207.003 696.5,209.5C 695.448,209.649 694.448,209.483 693.5,209C 706.437,201.644 710.104,191.144 704.5,177.5C 695.678,167.462 685.011,164.962 672.5,170C 629.555,192.469 587.555,216.469 546.5,242C 473.631,283.934 400.631,325.6 327.5,367C 317.368,372.603 307.702,378.936 298.5,386C 287.151,395.098 284.317,406.265 290,419.5C 293.994,424.823 299.327,427.49 306,427.5C 310.994,427.209 315.828,426.209 320.5,424.5C 321.726,424.52 322.726,424.853 323.5,425.5C 319.299,428.1 314.966,430.434 310.5,432.5C 288.529,431.599 279.696,420.266 284,398.5C 286.291,392.206 290.125,387.039 295.5,383C 309.328,373.25 323.661,364.25 338.5,356C 383.725,331.565 428.058,305.898 471.5,279C 494.299,266.098 517.299,253.431 540.5,241C 582.227,214.8 624.894,190.133 668.5,167C 683.556,160.299 696.722,162.799 708,174.5C 712.035,182.26 712.535,190.26 709.5,198.5C 709.957,199.298 710.624,199.631 711.5,199.5 Z"/></g>
<g><path style="opacity:1" fill="#724437" d="M 711.5,199.5 C 710.624,199.631 709.957,199.298 709.5,198.5C 712.535,190.26 712.035,182.26 708,174.5C 696.722,162.799 683.556,160.299 668.5,167C 624.894,190.133 582.227,214.8 540.5,241C 517.299,253.431 494.299,266.098 471.5,279C 428.058,305.898 383.725,331.565 338.5,356C 323.661,364.25 309.328,373.25 295.5,383C 290.125,387.039 286.291,392.206 284,398.5C 279.696,420.266 288.529,431.599 310.5,432.5C 306.732,435.225 302.732,437.725 298.5,440C 296.833,440.667 295.167,440.667 293.5,440C 288.43,432.023 283.764,423.856 279.5,415.5C 279.116,407.586 280.616,399.919 284,392.5C 290.442,383.888 298.275,376.888 307.5,371.5C 345.45,349.399 383.783,327.899 422.5,307C 464.25,280.79 506.917,256.124 550.5,233C 583.671,212.244 617.338,192.244 651.5,173C 662.096,166.247 673.596,162.08 686,160.5C 709.142,164.145 717.642,177.145 711.5,199.5 Z"/></g>
<g><path style="opacity:1" fill="#55342b" d="M 505.5,197.5 C 512.069,198.068 515.735,201.735 516.5,208.5C 516.61,210.374 515.944,211.874 514.5,213C 481.958,231.769 449.292,250.269 416.5,268.5C 414.617,268.124 413.117,267.124 412,265.5C 410.821,262.619 409.654,259.786 408.5,257C 408.439,255.289 409.106,253.956 410.5,253C 442.336,234.637 474.002,216.137 505.5,197.5 Z"/></g>
<g><path style="opacity:1" fill="#875141" d="M 696.5,209.5 C 572.366,281.737 448.032,353.737 323.5,425.5C 322.726,424.853 321.726,424.52 320.5,424.5C 315.828,426.209 310.994,427.209 306,427.5C 299.327,427.49 293.994,424.823 290,419.5C 284.317,406.265 287.151,395.098 298.5,386C 307.702,378.936 317.368,372.603 327.5,367C 400.631,325.6 473.631,283.934 546.5,242C 587.555,216.469 629.555,192.469 672.5,170C 685.011,164.962 695.678,167.462 704.5,177.5C 710.104,191.144 706.437,201.644 693.5,209C 694.448,209.483 695.448,209.649 696.5,209.5 Z"/></g>
<g><path style="opacity:1" fill="#8e5342" d="M 680.5,169.5 C 698.336,168.827 706.169,177.161 704,194.5C 699.861,201.972 694.028,207.806 686.5,212C 569.304,279.608 451.971,347.274 334.5,415C 329.186,417.632 323.853,420.299 318.5,423C 308.511,427.453 299.678,425.953 292,418.5C 288.496,410.371 288.829,402.371 293,394.5C 299.297,387.531 306.463,381.697 314.5,377C 431.875,309.136 549.542,241.469 667.5,174C 671.98,172.564 676.313,171.064 680.5,169.5 Z"/></g>
<g><path style="opacity:1" fill="#995a47" d="M 677.5,174.5 C 686.672,172.376 693.839,175.043 699,182.5C 701.011,189.158 699.677,195.158 695,200.5C 690.255,204.122 685.422,207.622 680.5,211C 565.36,277.071 450.36,343.404 335.5,410C 328.189,414.155 320.523,417.489 312.5,420C 298.166,421.998 292.333,415.831 295,401.5C 299.116,393.717 304.95,387.55 312.5,383C 429.604,314.888 546.937,247.221 664.5,180C 668.724,177.706 673.057,175.873 677.5,174.5 Z"/></g>
<g><path style="opacity:1" fill="#9f5d49" d="M 679.5,176.5 C 685.316,175.634 690.483,177.3 695,181.5C 698.494,187.045 698.161,192.378 694,197.5C 688.124,203.186 681.624,208.02 674.5,212C 561.571,276.467 448.904,341.467 336.5,407C 327.707,412.232 318.374,416.066 308.5,418.5C 296.392,415.032 293.558,407.699 300,396.5C 304.221,392.311 308.721,388.478 313.5,385C 430.673,317.402 548.006,249.735 665.5,182C 670.317,180.234 674.983,178.401 679.5,176.5 Z"/></g>
<g><path style="opacity:1" fill="#a5614c" d="M 677.5,179.5 C 683.701,178.285 688.868,179.952 693,184.5C 693.667,187.5 693.667,190.5 693,193.5C 690.872,196.63 688.372,199.463 685.5,202C 563.519,273.664 440.852,344.33 317.5,414C 311.366,416.671 305.866,415.838 301,411.5C 298.812,406.437 299.479,401.771 303,397.5C 308.351,391.581 314.517,386.747 321.5,383C 432.439,319.529 543.105,255.529 653.5,191C 661.469,186.846 669.469,183.013 677.5,179.5 Z"/></g>
<g><path style="opacity:1" fill="#ab644e" d="M 680.5,182.5 C 690.827,185.578 692.16,191.078 684.5,199C 680.89,200.944 677.557,203.277 674.5,206C 562.775,269.856 451.442,334.189 340.5,399C 332.779,403.527 324.779,407.527 316.5,411C 304.789,412.768 301.623,408.268 307,397.5C 312.051,392.726 317.551,388.56 323.5,385C 437.909,318.465 552.576,252.465 667.5,187C 671.846,185.164 676.179,183.664 680.5,182.5 Z"/></g>
<g><path style="opacity:1" fill="#b16850" d="M 674.5,188.5 C 677.649,188.211 680.649,188.711 683.5,190C 682.167,191 682.167,192 683.5,193C 680.43,196.281 677.264,199.447 674,202.5C 556.848,270.012 439.348,337.512 321.5,405C 318.144,406.186 314.811,406.353 311.5,405.5C 310.274,402.157 310.94,399.157 313.5,396.5C 321.49,390.503 329.824,385.003 338.5,380C 446.5,318.825 554.167,256.825 661.5,194C 665.87,192.05 670.204,190.216 674.5,188.5 Z"/></g>
<g><path style="opacity:1" fill="#6a4035" d="M 712.5,200.5 C 711.833,200.5 711.5,200.167 711.5,199.5C 717.642,177.145 709.142,164.145 686,160.5C 673.596,162.08 662.096,166.247 651.5,173C 617.338,192.244 583.671,212.244 550.5,233C 506.917,256.124 464.25,280.79 422.5,307C 383.783,327.899 345.45,349.399 307.5,371.5C 298.275,376.888 290.442,383.888 284,392.5C 280.616,399.919 279.116,407.586 279.5,415.5C 269.472,406.051 268.972,396.051 278,385.5C 282.546,381.286 287.379,377.453 292.5,374C 421.575,299.267 550.909,224.934 680.5,151C 686.374,149.029 692.374,148.362 698.5,149C 701.759,150.211 704.592,152.044 707,154.5C 713.654,166.314 720.154,178.147 726.5,190C 726.561,191.711 725.894,193.044 724.5,194C 720.606,196.446 716.606,198.612 712.5,200.5 Z"/></g>
</svg>
