<?xml version="1.0" encoding="UTF-8"?>
<!DOCTYPE svg PUBLIC "-//W3C//DTD SVG 1.1//EN" "http://www.w3.org/Graphics/SVG/1.1/DTD/svg11.dtd">
<svg xmlns="http://www.w3.org/2000/svg" version="1.1" width="92px" height="88px" style="shape-rendering:geometricPrecision; text-rendering:geometricPrecision; image-rendering:optimizeQuality; fill-rule:evenodd; clip-rule:evenodd" xmlns:xlink="http://www.w3.org/1999/xlink">
<g><path style="opacity:0.849" fill="#f2c74c" d="M 49.5,-0.5 C 50.1667,-0.5 50.8333,-0.5 51.5,-0.5C 52.2299,0.712371 53.2299,1.71237 54.5,2.5C 53.1581,3.8761 51.8248,5.20943 50.5,6.5C 49.5,5.16667 48.5,3.83333 47.5,2.5C 48.6119,1.73485 49.2786,0.734849 49.5,-0.5 Z"/></g>
<g><path style="opacity:0.656" fill="#121313" d="M 82.5,87.5 C 59.5,87.5 36.5,87.5 13.5,87.5C 13.2172,86.7109 12.7172,86.0442 12,85.5C 10.3333,68.8333 8.66667,52.1667 7,35.5C 6.31675,31.6193 5.15009,27.9526 3.5,24.5C 3.38977,22.626 4.05644,21.126 5.5,20C 9.16667,19.6667 12.8333,19.3333 16.5,19C 18.6688,16.7969 21.3354,15.9635 24.5,16.5C 23.9105,8.60276 27.5772,5.60276 35.5,7.5C 43.4228,5.60276 47.0895,8.60276 46.5,16.5C 52.4788,18.5001 58.8121,19.6667 65.5,20C 68.1983,24.1994 67.865,28.1994 64.5,32C 64.8333,32.8333 65.1667,33.6667 65.5,34.5C 70.7125,33.5117 75.5458,34.5117 80,37.5C 81.6352,39.2434 81.8019,41.0767 80.5,43C 81.1852,45.7952 81.6852,48.6285 82,51.5C 88.4294,60.1324 90.7628,69.7991 89,80.5C 87.3059,83.3576 85.1393,85.691 82.5,87.5 Z M 31.5,13.5 C 34.1667,13.5 36.8333,13.5 39.5,13.5C 39.5,14.5 39.5,15.5 39.5,16.5C 36.8333,16.5 34.1667,16.5 31.5,16.5C 31.5,15.5 31.5,14.5 31.5,13.5 Z"/></g>
<g><path style="opacity:0.956" fill="#72d8fa" d="M 9.5,6.5 C 12.1038,6.59846 14.1038,7.76513 15.5,10C 12.977,14.6169 10.3103,14.6169 7.5,10C 8.42949,8.9231 9.09616,7.75644 9.5,6.5 Z"/></g>
<g><path style="opacity:1" fill="#98a4af" d="M 29.5,11.5 C 28.6981,12.9516 28.1981,14.6183 28,16.5C 27.5065,14.8659 27.3398,13.1992 27.5,11.5C 27.6107,10.8826 27.944,10.3826 28.5,10C 33.1667,9.33333 37.8333,9.33333 42.5,10C 44.6187,12.2185 44.952,14.7185 43.5,17.5C 41.7175,15.9775 41.0508,13.9775 41.5,11.5C 37.5,11.5 33.5,11.5 29.5,11.5 Z M 31.5,13.5 C 31.5,14.5 31.5,15.5 31.5,16.5C 34.1667,16.5 36.8333,16.5 39.5,16.5C 39.5,15.5 39.5,14.5 39.5,13.5C 36.8333,13.5 34.1667,13.5 31.5,13.5 Z"/></g>
<g><path style="opacity:0.54" fill="#000000" d="M 73.5,9.5 C 76.7732,9.47056 77.4398,10.8039 75.5,13.5C 77.2913,16.2475 77.7913,19.2475 77,22.5C 75.9887,23.3366 74.8221,23.67 73.5,23.5C 73.5191,21.9397 73.8524,20.4397 74.5,19C 71.3758,15.9944 71.0425,12.8278 73.5,9.5 Z"/></g>
<g><path style="opacity:0.61" fill="#85d44c" d="M 63.5,10.5 C 65.9118,10.6941 66.9118,12.0274 66.5,14.5C 65.1667,14.5 63.8333,14.5 62.5,14.5C 62.4326,13.0413 62.7659,11.7079 63.5,10.5 Z"/></g>
<g><path style="opacity:1" fill="#4e545a" d="M 27.5,11.5 C 27.3398,13.1992 27.5065,14.8659 28,16.5C 28.1981,14.6183 28.6981,12.9516 29.5,11.5C 29.5,13.5 29.5,15.5 29.5,17.5C 28.5,17.5 27.5,17.5 26.5,17.5C 26.2053,15.2646 26.5386,13.2646 27.5,11.5 Z"/></g>
<g><path style="opacity:0.516" fill="#000000" d="M 82.5,17.5 C 84.7099,18.4551 85.0432,19.9551 83.5,22C 87.3547,25.6659 87.3547,29.1659 83.5,32.5C 82.6919,32.1924 82.0253,31.6924 81.5,31C 82.5742,30.2613 83.2409,29.2613 83.5,28C 80.0719,24.7214 79.7386,21.2214 82.5,17.5 Z"/></g>
<g><path style="opacity:1" fill="#b4bec7" d="M 51.5,20.5 C 40.8333,20.5 30.1667,20.5 19.5,20.5C 24.4558,19.1718 29.7891,18.5051 35.5,18.5C 41.2109,18.5051 46.5442,19.1718 51.5,20.5 Z"/></g>
<g><path style="opacity:1" fill="#2d2e30" d="M 19.5,20.5 C 30.1667,20.5 40.8333,20.5 51.5,20.5C 55.8333,21.1667 60.1667,21.8333 64.5,22.5C 45.1667,22.5 25.8333,22.5 6.5,22.5C 10.8333,21.8333 15.1667,21.1667 19.5,20.5 Z"/></g>
<g><path style="opacity:1" fill="#d8dee5" d="M 6.5,22.5 C 25.8333,22.5 45.1667,22.5 64.5,22.5C 64.5,24.1667 64.5,25.8333 64.5,27.5C 45.1667,27.5 25.8333,27.5 6.5,27.5C 6.5,25.8333 6.5,24.1667 6.5,22.5 Z"/></g>
<g><path style="opacity:1" fill="#eff6fe" d="M 7.5,23.5 C 26.1667,23.5 44.8333,23.5 63.5,23.5C 63.5,24.5 63.5,25.5 63.5,26.5C 44.8333,26.5 26.1667,26.5 7.5,26.5C 7.5,25.5 7.5,24.5 7.5,23.5 Z"/></g>
<g><path style="opacity:1" fill="#d1dce7" d="M 53.5,84.5 C 41.011,85.4954 28.3443,85.8287 15.5,85.5C 14.7784,85.0825 14.2784,84.4158 14,83.5C 12.7284,65.4686 11.2284,47.4686 9.5,29.5C 26.8333,29.5 44.1667,29.5 61.5,29.5C 61.8076,31.924 61.4742,34.2573 60.5,36.5C 57.4093,38.108 56.7427,40.4414 58.5,43.5C 58.0875,46.6816 57.2542,49.6816 56,52.5C 55.5006,46.8431 55.3339,41.1764 55.5,35.5C 53.4086,35.3184 51.4086,35.6518 49.5,36.5C 48.3461,49.8217 47.8461,63.155 48,76.5C 49.104,79.7212 50.9374,82.3878 53.5,84.5 Z"/></g>
<g><path style="opacity:1" fill="#5a5c5f" d="M 65.5,36.5 C 70.0361,36.4327 74.3695,37.0994 78.5,38.5C 78.6427,40.2624 78.3094,41.9291 77.5,43.5C 71.8722,44.4954 66.2055,44.8288 60.5,44.5C 60.5,42.5 60.5,40.5 60.5,38.5C 62.698,38.8799 64.3646,38.2132 65.5,36.5 Z"/></g>
<g><path style="opacity:1" fill="#1e2021" d="M 15.5,35.5 C 17.4672,35.2606 19.3005,35.5939 21,36.5C 22.5072,49.8021 23.1738,63.1354 23,76.5C 21,77.8333 19,77.8333 17,76.5C 16.2579,62.8399 15.7579,49.1732 15.5,35.5 Z"/></g>
<g><path style="opacity:1" fill="#242527" d="M 38.5,35.5 C 40.4672,35.2606 42.3005,35.5939 44,36.5C 44.6667,49.8333 44.6667,63.1667 44,76.5C 41.9592,77.4231 39.7925,77.7564 37.5,77.5C 37.1849,63.4213 37.5182,49.4213 38.5,35.5 Z"/></g>
<g><path style="opacity:1" fill="#cbdbe9" d="M 41.5,37.5 C 42.147,50.5441 41.4803,63.2108 39.5,75.5C 38.853,62.4559 39.5197,49.7892 41.5,37.5 Z"/></g>
<g><path style="opacity:1" fill="#c0cfdc" d="M 51.5,61.5 C 50.5386,59.7354 50.2053,57.7354 50.5,55.5C 50.5,49.5 50.5,43.5 50.5,37.5C 51.5,37.5 52.5,37.5 53.5,37.5C 54.0272,45.6708 53.3605,53.6708 51.5,61.5 Z"/></g>
<g><path style="opacity:0.674" fill="#fd627e" d="M 91.5,39.5 C 91.5,40.1667 91.5,40.8333 91.5,41.5C 89.4572,44.1937 87.7905,43.8604 86.5,40.5C 87.7905,37.1396 89.4572,36.8063 91.5,39.5 Z"/></g>
<g><path style="opacity:1" fill="#242628" d="M 27.5,35.5 C 29.4672,35.2606 31.3005,35.5939 33,36.5C 33.4999,50.1626 33.6666,63.8293 33.5,77.5C 31.2075,77.7564 29.0408,77.4231 27,76.5C 26.186,62.7584 26.3527,49.0917 27.5,35.5 Z"/></g>
<g><path style="opacity:1" fill="#8e99a3" d="M 29.5,37.5 C 28.853,50.5441 29.5197,63.2108 31.5,75.5C 30.791,76.404 29.791,76.7373 28.5,76.5C 28.1712,63.3226 28.5045,50.3226 29.5,37.5 Z"/></g>
<g><path style="opacity:1" fill="#cedfee" d="M 29.5,37.5 C 31.4803,49.7892 32.147,62.4559 31.5,75.5C 29.5197,63.2108 28.853,50.5441 29.5,37.5 Z"/></g>
<g><path style="opacity:1" fill="#99a6b1" d="M 41.5,37.5 C 42.4955,50.3226 42.8288,63.3226 42.5,76.5C 41.209,76.7373 40.209,76.404 39.5,75.5C 41.4803,63.2108 42.147,50.5441 41.5,37.5 Z"/></g>
<g><path style="opacity:1" fill="#757576" d="M 58.5,46.5 C 65.5316,46.1697 72.5316,46.503 79.5,47.5C 76,47.8333 72.5,48.1667 69,48.5C 65.0982,48.4877 61.5982,47.821 58.5,46.5 Z"/></g>
<g><path style="opacity:1" fill="#595b5e" d="M 59.5,50.5 C 60.8734,50.3433 62.2068,50.51 63.5,51C 61.8131,52.913 61.3131,55.0797 62,57.5C 63.1638,55.3512 64.3305,53.1846 65.5,51C 67.8333,50.3333 70.1667,50.3333 72.5,51C 73.7234,53.0521 74.7234,55.2188 75.5,57.5C 76.7115,55.1595 76.3782,52.9928 74.5,51C 77.3083,50.0799 79.4749,50.9133 81,53.5C 94.9169,80.1594 87.0836,90.6594 57.5,85C 52.9448,82.9507 50.6115,79.4507 50.5,74.5C 51.2914,65.5991 54.2914,57.5991 59.5,50.5 Z"/></g>
<g><path style="opacity:0.663" fill="#f7cc48" d="M -0.5,51.5 C 0.5,51.5 1.5,51.5 2.5,51.5C 2.5,52.8333 2.5,54.1667 2.5,55.5C 1.5,55.5 0.5,55.5 -0.5,55.5C -0.5,54.1667 -0.5,52.8333 -0.5,51.5 Z"/></g>
<g><path style="opacity:1" fill="#becdda" d="M 20.5,58.5 C 21.1167,64.5982 20.45,70.2649 18.5,75.5C 18.2127,62.8114 17.546,50.1447 16.5,37.5C 17.8333,37.5 19.1667,37.5 20.5,37.5C 20.5,44.5 20.5,51.5 20.5,58.5 Z"/></g>
<g><path style="opacity:1" fill="#5b6268" d="M 50.5,55.5 C 50.2053,57.7354 50.5386,59.7354 51.5,61.5C 51.2914,62.9217 50.7914,64.255 50,65.5C 49.1925,61.9733 49.3592,58.6399 50.5,55.5 Z"/></g>
<g><path style="opacity:1" fill="#8c97a1" d="M 20.5,58.5 C 21.4896,64.31 21.8229,70.31 21.5,76.5C 20.209,76.7373 19.209,76.404 18.5,75.5C 20.45,70.2649 21.1167,64.5982 20.5,58.5 Z"/></g>
<g><path style="opacity:1" fill="#45484c" d="M 53.5,84.5 C 54.0431,84.56 54.3764,84.8933 54.5,85.5C 41.3394,86.8252 28.3394,86.8252 15.5,85.5C 28.3443,85.8287 41.011,85.4954 53.5,84.5 Z"/></g>
</svg>
